<?xml version="1.0" encoding="utf-8"?>
<!-- Generator: Adobe Illustrator 19.0.0, SVG Export Plug-In . SVG Version: 6.00 Build 0)  -->
<svg version="1.1" id="Layer_1" xmlns="http://www.w3.org/2000/svg" xmlns:xlink="http://www.w3.org/1999/xlink" x="0px" y="0px"
	 viewBox="0 0 358.6 301.1" style="enable-background:new 0 0 358.6 301.1;" xml:space="preserve">
<style type="text/css">
	.st0{fill:#E56B25;}
	.st1{opacity:0.35;fill:#47266A;}
	.st2{fill:none;}
</style>
<g id="XMLID_32_">
	<path id="XMLID_116_" class="st0" d="M105,99.4c-1.5-3.5-3-7.2-2.1-10.9c1.2-5.2,6.5-8.2,10.3-11.9c3.6-3.5,6-8,8.3-12.4
		c1.8,10.2,3.5,20.4,5.3,30.6c0.3,1.6,0.5,3.6-0.6,4.8c-0.7,0.8-1.8,1.1-2.8,1.3c-8.1,1.8-16.8,0.4-23.9-3.8"/>
	<g id="XMLID_53_">
		<path id="XMLID_137_" class="st1" d="M207,13.9c0.3,0.9,0.9,1.5,1.4,2.3c0.2,0.3,0.2,0.6,0.2,1c-0.1,1.2-0.4,2.4-0.3,3.7
			c0,0.7-0.2,1.4-0.2,2.2c0,0.6-0.1,1.1,0,1.7c0.1,0.3,0.3,0.7,0.6,1.1c-0.7,0.8-1.8,0.9-2.8,1.3c-1-0.6-1.2-1.6-1.3-2.5
			c-0.1-1.3-0.1-2.6-0.3-3.9c-0.1-0.6,0.1-1.2,0.1-1.8c0-1,0-2,0.1-3c0.1-0.7,0.3-1.4,1.2-1.6c0.3-0.1,0.6-0.2,0.9-0.4
			C206.6,13.9,206.8,13.9,207,13.9z"/>
		<path id="XMLID_127_" class="st1" d="M124.3,57.4c0-0.4-0.1-0.8-0.1-1.3c0.7-0.6,1.6-0.8,2.5-0.9c1.3-0.2,2.6-0.4,4-0.5
			c1.2-0.1,2.3,0.2,3.4,0.9c1.5,1,2.9,2.2,4,3.6c0.9,1.1,1.8,2.1,2.5,3.3c0.6,1.2,1.5,2.3,2.3,3.4c0.8,1.3,1.7,2.6,2.2,4
			c0.4,1.2,1.1,2.4,1.3,3.7c0.2,1,0.6,2,0.8,3c0.2,0.8,0.3,1.6,0.3,2.4c0.1,1.6,0.2,3.3,0.1,4.9c-0.1,1.3-0.4,2.6-0.6,3.8
			c-0.1,0.3-0.1,0.6-0.2,0.9c0,0.2,0,0.3,0,0.5c-0.4,1.3-0.9,2.5-1.4,3.8c-0.1,0.2-0.1,0.5-0.3,0.7c-0.6,0.7-1,1.5-1.3,2.3
			c-0.5,1.1-1.3,2-2,3c-1.1,1.5-2.4,3-3.6,4.4c-0.5,0.6-1.1,1.1-1.5,1.7c-1.1,1.4-2.1,2.9-3.2,4.4c-0.3,0.4-0.8,0.8-1.2,1
			c-1.1,0.6-2.2,1-3.4,1.1c-0.5,0.1-0.9-0.1-1.1-0.5c-0.3-0.5-0.2-0.8,0.2-1.2c1-0.9,2-1.7,2.8-2.7c0.7-0.8,1.3-1.8,1.9-2.7
			c1.4-2.2,2.8-4.4,4.1-6.6c1.3-2.2,2.6-4.5,3.8-6.8c1.3-2.3,1.8-4.9,2-7.5c0.1-0.8-0.1-1.5-0.1-2.3c0-1.3-0.4-2.5-0.6-3.7
			c-0.2-0.9-0.6-1.7-1-2.6c-0.6-1.4-1.3-2.9-2.2-4.2c-0.5-0.8-1-1.6-1.8-2.3c-0.3-0.3-0.5-0.7-0.7-1c-0.2-0.2-0.3-0.4-0.5-0.6
			c-0.4-0.5-0.8-1-1.2-1.4c-0.9-0.9-1.9-1.9-2.9-2.7c-1.3-1.1-2.6-2.2-3.9-3.2c-0.6-0.5-1.4-0.8-2-1.2
			C125.1,58.1,124.8,57.8,124.3,57.4z M136.9,63.3c0,0,0.1-0.1,0.1-0.1c0-0.1-0.1-0.2-0.1-0.2c-1-1.2-2.1-2.3-3-3.5
			c-0.6-0.8-1.6-0.9-2.2-1.5c-0.1-0.1-0.3,0-0.5,0.1c0,0.1-0.1,0.1-0.1,0.2c0.3,0.2,0.6,0.4,0.8,0.6c1.3,1.1,2.7,2,3.8,3.2
			c0.3,0.4,0.8,0.6,1,1.1C136.6,63.2,136.8,63.2,136.9,63.3z"/>
		<path id="XMLID_126_" class="st2" d="M119.9,101.2c-0.2-0.2-0.4-0.4-0.6-0.7c-1.8,0.3-3.6,0.6-5.4,0.7c-1.9,0.2-3.8,0.3-5.7-0.1
			c-0.8-0.2-1.5-0.7-2.2-1.2c-1.1-0.9-1.7-2.2-3-3c-0.4-0.2-0.7-0.6-0.7-1.1c-0.4-2.2-0.9-4.3-1-6.5c0-0.2,0-0.4,0-0.6
			c-0.1-0.8,0.3-1.2,1-1.4c0.5-0.2,1-0.4,1.5-0.5c0.5-0.1,1.4,0.5,1.5,1.1c0.1,0.8,0.3,1.7,0.4,2.5c0,0.1,0,0.1,0,0.2
			c0.6,1.4,0.7,2.9,1.5,4.3c0.1,0.2,0.3,0.6,0.5,0.6c1,0.1,1.5,0.9,2.3,1.3c1,0.5,2.1,0.8,3.2,0.3c1-0.4,2.1-0.5,3.3-0.5
			c1.5,0,3,0,4.5,0c0.1-0.2,0.1-0.2,0.1-0.3c-0.2-1.7,0.3-3.3,0.6-4.9c0.1-0.6,0.1-1.2,0.2-1.9c-0.4-0.2-0.9-0.4-1.3-0.5
			c-2.5-0.4-5-0.8-7.4-1.3c-1.4-0.2-2.8-0.7-4.1-1.3c-0.8-0.4-1.6-0.8-2.3-1.3c-0.5-0.4-0.9-1-1.4-1.6c0.3-0.3,0.5-0.6,0.8-0.7
			c0.9-0.3,1.8-0.9,2.9-0.4c0.6,0.2,1.2,0.4,1.8,0.5c0.2,0.1,0.5,0.1,0.8,0.1c2.1-0.2,4,0.3,6,0.8c1,0.2,1.9,0.4,2.9,0.6
			c0.2,0,0.4,0.1,0.6,0.2c0-0.5-0.2-0.7-0.5-1.1c-0.6-0.6-1.1-1.3-0.9-2.3c0.1-0.4,0.1-0.8,0.1-1.2c0-0.7,0.1-1.3,0.4-2
			c0.3-0.6,0.3-1.2,0.4-1.8c0.1-1.6,0.1-3.2-0.2-4.8c-0.1-0.4,0-0.9-0.1-1.3c-0.1-0.9,0.5-1.3,1.2-1.5c0.4-0.1,0.8-0.2,1.2-0.3
			c0.7-0.2,0.9-0.1,1.2,0.5c0.3,0.7,0.7,1.4,0.3,2.3c-0.2,0.5,0,1.1,0,1.6c0.3,2-0.2,4-0.7,5.9c-0.1,0.3-0.2,0.7-0.3,1
			c0.4,0.2,0.6,0.7,1.3,0.7c0.5,0,0.8,0.5,0.9,1c0.1,0.8,0.3,1.7,0.3,2.6c0,0.6,0.3,1,0.6,1.4c0.3,0.4,0.6,0.8,0.8,1.2
			c0.3,0.6,0.3,1.2,0.1,1.8c-0.2,0.3-0.3,0.7-0.5,1c0.1,0.9,0.2,1.7,0.4,2.5c0.2,0.9,0.5,1.8,0.8,2.6c0.1,0.2,0.4,0.3,0.6,0.3
			c0.5,0,1.1-0.1,1.6-0.2c0.8-0.1,1.6,0,2.2,0.6c0,0.4,0,0.9,0,1.5c-0.6,0.6-1.4,1-2.3,1.3c-1.7,0.7-3.4,1.2-5,2.1
			c-0.1,0-0.1,0.1-0.2,0.1c-1.6,0.4-3.2,0.9-4.8,1.3C120.2,101.2,120,101.2,119.9,101.2z"/>
		<path id="XMLID_123_" class="st1" d="M94.3,67.3c1.2,1.1,0.6,2.2,0.1,3.2c-0.3,0.7-0.7,1.3-1,2c0.3,0.4,0.6,0.8,1,1.3
			c-0.5,0.7-1,1.4-1.5,2.1c-0.4,0.7-0.7,1.4-0.9,2.1c-0.3,1-0.4,2-0.5,3.1c-0.1,1.1-0.1,2.2-0.1,3.3c0,2.2,0.1,4.5,0.6,6.7
			c0.2,1,0.7,1.8,0.9,2.8c0.2,0.9,0.7,1.7,1,2.6c0.4,1.1,1,2,1.7,2.9c1,1.3,2.1,2.4,3.4,3.5c0.4,0.3,0.8,0.6,1.3,1
			c0.6,0.5,1.3,0.9,1.8,1.5c0.5,0.5,1.1,0.7,1.7,1.1c0.9,0.6,1.7,1.2,2.6,1.8c0.4,0.3,0.9,0.5,1.3,0.8c1,0.9,1.9,1.8,2.8,2.7
			c0.1,0.1,0.1,0.2,0.1,0.2c0.5,1.2,0.4,1.7-0.9,2.2c-1.7,0.7-3.4,1-5.3,0.4c-2-0.6-3.9-1.4-5.7-2.5c-0.3-0.2-0.6-0.4-0.9-0.5
			c-1.6-0.9-2.7-2.3-3.9-3.7c-0.8-0.9-1.6-1.7-2.2-2.7c-0.6-0.9-1.3-1.7-1.9-2.6c-0.6-0.9-1.1-1.9-1.5-3c-0.4-1-0.7-2-1.1-3
			c-0.1-0.2-0.2-0.4-0.3-0.6c-0.1-0.2-0.3-0.4-0.3-0.6c0-0.9-0.5-1.6-0.6-2.5c-0.2-1.7-0.5-3.5-0.6-5.2c-0.1-2.6,0-5.2,0.6-7.7
			c0.2-0.7,0.4-1.3,0.7-1.9c0.2-0.5,0.1-1.1,0.6-1.5c0.4-1.7,1.4-3,2.1-4.5c0.4-1,0.9-2,1.4-3c0.1-0.2,0.3-0.5,0.5-0.7
			C92.4,67.8,93.3,67.4,94.3,67.3z M100.2,108.4c0-0.1,0.1-0.1,0.1-0.2c-0.8-0.7-0.8-0.7-1.4-0.7C99.4,107.8,99.8,108.1,100.2,108.4
			z"/>
		<path id="XMLID_122_" class="st1" d="M198.6,52.4c0.8-0.3,1.6-0.6,2.4-0.7c1-0.1,1.7-0.5,2.3-1.2c0.7-0.7,1.3-1.5,1.9-2.3
			c0.4-0.4,0.7-0.9,1-1.4c0.8-1.3,0.9-2.8,0.8-4.3c0-0.3-0.2-0.6-0.3-0.9c-0.2-0.4-0.4-0.9-0.6-1.3c-0.2-0.4-0.5-0.8-0.8-1.3
			c-0.3,0-0.5,0.1-0.8,0.1c-0.5-0.8-1.1-1.6-1.6-2.4c-0.5-0.7-0.3-1.5,0.5-1.8c0.9-0.4,1.9-1,3-0.5c0.3,0.1,0.6,0.3,0.9,0.5
			c1.3,1.3,2.4,2.8,2.8,4.6c0.4,1.4,0.7,2.9,0.8,4.4c0.1,0.8-0.2,1.6-0.4,2.4c-0.4,1.1-0.9,2.1-1.6,3c-0.7,1-1.5,1.8-2.5,2.5
			c-0.5,0.3-1,0.6-1.4,0.9c-0.4,0.3-1.1,0.5-1,1.3c-0.8,0.4-0.9,1.1-0.9,2c0,0.2-0.3,0.5-0.5,0.6c-0.3,0.2-0.6,0.3-1,0.4
			c-0.3,0.1-0.8,0.2-1,0.1c-0.4-0.4-0.9-0.7-0.8-1.4c0.1-0.5,0-0.9-0.4-1.2C198.9,53.9,198.7,53.3,198.6,52.4z"/>
		<path id="XMLID_120_" class="st1" d="M193.5,65c-0.8-0.8-2.1-1-1.7-2.6c0.6-0.5,1.5-0.7,2.4-1c0.3-0.1,0.6-0.1,0.9-0.3
			c1-0.8,2.3-1.2,3.5-1.6c1-0.3,2-0.3,3.1,0.1c1.2,0.5,2.5,0.7,3.7,1.1c0.2,0.1,0.5,0.2,0.5,0.3c0,0.2-0.1,0.5-0.2,0.6
			c-0.5,0.3-0.9,0.7-1.5,0.9c-0.6,0.3-1.3,0.4-2,0.5c-2.2,0.5-4.4,1-6.6,1.5C194.8,64.8,194.1,64.9,193.5,65z"/>
	</g>
	<g id="XMLID_107_">
		<path id="XMLID_139_" class="st1" d="M81.9,201.6c0.3-1,1.2-1.2,2-1.5c1-0.4,2.1-0.6,3.2-0.8c1.5-0.2,2.9-0.2,4.4-0.3
			c3.1-0.3,6.2,0.1,9.3,0.1c1.2,0,2.4,0.2,3.6,0.3c0.4,0,0.8,0,1.2-0.1c-1.4-0.3-2.7-0.6-4.1-0.9c-0.8-0.2-1.7-0.4-2.5-0.2
			c-0.9,0.1-1.8-0.1-2.5-0.9c0.1-0.7,0.1-1.4,0.2-2.1c0-0.2,0.4-0.5,0.6-0.6c2.2-1,4.4-1.5,6.9-1.2c3.2,0.4,6.2,1.2,9.3,1.9
			c1.2,0.3,2.4,0.5,3.5,0.9c1.1,0.4,2.2,0.5,3.3,0.8c0.9,0.3,1.8,0.7,2.7,1c0.3,0.1,0.6,0.1,0.9,0.1c0.2,0,0.4,0,0.6,0.1
			c0.6,0.3,1.2,0.6,1.8,0.9c0,0,0.1,0.1,0.1,0.1c1.3,0,2.1,0.9,3.2,1.3c0.7,0.2,1.5,0.3,2.1,0.8c0.4,0.4,1.1,0.1,1.5,0.6
			c0.2,0.2,0.5,0.3,0.8,0.5c0.5,0.4,1,0.6,1.7,0.7c0.6,0,1.1,0.5,1.7,0.7c0.8,0.4,1.5,0.9,2.5,1.2c0.7,0.2,1.3,0.6,2.1,0.6
			c0.1,0,0.3,0.1,0.4,0.2c0.6,0.6,1.3,0.8,2.1,1c0.2,0.1,0.4,0.2,0.6,0.3c0.2,0.2,0.4,0.4,0.8,0.4c0.2,0,0.5,0.1,0.6,0.3
			c0.3,0.5,0.9,0.6,1.4,0.6c0.4,0,0.7,0,0.9,0.5c0.1,0.2,0.3,0.3,0.5,0.4c0.6,0.3,1.3,0.6,1.9,0.8c0.2,0.1,0.4,0.2,0.7,0.4
			c0.3,0.2,0.7,0.3,1,0.4c0.2,0.1,0.5,0.2,0.6,0.4c0.4,0.4,0.9,0.6,1.5,0.6c0.3,0,0.7,0.3,0.9,0.5c0.4,0.6,1,0.8,1.6,0.9
			c0.4,0,0.7,0.2,1,0.6c0.4,0.6,1.2,0.8,1.9,0.9c2.3,0.4,4.7,0.7,7,1.1c1,0.2,2.1,0.2,3,0.7c0.1,0.1,0.3,0.1,0.4,0.1
			c0.4,0.1,0.7,0.1,1.1,0.2c0.2,0.1,0.5,0.2,0.7,0.2c0.8-0.1,1.3,0.4,1.5,1c0.2,0.7,0.8,0.7,1.3,0.9c0.3,0.2,0.7,0.2,1,0.5
			c0.5,0.5,1.1,0.6,1.8,0.6c2.2,0.2,4.4,0.4,6.6,0.6c0.6,0.1,1.3,0.2,1.9,0.4c0.8,0.3,1.6,0.3,2.3,0.3c2.7,0.2,5.3,0.3,8,0.5
			c1.3,0.1,2.6,0.3,4,0.5c0.9,0.1,1.5,0.5,2.1,1.3c0.5,0.7,0.9,1.3,1,2.1c0.1,0.5,0.8,0.7,1.3,0.9c0.1,0,0.2,0,0.3,0
			c0.8-0.1,1.6,0,2.4,0.5c0.2,0.1,0.6,0,0.8-0.1c1.5-0.3,3-0.5,4.5-0.5c0.4,0,0.8-0.1,0.9,0.4c0,0,0,0.1,0.1,0.1
			c1.5,0.3,1.2,1.5,1.3,2.5c0,0.1,0,0.3,0,0.4c0,0,0,0.1,0,0.1c-0.5,0.2-1,0.5-1.7,0.9c0.8,0.1,1.3,0.2,1.9,0.3
			c0.1,0,0.3-0.2,0.5-0.3c0.9-0.6,1.7-1.2,2.6-1.8c-0.6-0.1-1-0.5-1.3-1c-0.2-0.4-0.3-0.9-0.5-1.3c-0.2-0.4-0.6-0.8-0.7-1.2
			c-0.2-0.7-0.1-0.9,0.6-1.3c1.4-0.7,2.7-1.4,4.1-2c2.8-1.2,5.5-2.3,8.3-3.4c2.7-1,5.5-1.8,8.2-2.8c1.4-0.5,2.8-1,4.2-1.5
			c1.6-0.5,3.3-1,4.8-1.9c1.7-0.9,3.5-1.8,5.3-2.6c2.1-0.9,4.3-1.7,6.6-1.8c0.8,0,1.5,0,2.3,0.1c0.5,0.1,1,0.4,1,1.1
			c0,0.2,0.1,0.4,0.2,0.6c0.1,0.6,0.4,0.9,1,0.9c0.4,0,0.7,0.3,1.1,0.4c-0.1,0.2-0.1,0.3-0.1,0.4c0.2,1.3-0.7,2.1-1.7,2.7
			c-2,1.2-4,2.3-6.1,3.3c-3.2,1.6-6.5,3-9.7,4.6c-0.7,0.3-1.4,0.8-2,1.3c2.1-0.5,4.1-1.1,6-2c1.5-0.7,3.1-1.1,4.6-1.2
			c0.3,0.4,0.6,0.8,0.9,1.2c0.1,0.2,0.2,0.5,0.3,0.7c0.1,0.3,0.2,0.6,0.4,0.8c0.4,0.3,0.4,0.6,0.3,1.1c-0.3,0.8-0.3,1.7-0.2,2.5
			c0.1,0.5,0,1-0.1,1.5c-0.1,0.8-0.1,1.6,0.1,2.5c0.1,0.5,0,1.1-0.1,1.6c-0.1,0.4-0.2,0.8,0.1,1.2c0.5,0.7,0.4,1.6,0.2,2.3
			c-0.1,0.5-0.1,0.8,0,1.3c0.2,1,0.4,2,0.5,3c0.1,0.7-0.5,1.9-1.2,2.2c-1.3,0.5-2.7,1-4,1.5c-0.6,0.2-1.3,0.4-1.9,0.7
			c-1.6,0.8-3.2,1.3-5,1.6c-0.5,0.1-1,0.2-1.5,0.2c-0.2,0-0.4,0.1-0.5,0c-0.7-0.5-1.3-0.1-1.9,0.3c-2.1,1.3-4.5,1.9-6.9,2.5
			c-1.1,0.2-2.1,0.5-3.2,1.1c-1.7,0.9-3.6,1.3-5.5,1.8c-1.6,0.4-3.2,0.7-4.8,1.2c-0.5,0.2-1,0.6-1.5,0.9c0,0.1,0.1,0.1,0.1,0.2
			c0.4-0.1,0.9-0.1,1.4-0.2c0.6,0.9,0.6,1.9,1,3c-0.8,0.7-1.6,1.3-2.5,2c0.3,0.2,0.5,0.3,1,0.6c-0.6,0.5-1.1,0.9-1.6,1.4
			c-0.4,0.4-0.4,0.8,0,1.2c0.4,0.3,0.4,0.7,0.4,1.2c0,0.2-0.1,0.3-0.1,0.5c0.2,0.9-0.3,1.4-0.9,1.8c-0.4,0.3-0.8,0.7-0.9,1.3
			c-0.1,0.5-0.5,1-0.9,1.4c-1.3,1-2.6,2.1-4,3c-1.6,1-3.2,2-4.8,2.9c-1.3,0.8-2.7,1.3-4.2,1.6c-0.3,0.1-0.6,0.2-0.9,0.3
			c-0.3,0-0.5,0-0.8,0c-0.1-0.4-0.2-0.9-0.4-1.3c-0.6-1.2-0.6-1.3,0.4-2.2c0.3-0.3,0.7-0.5,1-0.8c0.2-0.2,0.3-0.3,0.5-0.6
			c-0.7,0-1.2,0-1.7,0c-1.5,0.1-2.4-0.9-3.3-1.8c-0.5-0.4-0.9-0.8-1.5-0.9c-0.3-0.1-0.7-0.1-1-0.2c-0.1-0.3-0.1-0.5-0.2-0.6
			c-0.5-0.1-0.9-0.3-1.4-0.3c-0.4,0-0.6-0.2-0.6-0.6c-0.1-0.4-0.1-0.8-0.2-1.2c-0.3-1.3,0.1-2.3,1.2-3c0.9-0.5,1.9-0.9,2.8-1.4
			c0.6-0.3,1.2-0.5,1.7-1.2c-1.8,0.1-3.4,0.1-5,0.2c-1.2,0.1-2.4,0.2-3.6,0.3c-0.3,0-0.7-0.1-1-0.1c0.1-0.6-0.1-0.9-0.4-1.3
			c-0.4-0.6-1.1-1.1-0.7-2.1c-0.3,0-0.5,0.1-0.8,0.1c0.2-0.4,0.4-0.7,0.5-1c-1.8,0-3.6,0-5.4,0c-0.7,0-1.2-0.1-1.8-0.4
			c-1.4-0.7-1.1-0.6-1.1-2c0-1.3,0.1-1.3,1.2-2c0.9-0.5,1.8-1,2.7-1.6c0.4-0.2,0.7-0.4,1.1-0.7c-0.3-0.1-0.4-0.2-0.5-0.3
			c-1-0.3-2-0.3-3-0.1c-2.6,0.4-5.3,0.8-7.9,1.2c-0.6,0.1-1.1,0.2-1.7,0.2c-0.7,0.1-0.9,0-1-0.8c-0.1-0.6-0.2-1.2-0.3-1.8
			c1.6-0.8,3.2-1.5,5-1.7c1.8-0.2,3.5-0.4,5.3-0.7c1.9-0.3,3.7-0.6,5.6-0.8c1.1-0.1,2.3-0.1,3.4-0.1c0.3,0,0.7,0.1,0.9,0.3
			c0.2,0.4,0.5,0.4,0.8,0.6c0.5,0.2,0.9,0.5,0.8,1.1c0,0.2,0.1,0.5,0.2,0.7c0.3,0.8,0,2-0.7,2.4c-0.8,0.5-1.7,0.9-2.5,1.4
			c-0.2,0.1-0.4,0.3-0.7,0.6c2.9,0.1,5.6,0,8.3-0.4c1.1-0.2,2.3-0.3,3.4-0.5c0.3,0,0.7,0,0.8,0.2c0.3,0.4,0.6,0.9,0.7,1.4
			c0.2,0.7,0,0.9-0.6,1.3c-0.2,0.1-0.3,0.2-0.5,0.2c-1.2,0.4-2.3,0.7-3.5,1c-0.6,0.2-0.9,0.5-1.1,1.1c0.3,0,0.5,0.1,0.6,0.1
			c2.8-0.5,5.7-0.5,8.6-0.5c0.4,0,0.7,0.1,1,0.4c0.3,0.3,0.6,0.4,0.9,0.1c0.3-0.3,0.6-0.2,0.9,0c0.2,0.1,0.4,0.4,0.7,0.6
			c0.7-0.5,1.5-1.1,2.2-1.6c-0.2-0.2-0.4-0.2-0.6-0.2c-0.9,0.1-1.8,0.2-2.7,0.4c-1.4,0.2-2.1-0.7-2-2.3c0.1-1.2,0.9-2,1.9-2.6
			c0.8-0.5,1.7-0.9,2.2-1.8c0.1-0.2,0.3-0.4,0.5-0.5c1.2-0.6,2.1-1.5,3.4-1.9c1.7-0.6,3.3-1.2,5-1.9c0.5-0.2,1-0.4,1.5-0.6
			c0-0.1,0-0.1,0-0.2c-0.8-0.3-1.5-0.6-2.3-0.8c-1.7-0.3-3.3-0.6-5-0.8c-2.2-0.3-4.5-0.6-6.6-0.9c-0.4,0.3-0.6,0.6-0.9,0.7
			c-0.7,0.3-1.4,0.7-2.1,0.9c-1.9,0.7-3.8,1.3-5.8,1.2c-1.3,0-2.6,0.1-3.9,0.3c-0.9,0.1-1.8,0.2-2.7-0.4c-0.2-0.2-0.6-0.2-0.9-0.3
			c-0.5-0.2-1-0.3-1.5-0.5c-1-0.3-2-0.7-3.1-1c-0.6-0.2-1.2-0.2-1.8,0c-0.7,0.2-1.5,0.3-2.2,0.4c-2.8,0.3-5.5,0-8.2-0.5
			c-1.2-0.2-2.6-0.3-3.5-1.3c-0.1-0.1-0.5-0.2-0.5-0.1c-0.5,0.6-1,0.2-1.5,0.1c-0.3-0.1-0.6,0-0.9,0.1c-1.4,0.6-2.9,0.9-4.4,1.2
			c-0.2,0-0.6,0-0.7-0.1c-0.4-0.4-0.7-0.8-1-1.3c-0.5-0.9-0.9-1.8-2-2.3c-0.5-0.2-0.9-0.4-1.4-0.3c-0.3,0.1-0.7,0-1,0.5
			c-0.2,0.4-0.7,0.3-1.1-0.1c-0.2-0.1-0.6-0.2-0.8-0.1c-0.2,0.1-0.2,0.5-0.2,0.8c0.1,0.8,0.2,1.6-0.2,2.3c-0.1,0.2-0.1,0.4-0.1,0.7
			c0.1,0.9-0.1,1.2-0.9,1.5c-0.9,0.4-1.8,0.9-2.7,1.2c-1,0.4-2.1,0.6-3.1,0.9c-0.2,0.1-0.5,0.1-0.6,0c-1-0.7-2-1.4-2.1-2.9
			c0-0.2,0-0.3-0.1-0.5c-0.3-0.5-0.4-0.9-0.3-1.5c0-0.2,0-0.5-0.1-0.7c-0.3-0.5-0.7-1-1.1-1.4c-1,0.6-1.3,0.6-2.4,0.3
			c-0.3-0.1-0.6-0.1-0.8,0c-0.6,0.2-1.2,0.5-1.8,0.6c-1,0.2-2,0.5-2.9,0.5c-0.5-0.5-0.8-0.9-1.2-1.3c-0.4,0.2-0.8,0.4-0.9,0.6
			c-0.5,0.9-1.4,1.2-2.2,1.5c-1.5,0.7-3.1,1.2-4.8,1.5c-1.2,0.2-2.3,0.1-3.4-0.3c-0.3-0.1-0.6-0.2-0.8-0.1c-0.5,0.2-0.7,0-0.8-0.5
			c-0.1-0.2-0.1-0.4-0.2-0.7c-0.7,0.2-1.3,0.5-1.9,0.6c-0.7,0.1-1.3,0.3-1.6,1.1c-0.4-0.4-0.5-0.9-1.2-0.7c0,0.3-0.1,0.6-0.1,0.9
			c-0.1,0.6-0.3,1.2-0.9,1.6c-0.5,0.3-0.9,0.5-1.4,0.7c-1.6,0.7-3.2,1.3-4.9,1.5c-0.8,0.1-1.3-0.1-1.7-0.8c-0.2-0.4-0.5-0.9-0.8-1.2
			c-0.3-0.3-0.8-0.6-1.3-0.4c-0.5,0.2-1,0.4-1.4,0.6c-0.2-0.5-0.3-0.9-0.5-1.3c-1,0.2-1.8,0.5-2.7,0.7c-1.3,0.2-2.7,0.3-3.9,0.6
			c-0.9,0.2-1.4-0.1-1.8-0.7c-0.3-0.4-0.5-0.9-0.5-1.4c-0.2-1.3-0.3-2.7-0.4-4c0-0.4-0.1-0.8-0.2-1.2c-0.2-0.4-0.2-0.9,0-1.3
			c0.4-1.1,0.2-2.4,0.6-3.5c0.1-0.2,0-0.4-0.1-0.6c-0.2-0.5-0.2-1,0-1.6c0.1-0.2-0.1-0.6-0.1-0.9c0-0.4-0.1-0.7-0.1-1.1
			c0-0.7,0.2-1.3,0-2c-0.1-0.7-0.1-1.4,0-2.2c0.1-0.5,0.3-1,0.2-1.5c-0.3-1.7-0.2-3.4-0.2-5c0-0.6,0.2-1,0.7-1.2
			c0.5-0.2,0.9-0.5,1.3-0.8c0.9-0.6,1.7-1.2,2.6-1.7c0.7-0.4,1.1-0.8,1-1.6c-0.1-0.7,0.3-1.2,0.9-1.6c0.4-0.2,0.8-0.7,1.4-1.1
			c-2.1-0.1-3.9-0.2-5.8-0.3c-2.1-0.1-4.2-0.2-6.3-0.2c-1.8-0.1-3.5-0.2-5.3-0.2c-1.5-0.1-1.8-0.3-1.9-1.8c0-0.1,0-0.2,0-0.3
			c0.9-0.5,1.9-1,3-1.6c-0.8-0.1-1.8,0.1-2.3-0.8c0.3-0.2,0.6-0.3,0.7-0.4c0.2-0.5,0.3-0.8,0.5-1.2c0,0-0.1-0.1-0.1-0.1
			c-0.5,0-1.1,0.2-1.5,0c-0.4-0.1-0.7-0.6-1.1-0.9C81.9,202.2,81.9,201.9,81.9,201.6z M236,229.5c-1.9,1.3-3.8,2.5-5.7,3.7
			c-0.9,0.6-1.9,1.4-2.7,2.1c-0.8,0.6-1.4,1.3-2.2,2c-0.5,0.5-1.1,0.9-1.8,1.4c0.3,0.2,0.6,0.6,0.8,0.6c0.9,0,1.5,0.5,2.1,0.8
			c0.3-0.5,0.6-1.1,1-1.5c0.7-0.7,1.4-1.3,2.2-1.9c1.4-1.1,2.9-2.3,4.4-3.4c0.4-0.3,0.6-0.6,0.5-1.1c0-0.2,0.1-0.6,0.2-0.8
			c0.4-0.6,0.8-1.1,1.4-1.6c1.6-1.4,3.1-2.9,5-4c0.7-0.4,1.4-0.8,2.1-1.2c-0.1,0-0.2-0.1-0.2,0c-1.7,0.8-3.5,1.3-5.3,1.7
			c-0.8,0.2-1.7,0.3-2.5,0.9c0.4,0.4,0.8,0.7,1.2,1C235.6,228.8,235.6,228.8,236,229.5z M152.1,218.9c0.7,0.8,1.4,1.6,2.1,2.3
			c0.1-0.1,0.2-0.1,0.3-0.2c0.2-0.3,0.4-0.5,0.9-0.4c0.4,0.2,0.4,0.5,0.4,0.9c0,0.4,0.1,0.8,0.2,1.2c1.5-0.4,2.9-0.7,4.4-1.1
			c-0.1-0.1-0.1-0.2-0.2-0.2c-1-0.1-1.8-0.8-2.4-1.5c-0.1-0.1-0.2-0.1-0.3-0.2C155.6,219.3,153.9,219.1,152.1,218.9z M127.9,214.4
			c-1-0.1-1.9-0.2-2.9-0.4c0.9,1.3,2.1,1.5,3.5,1.4C128.3,215.1,128.1,214.8,127.9,214.4z M111.8,211.7c0.5-0.5,1-0.9,1.7-1.5
			c-0.8,0-1.4,0-2,0C111.5,210.8,111.4,211.3,111.8,211.7z M113.9,213.9c0.8-0.2,1.4-0.3,2.1-0.5c-0.4-0.1-0.7-0.2-1.1-0.4
			c-0.3-0.2-0.5-0.7-1.2-0.4C113.8,213,113.9,213.4,113.9,213.9z M237.6,240.6c1.5,0.1,1.5,0,1.5-1
			C238.6,240,238.2,240.3,237.6,240.6z"/>
		<path id="XMLID_133_" class="st1" d="M206.1,144.1c-0.8-0.2-1.6-0.3-2.3-0.4c-0.2,0-0.4,0.1-0.7,0.1c-0.1,0.8-0.2,1.5-0.2,2.3
			c0,0.5-0.2,0.7-0.5,0.9c-0.3,0.2-0.7,0.4-1.1,0.6c-0.4,0.3-0.9,0.7-1.2,1.1c-0.7,0.9-1.6,1.6-2.6,2.1c-1.9,1.1-3.9,1.8-6,2.2
			c-0.4,0.1-0.9,0.3-1.1-0.4c0-0.1-0.4-0.1-0.6-0.1c-0.3,0-0.6,0.2-0.9,0.1c-0.3,0-0.5-0.1-0.8-0.2c-0.1-0.1-0.3-0.3-0.4-0.3
			c-1.2,0-1.2-1-1.6-1.7c-0.4-0.7-0.6-1.4-1-2c-0.6-1-0.8-2-0.5-3.1c0.1-0.5,0.2-1,0.2-1.5c0-0.4,0.2-0.6,0.6-0.8
			c1.7-0.9,3.4-1.6,5.2-2.1c0.6-0.2,1.3-0.3,2-0.5c0.2,0.3,0.3,0.5,0.5,0.8c0.2,0.4,0.5,0.5,0.9,0.3c1.4-0.7,2.8-1.2,4.3-1.5
			c0.3-0.1,0.7-0.2,0.9-0.2c0.3-0.3,0.5-0.6,0.7-0.9c0.2-0.4,0.5-0.8,0.6-1.2c0.2-0.6,0.5-1,1-1.4c0.6-0.4,1.2-1,1.8-1.4
			c0.8-0.5,0.9-1.2,0.8-2c-0.1-1.1-0.2-2.2,0.2-3.3c0.2-0.6-0.1-1.4-0.3-2.1c-0.2-1.2-0.1-2.3,0.6-3.3c0.1-0.1,0.2-0.2,0.3-0.3
			c1.3-0.7,2.7-1.2,4.2-1.3c0.8-0.1,1.5,0,1.8,0.8c1.1-0.9,2.3-1.6,3.3-2.6c0.5-0.4,0.8-1.2,1-1.8c0.3-1,0.6-2-0.1-3
			c-1.7,0.2-3.3,0.4-5-0.1c-0.7-0.2-1.4-0.2-2.1-0.3c-0.5-0.1-0.9-0.1-1.4-0.2c-0.4-0.1-0.7-0.3-0.9-0.7c-0.5-0.7-1.1-1.4-1.8-2.2
			c-0.4,0-1,0.1-1.7,0.2c0.7-1.4,2.4-1.7,3.4-3.1c-4.8,1.1-9.3,2.4-14.1,2.2c-0.7-1.7-2.3-1.6-3.7-1.7c-1-0.1-2,0.1-3-0.2
			c-1.1-0.4-2.2-0.8-3.3-1.2c-0.1,0-0.1-0.1-0.2-0.1c-0.8,0-1.2-0.4-1.5-1.1c0-0.1-0.2-0.1-0.3-0.2c-0.3,0.3-0.4,0.8-1,0.8
			c-0.2,0-0.5,0.6-0.5,0.9c0.1,0.6-0.1,0.9-0.6,1.1c0.2,0.8,0.4,1.6,0.5,2.3c0,0.1,0.1,0.2,0.2,0.3c0.3,0.2,0.7,0.4,0.5,0.8
			c-0.2,0.5-0.4,0.9-0.7,1.3c-0.2,0.2-0.5,0.3-0.8,0.5c-1.8,0.8-3.7,1.4-5.6,1.8c-0.7,0.1-1.3-0.1-1.8-0.5c-0.8-0.5-1.4-1.2-1.6-2.2
			c-0.1-0.7-0.5-1.4-0.6-2.1c-0.1-0.6-0.2-1.2-0.6-1.7c-0.3-0.4-0.4-0.9-0.2-1.5c0.2-0.3,0.2-0.9,0-1.2c-0.5-0.7-0.3-1.4-0.1-2
			c0.3-1,0.1-1.9,0-2.8c0-0.8,0-1.6,0.2-2.4c0.3-1.1,0.4-2.3,0.5-3.4c0.2-1.6,0.6-3,1.8-4.1c2.2-2.1,4.6-3.8,7.2-5.3
			c2.5-1.4,5.1-2.5,7.7-3.4c1.8-0.6,3.8-1,5.7-1c1.3,0.1,2.4-0.4,3.6-0.6c0.7-0.2,1.3-0.1,1.8,0.4c0.3,0.3,0.5,0.6,0.4,1
			c0,0.3,0.1,0.5,0.2,0.9c0.9-0.7,1.6-1.6,2.9-1.6c0.1,0.7-0.4,1.1-0.7,1.7c0.3-0.1,0.5-0.1,0.7-0.2c2.4-0.9,4.8-1.7,7.4-1.8
			c0.6,0,1.1-0.1,1.7,0c2.1,0.1,4.3,0.3,6.4,0.5c1.1,0.1,2.2,0.4,3,1.3c0.2,0.2,0.6,0.3,0.8,0.4c0.7,0.2,1.5,0.4,1.8,1.2
			c0.1,0.1,0.2,0.2,0.4,0.2c1.3,0.2,1.9,1.2,2.5,2.1c1,1.4,1.6,3,2.3,4.5c0.2,0.4,0.3,0.8,0.1,1.3c-0.1,0.3,0,0.7,0.1,0.9
			c0.3,0.3,0.4,0.7,0.4,1.1c0.1,0.8,0.3,1.6,0.5,2.4c0.1,0.5,0.4,1,0.5,1.5c0.1,0.2,0.2,0.5,0.3,0.7c0.2,0.6,0.3,1.2,0.6,1.7
			c0.4,0.7,0.6,1.4,0.5,2.2c0,0.6,0.3,1.2,0.4,1.8c0.1,0.4,0.1,0.7,0.1,1.1c0,0.3-0.1,0.7-0.1,1c0,0.8,0.1,1.5,0.2,2.3
			c0,0.2,0.1,0.5,0.3,0.7c0.6,0.4,0.6,1,0.7,1.7c0.1,0.5,0.3,1,0.4,1.6c0.1,0.7,0.1,1.4,0.2,2.1c0,0.1,0,0.3,0.1,0.4
			c0.3,0.6,0.2,1.2-0.1,1.7c-0.2,0.3-0.2,0.6-0.3,0.8c0.6,0.7,1.1,1.4,1.2,2.3c0.1,0.6,0.3,1.2,0.7,1.6c0.5,0.5,0.7,1.1,0.6,1.8
			c0,0.4,0.1,0.6,0.3,0.8c0.4,0.5,0.8,1.1,1.2,1.6c0.9-0.5,1.4,0.5,2.1,0.6c0.3,1.1,1.3,1.6,1.9,2.4c0.1,0.2,0.2,0.5,0.2,0.7
			c0.1,0.2,0,0.5,0.2,0.6c0.9,1.1,1,2.6,1.6,3.8c0.1,0.1,0.1,0.3,0.1,0.5c-0.1,1.3,0,2.6-0.4,3.8c-0.1,0.2-0.2,0.4-0.2,0.6
			c-0.1,0.3-0.3,0.6-0.4,1c-0.1,0.8-0.4,1.4-1.2,1.7c-0.1,0.1-0.2,0.2-0.3,0.3c0.7,0.8,1.9,0.7,2.4,1.7c-0.1,0.1-0.1,0.2-0.1,0.3
			c-0.4,0.7-0.3,0.9,0.5,1.1c0.8,0.2,0.8,0.2,2,1.4c0.6-0.2,1.3-0.3,1.5,0.6c0.1,0.2,0.4,0.3,0.6,0.4c0.7,0.2,1.2,0.6,1.3,1.4
			c0,0.4,0.4,0.8,0.4,1.2c0,0.7-0.1,1.3-0.2,2c0,0.2-0.1,0.4-0.1,0.6c0,0.5,0.1,0.6,0.6,0.5c1.1-0.2,2.2-0.4,3.3-0.7
			c2.9-0.8,5.8-0.8,8.7-0.2c0.4,0.1,2.9,1.6,3.1,2c0.1,0.2,0.2,0.4,0.3,0.6c0.4,0.6,0.5,1.3,1.1,1.7c0.3,0.2,0.3,0.6,0,0.9
			c-0.3,0.3-0.6,0.6-0.9,0.8c-0.3,0.3-0.4,0.6-0.2,0.9c0.3,0.4,0.2,0.7,0.1,1.1c-0.2,0.6-0.1,1.1,0.2,1.7c0.4,0.5,0.5,1.2,0.8,1.8
			c0.1,0.3,0.1,0.7,0.3,1c0.6,0.8,0.7,1.7,0.9,2.7c0.1,0.7,0,1.4,0,2.2c0,0.3,0,0.6,0.1,0.8c0.5,1.3,0.3,2.5,0.1,3.8
			c-0.1,0.6-0.2,1.2-0.3,1.9c-0.2,1.6-1,2.8-2.5,3.4c-0.9,0.3-1.3,0.7-1.2,1.6c0,0.1-0.1,0.2-0.1,0.3c-1.7,0.6-2.8,2-2.5,3.9
			c0,0.1,0.1,0.2,0,0.3c-0.1,0.9-0.2,1.7-0.4,2.6c-0.1,0.9-0.3,1.8-0.2,2.7c0,0.9,0.2,1.8-0.3,2.6c-0.1,0.3-0.1,0.7,0,1
			c0.2,0.7,0.1,1.5-0.1,2.2c-0.4,1.1-0.5,2.2-0.1,3.2c0.2,0.5,0,1-0.2,1.5c-0.2,0.4-0.2,0.6-0.1,1c0.1,0.5,0,1,0,1.6
			c-2.1,1.2-4.4,2.1-6.7,2.4c-0.5-0.4-0.8-0.8-1.2-0.9c-0.6-0.1-0.8-0.5-0.9-1.1c-0.1-0.5-0.1-1-0.2-1.4c-0.2-0.6-0.3-1.2,0-1.8
			c0.1-0.2,0-0.5-0.1-0.8c-1,0.4-1.8,0.7-2.7,1.1c-1.5,0.6-3,1-4.5,1c-0.7,0-1.4-0.2-2.1-0.2c-0.7,0-1.4-0.1-1.9-0.6
			c-0.1-0.1-0.3-0.1-0.4-0.1c-3.2-0.3-6.5-0.4-9.7-0.1c-1,0.1-2.1,0.3-3.1-0.1c-0.4-0.2-0.7-0.3-1.1-0.5c0.2-1.3,1.1-2.1,2-2.7
			c2.5-1.6,5.3-2.6,8.3-2.9c1.5-0.2,3-0.3,4.5-0.4c0.4,0,0.6-0.2,0.8-0.6c0.6,0.2,1.2,0.4,1.8-0.1c0.2-0.1,0.4-0.3,0.4-0.5
			c0-0.7,0.1-1.5-0.1-2.2c-0.1-0.6,0-0.9,0.5-1.2c0.4-0.2,0.9-0.4,0.7-1.1c1.3-0.5,2.6-1,4-1.4c0.7-0.2,1.4-0.3,2.1-0.4
			c0.5-0.1,0.7-0.2,0.7-0.7c0.1-1.3,0.2-2.6,0.3-3.9c0-0.5,0.2-1.1,0.3-1.6c0.1-0.7,0-0.9-0.6-1.2c-0.5-0.2-0.9-0.4-1.4-0.6
			c-0.1,0-0.2-0.1-0.3-0.1c-0.3-1-1.1-0.5-1.7-0.5c-0.2,0-0.4,0.1-0.7,0.1c-0.3,0.1-0.5-0.1-0.6-0.4c-0.1-0.2-0.1-0.4-0.2-0.6
			c-0.2-0.5-0.4-1-0.7-1.4c-0.3-0.4-0.5-0.9-0.5-1.4c0-0.7-0.1-1.3-0.2-2c0-0.1-0.1-0.3-0.1-0.4c0.1-1.4-0.2-2.7-0.5-4
			c-0.1-0.3-0.1-0.6,0-0.8c0.4-1,0.1-1.9,0-3c-0.1,0-0.2-0.1-0.3-0.1c-1.6-0.1-2.4-0.8-2.7-2.4c-0.1-0.5-0.5-1-0.6-1.5
			c-0.1-0.6,0-1.2-0.3-1.7c-0.7-1.1-0.8-2.3-1.1-3.5c-0.3-1.4-1.1-2.5-2.4-3.1c-0.8,0.7-1.5,0.7-2.5,0.1c-0.6-0.4-1.1-0.9-1.8-1.4
			c-0.7,0.3-1.6,0.6-2.5,0.9c-0.7,0.2-1.4,0.3-2,0.5c-0.6,0.2-1.1,0.1-1.5-0.5c-0.2-0.2-0.4-0.4-0.5-0.6c-1.3,0.4-2.5,0.7-3.7,1.1
			c-0.3,0.1-0.6,0.1-0.9,0.2c-0.5,0.2-0.9,0.3-1.3-0.3c-0.2-0.2-0.6-0.2-0.8-0.3c-0.5-0.4-0.7-1.1-0.6-1.7c0.1-0.5,0-0.8-0.3-1.1
			c-0.1-0.1,0-0.2-0.1-0.4c-0.7,0.1-1.5,0.2-2.1,0.4c-0.9,0.3-1.5-0.1-2.1-0.6c-0.9-0.6-1.5-1.5-1.9-2.5c0-0.1-0.1-0.2-0.2-0.3
			c-0.6-0.7-1.2-1.4-1.7-2.1c-0.1-0.2-0.2-0.5-0.2-0.7C206.9,145.3,206.5,144.6,206.1,144.1z M192.4,92.4c2.3-0.8,4.6-0.7,6.6-2.1
			c-0.9,0.1-1.7,0.2-2.6,0.4c0.2-0.2,0.2-0.3,0.2-0.3c0.3-0.1,0.6-0.2,0.9-0.4c-0.3-2.3-0.3-2.3-1-2.7c-0.3,0.3-0.5,0.5-0.8,0.7
			c-0.7,0.6-1.6,1.1-1.4,2.3C192.9,90.5,192.9,90.5,192.4,92.4z M197.7,100.7c0-0.4-0.3-0.6-0.6-0.4c-0.1,0-0.1,0.2-0.1,0.2
			C197.1,100.9,197.4,100.9,197.7,100.7z"/>
		<path id="XMLID_130_" class="st1" d="M117.1,154.4c0.3-0.1,0.6-0.3,1-0.5c0-0.7,0-1.3,0-2c0-0.2-0.1-0.4-0.2-0.5
			c-0.4-0.7-0.3-1,0.3-1.4c0.5-0.4,1.1-0.6,1.7-0.9c3-1.6,6.2-2.4,9.6-2.6c1.3-0.1,2.7,0.2,4,0.3c0.2,0,0.3,0.2,0.5,0.2
			c0.3,0.1,0.6,0.3,1,0.3c0.8,0,1.4,0.3,2,0.8c0.4,0.3,0.8,0.5,1.3,0.5c1.2,0.1,2.4,0.6,3.5,1.1c0.8,0.3,1.6,0.6,2.4,1
			c0.2,0.1,0.4,0.1,0.6,0.1c0.8,0.1,1.7,0.1,2.5,0.2c2,0.2,4,0.5,6.1,0.8c2.9,0.4,5.8,0.9,8.7,1.4c0.2,0,0.4,0.1,0.7,0.1
			c1.1,0.4,2.2,0.4,3.3,0c0.8-0.2,1.2,0,1.6,0.7c0.3,0.6,0.5,1.3,0.7,2c0.2,0.6,0.3,1.2,0.5,1.8c0.1,0.5,0.4,0.9,0.6,1.3
			c0.4,0.9,1.1,1.9,0.6,3c-0.1,0.1-0.1,0.4,0,0.5c0.4,0.5,0.4,1.3,0.9,1.8c0.3,0.3,0.3,0.8,0.5,1.2c0.4,0.8,0.7,1.5,0.7,2.4
			c0,0.3,0.2,0.7,0.4,1c0.5,0.6,0.6,1.3,0.6,2.1c0,0.5,0.2,1,0.5,1.4c0.2,0.3,0.3,0.7,0.2,1.1c-0.1,0.4,0,0.7,0.2,1.1
			c0.2,0.5,0.4,1,0.4,1.5c0,0.4-0.2,0.8-0.4,1.1c-0.4,0.5-0.4,1.1-0.3,1.6c-0.3,0.3-0.6,0.6-0.9,0.9c-0.3,0.3-0.3,0.8-0.1,1.2
			c0.2,0.8,0.4,1.6,0.7,2.4c0.1,0.3,0.2,0.7,0.4,1c0.1,0.2,0.2,0.4,0.1,0.7c-0.2,0.4-0.1,0.8,0.3,0.9c1.3,0.7,1.6,2,2,3.2
			c0.2,0.5,0.3,0.8,0.7,1.1c0.5,0.3,0.8,0.8,0.6,1.5c-0.2,0.7,0,1.3,0.5,1.9c0.3,0.5,0.7,0.9,1.2,1.4c0.9-0.3,1.9-0.4,2.7-1.1
			c0.4-0.4,1.1-0.5,1.6-0.7c0.7-0.3,1.4-0.5,2.2-0.8c0.3-0.1,0.6-0.3,0.8-0.5c1.3-1.3,2.9-2.1,4.6-2.7c0.6-0.3,1.3-0.5,2-0.7
			c-1-0.7-1.8-1.6-3.1-0.7c-1.3-0.6-2.5-0.8-3.9-0.5c-1.1,0.2-2.2,0.4-3.3,0.3c-0.7-0.1-0.8-0.1-0.8-0.8c0-0.2,0.1-0.4,0.1-0.7
			c0-0.3,0.1-0.6,0.1-0.9c-0.1-0.8,0-1.5,0.5-2.2c0.4-0.5,0.4-1.3,0.5-1.9c0.1-0.5,0.2-1.1,0.4-1.6c0.5-1.2,1.1-2.4,1.6-3.6
			c0-0.1,0.1-0.1,0.1-0.2c-0.2-1.1,0.4-2,0.6-2.9c0.1-0.6,0.4-1.2,0.6-1.8c0.2-0.5,0.3-1.1,0.4-1.7c0.1-0.4,0.2-0.8,0.3-1.2
			c0.1-0.7,0.6-1.1,1.1-1.4c1.9-1,3.9-1.8,6-2.3c0.2,0,0.4-0.1,0.6-0.1c0.1,0,0.2,0,0.4,0c0.3,0.5,0.7,1.1,1.1,1.7
			c0.1,0.2,0.2,0.3,0.3,0.5c0.7,0.9,0.7,0.9,0,1.7c0.1,0.9,0.4,1.7,0.1,2.6c-0.1,0.2,0,0.4,0,0.7c0.1,0.9,0.2,1.8,0.2,2.7
			c0,0.6,0.2,1.2,0.5,1.7c0.3,0.5,0.6,1.1,0.8,1.7c0.4,1.4,0.8,2.8,1.5,4.1c0.1,0.2,0.2,0.5,0.3,0.9c0.2-0.1,0.4-0.1,0.6-0.2
			c1.5-0.5,3-1.1,4.7-1.3c0.7-0.1,1.4-0.1,2.2,0c1.8,0.4,3.6,0.7,5.4,1c1.4,0.3,2.8,0.5,4.2,0.8c0,0,0.1,0,0.1,0
			c0.9,0.8,1.9,0.4,2.9,0.3c0.7-0.1,1.4-0.2,2.2-0.3c0-0.3-0.1-0.5-0.1-0.8c-0.3-1-0.2-1.1,0.6-1.8c0.5-0.4,1-0.8,1.1-1.4
			c0.2-0.6,0.1-1.3,0-2c-0.1-0.5-0.2-0.9,0-1.4c0.1-0.4-0.1-0.9-0.3-1.3c-0.2-0.6-0.4-1.1,0-1.7c0.1-0.1,0.1-0.4,0.1-0.5
			c0.1-0.8,0.5-1.4,1.2-1.6c1.5-0.5,3-1,4.5-1.4c0.9-0.2,1.7-0.2,2.4,0.7c0.4,0.5,1.1,0.9,1.8,1.1c0.5,0.1,0.9,0.6,0.9,1.1
			c0.1,0.9,0,1.7,0.2,2.6c0.2,1.3,0.2,2.6,0.8,3.8c0.1,0.2,0.1,0.5,0,0.7c-0.3,0.5-0.1,0.9,0,1.5c0.2,1,0.3,2,0.5,3
			c0,0.1,0,0.2,0,0.3c-0.5,0.6-0.2,1.3-0.2,1.9c-0.9,0.8-2,1.1-3,1.5c-2.2,0.9-4.6,1.2-6.9,1.3c-1.6,0-3,0.5-4.6,0.7
			c-1.8,0.2-3.4,1.1-5.1,1.5c-1.5,0.3-2.9,0.3-4.4,0c-0.9-0.1-1.9-0.1-2.8-0.1c-0.5,0-1,0.1-1.4,0.2c-0.8,0.2-1.4-0.1-1.9-0.6
			c-0.6-0.8-1.5-1-2.3-1.1c-0.9-0.1-1.7-0.3-2.5-0.8c-0.6-0.4-1.3-0.6-2-0.8c-0.3-0.1-0.8,0.2-1.2,0.4c0.5,0.6,1,1,1.7,1
			c0.6,0,1.1,0.2,1.6,0.6c0.2,0.1,0.4,0.3,0.6,0.3c1.5,0.2,3,0.7,4.5,1.1c0.7,0.2,1.5,0.4,1.9,1.2c0.1,0.1,0.2,0.2,0.3,0.2
			c0.6,0,0.7,0.4,0.7,0.9c1-0.2,1.9-0.5,2.9-0.6c2.2-0.3,4.4-0.3,6.6,0.1c1,0.2,1.7,0.7,2.5,1.2c0.3,0.2,0.5,0.5,0.7,0.8
			c0.5,0.9,0.7,2,0.9,3c0.1,0.5-0.1,1-0.7,1.2c-2.2,1-4.5,1.8-7,2.1c-0.3,0-0.6-0.1-0.8-0.2c-0.5-0.4-1.1-0.6-1.8-0.6
			c-0.4,0-0.8-0.2-1.4-0.3c-0.6,0.4-1.4,0.8-2.1,1.3c-2,1.1-4.1,1.9-6.4,2.1c-2,0.2-4.1,0.4-6.1,0.6c-3.6,0.4-7.2,0.8-10.7,1.6
			c-0.9,0.2-1.7,0.3-2.6,0.5c-0.3,0-0.6-0.1-0.9-0.3c-0.2-0.1-0.4-0.3-0.6-0.5c-2.4,1.2-4.8,2.2-7.3,2.4c-0.6-0.5-1.1-0.9-1.5-1.3
			c-0.2-0.2-0.4-0.5-0.5-0.8c-0.4-1-1.2-1.1-2.1-1.1c-0.6,0-1.2,0-1.8-0.1c-0.3,0-0.5-0.3-0.7-0.4c-0.1-0.1-0.1-0.3-0.2-0.3
			c-0.5-0.2-1-0.3-1.5-0.5c-0.5-0.3-1-0.2-1.5,0.1c-0.3,0.3-0.7,0.3-0.9-0.1c-0.5-0.7-1.3-0.9-2-1.3c-0.2-0.1-0.5-0.3-0.6-0.5
			c-0.4-0.7-0.8-1.4-1.2-2.1c-0.1-0.1-0.2-0.2-0.3-0.2c-0.8-0.1-1.1-0.8-1.5-1.5c-0.6,0.4-1.2,0.7-1.8,1.1c-0.3-0.5-0.5-0.8-0.8-1.1
			c-1.1,0.4-2.2,0.7-3.2,1.1c-1.2,0.5-2.2,0-3.2-0.6c-0.6-0.3-1.3-0.7-2-0.8c-0.5-0.1-0.9,0-1.4-0.3c-0.1-0.1-0.3-0.1-0.3-0.2
			c-0.4-0.8-1.2-0.8-1.9-1.2c-0.5-0.3-1-0.3-1.5,0.1c-0.2,0.2-0.5,0.2-0.7,0.3c-0.3-0.4-0.5-0.6-0.7-0.9c-1.2,0.4-2.3,0.9-3.5,1.3
			c-0.6,0.2-1.3,0.3-1.9,0.5c-0.4,0.1-0.8,0-1.2-0.2c-0.5-0.2-0.5-0.5-0.7-0.9c-0.2-0.4-0.4-0.9-0.7-1.2c-0.4-0.4-0.6-0.9-0.7-1.4
			c-0.1-0.3-0.2-0.6-0.4-0.8c-0.7-0.9-1.1-1.9-1.6-2.9c-0.5-1-1-1.9-1.5-2.8c-0.1-0.3-0.3-0.6-0.4-0.9c-0.2-1.3-0.8-2.4-1.5-3.5
			c-0.4-0.6-0.8-1.2-0.8-1.9c0-0.2-0.1-0.6-0.2-0.7c-0.7-0.6-0.8-1.5-1.2-2.2c-0.2-0.5-0.5-0.9-0.8-1.4c-0.7-1.2-1.2-2.6-1.6-3.9
			c-0.2-0.5-0.2-1.1-0.3-1.6c-0.1-1.1-1-1.8-1.3-2.8c-0.3-0.9-0.6-1.9-1.3-2.6c-0.1-0.1-0.2-0.5-0.1-0.7c0.2-0.5,0-0.8-0.3-1.1
			c-0.5-0.4-0.6-0.9-0.3-1.4c0-0.1,0.1-0.2,0.1-0.3c-0.3-1.1-0.2-2.3-0.6-3.4c-0.1-0.4-0.1-0.8-0.2-1.2c0-0.5,0-0.9,0-1.4
			c0-0.1,0.1-0.4,0.1-0.4C117.4,155,117.1,154.7,117.1,154.4z M154.9,166.1c0.1,0.8-0.1,1.6,0.7,2.2c0.3-0.3,0.5-0.6,0.8-0.7
			c0.4-0.3,0.6-0.6,0.6-1.1c0.1-0.4,0.2-0.8-0.3-1c-0.3-0.1-0.7,0-1.1,0.1C155.4,165.6,155.2,165.9,154.9,166.1z"/>
		<path id="XMLID_121_" class="st1" d="M184.8,137c-0.2-1-0.4-1.9-1-2.6c-0.5-0.6-0.3-1.4,0.4-1.8c1.3-0.6,2.7-1.1,4.2-1.1
			c1.4,0,2.7-0.2,4.1-0.3c0.7-0.1,1,0,1.2,0.5c0.2,0.6,0.7,1.2,0,1.8c-0.1,0.1-0.3,0.3-0.2,0.4c0.1,0.8-0.5,1.1-1,1.5
			c-1.4,1-3,1.4-4.6,1.6c-0.7,0.1-1.3,0.2-2,0.2C185.5,137.2,185.2,137,184.8,137z"/>
		<path id="XMLID_119_" class="st1" d="M184.1,131.2c-1.2,0.1-2.5-1.2-2.8-2.3c-0.3-1-0.2-1.2,0.7-1.8c1.3-0.8,2.7-1.2,4.2-1.5
			c0.2,0,0.5,0.1,0.7,0.2c1.1,0.6,1.4,1.6,1.9,2.6c0.3,0.7,0.1,1.2-0.6,1.6C186.9,130.7,185.6,131,184.1,131.2z"/>
	</g>
	<g id="XMLID_106_">
		<path id="XMLID_1083_" d="M203.4,263.5c-0.7-0.3-0.7-0.9-0.7-1.5c-0.1-1.3-0.1-2.6-0.1-3.9c0-1.9,0-3.8,0-5.7c0-1.1,0-2.3,0-3.4
			c0-0.7,0-1.3-0.1-2c0-0.4,0.1-0.8-0.5-1c-0.1,0-0.1-0.4-0.1-0.6c-0.1-1.3-0.1-1.3-1.3-1.8c-0.8-0.3-1.6-0.5-2.6-0.4
			c-0.6,0.1-1.2-0.2-1.9-0.3c0,0.3,0.1,0.6,0,0.8c-0.1,0.2-0.4,0.2-0.7,0.3c-0.8,0.3-1.5,0-2.3-0.1c-0.5,0-1-0.2-1.5-0.2
			c0.3,0.1,0.6,0.3,0.9,0.4c0.2,0.1,0.5,0.2,0.7,0.4c0.2,0.1,0.3,0.4,0.3,0.5c0,0.2-0.3,0.4-0.5,0.4c-0.5,0.1-1,0.2-1.5,0.2
			c-0.3,0-0.6,0-0.9,0.2c1.1,0.3,2.2,0.5,3.3,0.8c0.9,0.2,1.8,0.5,2.7,0.8c0.3,0.1,0.4,0.4,0.7,0.6c-0.7,0.4-1.2,0.5-1.8,0.4
			c-2.6-0.2-5.3-0.3-7.9-0.5c-0.5,0-1,0.1-1.6,0.2c0.4,0.4,0.8,0.5,1.2,0.6c3,0.8,6,1.7,9,2.5c0.6,0.2,1.3,0.4,1.9,0.7
			c0.3,0.1,0.5,0.4,0.8,0.7c-0.7,0.4-1.3,0.4-2,0.3c-1.3-0.1-2.7-0.3-4.2-0.4c0.9,0.9,2.4,0.7,3.1,1.9c-0.6,0.3-0.9,0.4-1.4,0.3
			c-1-0.2-2.1-0.4-3.1-0.5c-0.1,0-0.2,0-0.6,0.1c0.6,0.3,0.9,0.5,1.3,0.8c0.7,0.4,1.3,0.8,2,1.2c0.1,0.1,0.3,0.2,0.4,0.3
			c0.3,0.4,0.2,0.8-0.3,0.9c-0.3,0.1-0.5,0.2-0.8,0.3c-0.1,0-0.1,0.1-0.2,0.2c0.1,0.6,0.5,1,1,1.3c0.6,0.4,1.2,0.7,1.8,1.1
			c0.2,0.1,0.5,0.4,0.4,0.5c-0.1,0.2-0.3,0.5-0.5,0.6c-1.2,0.3-2.5,0.6-3.7,0.9c-0.1,0-0.2,0-0.5-0.1c1-0.9,2.2-0.8,3.2-1.3
			c-0.7-0.6-1.3-1.1-1.9-1.6c-0.1-0.1-0.2-0.2-0.3-0.3c-0.7-0.9-0.6-1.3,0.3-1.9c0.1-0.1,0.1-0.1,0.2-0.2c-0.5-0.7-1.2-0.9-1.8-1.3
			c-0.4-0.3-0.9-0.6-1.2-1c-0.4-0.4-0.2-0.8,0.3-1c0.4-0.2,0.9-0.2,1.4-0.3c0,0,0-0.1,0-0.1c-0.5-0.9-0.4-1.2,0.6-1.4
			c0.3-0.1,0.6,0,0.9,0c0.3,0,0.6,0,1,0c-0.1-0.1-0.3-0.2-0.4-0.2c-2.3-0.6-4.5-1.2-6.8-1.8c-0.6-0.2-1.2-0.4-1.8-0.6
			c-0.4-0.1-0.6-0.4-0.6-0.8c0-0.4,0.3-0.5,0.6-0.7c1-0.4,2-0.4,3-0.4c1,0,2,0.1,3,0.1c0.3,0,0.6,0,0.9,0c-0.1-0.2-0.1-0.3-0.1-0.3
			c-2.6-0.5-5.2-1-7.8-1.5c-0.7-0.1-1.5-0.2-2.3-0.3c-0.4,0-0.4-0.1-0.7-0.5c0.3-0.5,0.8-0.4,1.3-0.4c1,0,2,0.1,3,0.2
			c1.4,0.1,2.9,0.2,4.3,0.2c0.4,0,0.7,0,1.1,0c0-0.1,0-0.1,0-0.2c-0.3-0.1-0.7-0.2-1-0.3c-3.6-1.1-7.3-1.9-11-2.5
			c-2.9-0.5-5.8-1-8.7-1.5c-0.4-0.1-0.8-0.2-1-0.7c0.3-0.3,0.6-0.4,1.1-0.3c2.5,0.4,5,0.8,7.5,1.2c2.9,0.5,5.8,0.9,8.7,1.4
			c1.8,0.3,3.7,0.6,5.5,1c0.2,0,0.4,0,0.7-0.1c-0.5-0.1-0.9-0.2-1.4-0.4c-1.6-0.5-3.2-1-4.9-1.4c-1.4-0.4-2.8-0.7-4.2-1
			c-2.9-0.7-5.8-1.3-8.6-1.9c-1.4-0.3-2.7-0.5-4.1-0.8c-0.3-0.1-0.7-0.1-1-0.2c-0.3-0.1-0.5-0.3-0.8-0.5c0.4-0.5,0.7-0.6,1.2-0.5
			c3.9,0.7,7.8,1.3,11.6,2.1c3,0.6,6,1.5,9,2.2c0.6,0.2,1.3,0.2,2,0.2c-0.2-0.1-0.5-0.2-0.7-0.3c-3-1-6-2.1-9-3.1
			c-3.3-1.1-6.6-2.2-9.9-3.2c-1.3-0.4-2.6-0.7-3.9-1.1c-1.8-0.6-3.7-1.1-5.5-1.7c-1.8-0.6-3.6-1.1-5.5-1.6c-1.9-0.5-3.8-1-5.7-1.5
			c-0.4-0.1-1-0.2-1.1-0.8c0.3-0.3,0.7-0.3,1.1-0.2c1.5,0.3,2.9,0.6,4.4,0.9c0.9,0.2,1.9,0.4,2.8,0.7c0.5,0.2,0.9,0.3,1.3-0.1
			c0.3-0.3,0.6-0.2,1-0.1c1.7,0.5,3.5,1,5.2,1.5c3,0.9,5.9,1.8,8.8,2.7c1.5,0.5,2.9,1,4.3,1.5c2.2,0.8,4.3,1.6,6.5,2.4
			c2.1,0.8,4.2,1.6,6.3,2.5c2.5,1,4.9,2,7.4,3c0.8,0.3,1.5,0.6,2.3,0.9c0.1,0,0.2,0,0.2-0.1c0.9-0.6,1.3-0.6,1.7,0.5
			c0.2,0.5,0.5,0.5,1,0.7c0.1-0.8,0.2-1.5,0.3-2.3c0-0.2-0.2-0.4-0.4-0.5c-1.6-0.9-3.2-1.9-4.8-2.7c-1.1-0.5-2.4-0.7-3.6-1.1
			c-0.2-0.1-0.6,0-0.7,0.1c-0.5,0.5-1.1,0.3-1.5,0c-2-1.3-4.4-1.7-6.6-2.5c-1.1-0.4-2.1-0.8-3.2-1.3c-0.2-0.1-0.5-0.3-0.5-0.4
			c0-0.5-0.4-0.6-0.8-0.8c-2.4-1-4.8-2-7.3-2.9c-1.4-0.5-2.9-0.9-4.4-1.4c-1.2-0.4-2.4-0.7-3.6-1c-0.6-0.2-1.3-0.3-1.9-0.5
			c-0.4-0.1-0.8-0.1-1.1,0c-1.2,0.3-2.3,0.1-3.4-0.1c-1.9-0.3-3.7-0.5-5.6-0.9c-1.4-0.3-2.7-0.6-4.1-0.9c-1.9-0.4-3.9-0.8-5.8-1.3
			c-2.5-0.6-5-1.3-7.5-1.9c-1.4-0.4-2.7-0.8-4.1-1.2c-2.8-0.7-5.6-1.3-8.5-1.7c-2.2-0.3-4.4-0.6-6.6-0.9c-1.7-0.2-3.4-0.4-5.1-0.7
			c-0.9-0.1-1.7-0.4-2.6-0.7c-0.3-0.1-0.5-0.5-0.7-0.8c0-0.1,0.1-0.1,0.1-0.2c-4.3-0.5-8.7-1-13.2-1.5c0.6-0.6,1.2-0.7,1.8-0.7
			c2.7,0.2,5.4,0.5,8.1,0.9c1.5,0.2,3,0.3,4.5,0.5c2,0.2,4,0.5,6,0.8c2.3,0.3,4.7,0.5,7,0.8c2.9,0.3,5.7,0.6,8.6,1
			c1.8,0.2,3.6,0.4,5.4,0.7c1.7,0.3,3.4,0.5,5.1,0.9c2.1,0.4,4.3,0.8,6.4,1.4c1.9,0.5,3.8,1.2,5.7,1.8c0.8,0.3,1.6,0.5,2.3,0.8
			c1.6,0.7,3.2,1.4,4.8,2c1.2,0.5,2.5,0.9,3.8,1.2c2.3,0.7,4.7,1.3,7,2c3.4,1,6.6,2.4,9.9,3.8c1.9,0.8,3.8,1.6,5.8,2.3
			c0.9,0.3,1.9,0.6,2.8,0.9c0.2,0.1,0.5,0.1,0.7,0.3c0.7,0.7,1.6,0.6,2.4,0.9c0-0.1,0.1-0.1,0.1-0.2c-1-0.5-1.9-1.1-2.9-1.6
			c-3.1-1.6-6.5-2.7-9.7-4c-1-0.4-2-0.9-3.1-1.3c-1.2-0.5-2.5-1-3.7-1.5c-1.8-0.7-3.6-1.4-5.4-2.2c-3-1.4-6.2-2.5-9.3-3.5
			c-2.1-0.7-4.1-1.5-6.1-2.2c-2.1-0.7-4.3-1.2-6.4-1.9c-1.6-0.5-3.2-1-4.8-1.5c-1.7-0.5-3.5-0.9-5.3-1.4c-4-1-8.2-1.5-12.3-2.3
			c-4.7-0.9-9.5-1.5-14.3-2c-2.8-0.3-5.6-0.7-8.3-1.1c-2.3-0.3-4.5-0.8-6.8-1.2c-0.9-0.2-1.3,0.1-1.3,1.1c-0.1,2.5,0,5-0.1,7.4
			c-0.1,3.1-0.2,6.3-0.3,9.4c-0.1,2.3-0.3,4.6-0.2,6.8c0,2.3-0.1,4.6-0.2,6.9c0,1-0.1,2-0.2,3c0,0.3-0.1,0.5-0.5,0.6
			c-0.8,0.3-1.1,0.2-1.1-0.7c0-1.5,0-3,0-4.5c0-1.7-0.1-3.4-0.1-5c0-1.8-0.1-3.5-0.1-5.3c0-2.5-0.3-4.9-0.4-7.3
			c-0.1-1.3-0.1-2.5-0.2-3.8c-0.2-1.5-0.4-3-0.6-4.5c-0.2-1.1-0.5-2.2-0.7-3.3c-0.1-0.7-0.1-0.8,0.4-1.1c0.7-0.3,1-0.3,1.4,0.1
			c0.4,0.4,0.3,0.7-0.1,1.3c0.7,2.4,0.9,4.8,1.2,7.2c0.1,0,0.1,0,0.2,0c0-0.2,0.1-0.4,0.1-0.6c0-1.8,0-3.7,0-5.5
			c0-0.9,0.3-1.8,0-2.6c-1.6-0.2-3.3-0.5-4.9-0.7c-1-0.1-1.9-0.3-2.9-0.4c-0.7-0.1-1.3,0-2,0.2c-0.5,0.2-0.8-0.1-0.6-0.6
			c0.7-1.6,0.3-3.2,0.4-4.8c0-0.7,0-1.5,0-2.2c0-1.1,0-1.1,1.2-1.3c0.1,0.3,0.2,0.6,0.2,0.9c0.1,1.6,0.1,3.3,0.2,4.9
			c0,0.3-0.1,0.6,0,0.9c0,0.5,0.2,0.8,0.8,0.7c2-0.2,4,0.4,6,0.6c1,0.1,2,0.2,3,0.3c0.9,0.1,1.8,0.1,2.6,0.3
			c2.2,0.4,4.3,0.8,6.5,1.2c1,0.2,1.9,0.3,2.9,0.4c1.6,0.2,3.3,0.4,4.9,0.6c1.9,0.2,3.9,0.4,5.8,0.7c2.1,0.3,4.2,0.5,6.2,0.9
			c2.7,0.4,5.4,1,8.2,1.4c2.9,0.4,5.7,1.1,8.5,1.7c2.4,0.5,4.7,1.4,7.1,2.1c1.6,0.4,3.1,0.9,4.6,1.3c1,0.3,1.9,0.7,2.9,1
			c1.6,0.5,3.2,1.1,4.8,1.6c1.3,0.5,2.7,0.9,4,1.4c0.4,0.2,0.9,0.3,1.3,0.5c2.1,0.8,4.1,1.6,6.2,2.5c1.4,0.6,2.8,1.2,4.2,1.8
			c2,0.8,3.9,1.6,5.9,2.4c1.2,0.5,2.5,0.9,3.7,1.4c2.6,1.1,5.3,2,7.8,3.4c2.5,1.4,4.9,2.8,7.3,4.2c1.1,0.6,2.3,0.8,3.4,1.3
			c1,0.4,2.1,0.8,3.1,1.2c0.3,0.1,0.5,0.3,1,0.6c-0.6,0.2-0.9,0.3-1.4,0.4c1.5,0.9,2.8,2.1,4.5,2.5c0.3-1.9,0.8-3.7,1-5.6
			c0.2-1.3,0.1-2.7,0-4.1c0-0.4-0.1-0.7-0.3-1.1c-0.5-1.1-0.1-2.1,0.2-3.1c0.1-0.3,0.8-0.7,1-0.6c0.4,0.1,0.6,0.5,0.5,0.9
			c-0.2,0.8,0.1,1.6,0.1,2.4c0.1,3,0.3,6.1-0.6,9c-0.1,0.4-0.1,0.9,0.1,1.2c0.3,0.5,0.7,0,1.1-0.1c0.8-0.1,1.2-0.7,1.8-1.1
			c1.6-1,3.2-2.1,4.9-3.2c0.8-0.5,1.6-1.1,2.4-1.6c0.1,0,0.1-0.1,0.2-0.1c0.8-1.4,2.3-2,3.4-3c2.6-2.4,5.6-4.2,8.8-5.8
			c2.7-1.4,5.2-2.9,7.9-4.3c2.4-1.2,4.8-2.4,7.2-3.5c0.6-0.3,1.3-0.5,1.9-0.9c0.3-0.1,0.5-0.3,0.7-0.6c0.4-0.6,1-0.8,1.6-0.6
			c0.6,0.2,1-0.2,1.5-0.4c0.1-0.1,0.2-0.4,0.3-0.6c0.1-0.7,0.1-1.4,0.2-2.1c0.1-0.6,0.2-0.7,0.8-0.9c0.6,0.9,0,1.9,0.3,3
			c1.5-0.7,3-1.3,4.4-2.1c0.8-0.4,1.3-1.2,1.2-2.2c0-0.3,0-0.7,0-1.1c0-0.2,0.1-0.4,0.2-0.5c0.7-0.4,0.7-1.1,0.9-1.8
			c0.1-0.4,0.1-0.7,0.1-1.1c-1.3,0.3-2.5,0.4-3.6,0.8c-1.5,0.4-3,1-4.5,1.5c-6.5,2.5-12.9,5-19.4,7.6c-2.8,1.1-5.5,2.2-8.2,3.5
			c-2.6,1.2-5.1,2.6-7.6,3.8c-1.2,0.6-2.5,1.3-3.9,1.3c-0.6,0-1.2,0.5-1.8,0.7c0,0.3,0.1,0.6,0.1,0.9c-0.8,0.6-1.6,0.5-2.5,0.4
			c-0.4-0.1-0.8,0-1.2,0.1c-1.5,0.5-3,1-4.4,1.5c-0.1,0-0.3,0.1-0.4,0.1c-0.2-0.1-0.5-0.2-0.6-0.4c-0.1-0.1,0.1-0.4,0.2-0.6
			c0.4-0.3,0.9-0.6,1.3-0.9c0.1-0.1,0.3-0.2,0.5-0.4c-0.3-0.2-0.5-0.3-0.7-0.4c-1.3-0.5-2.6-1.1-4-1.6c-1.5-0.5-3-0.9-4.4-1.4
			c-1.6-0.6-3.3-1.2-4.9-1.8c-0.9-0.3-1.7-0.7-2.6-1c-1.8-0.6-3.5-1.2-5.3-1.8c-1.3-0.4-2.7-0.8-4-1.2c-1.4-0.5-2.7-1-4-1.5
			c-2.2-0.8-4.4-1.5-6.6-2.3c-1.2-0.4-2.5-0.7-3.7-1.1c-2-0.6-4.1-1.2-6.1-1.8c-2.2-0.6-4.4-1.3-6.6-1.9c-1.5-0.4-3.1-0.8-4.6-1.2
			c-2.5-0.6-4.9-1.3-7.3-1.9c-2.1-0.5-4.1-1.1-6.2-1.6c-0.6-0.2-1.3-0.1-1.9-0.2c0.1,1-0.1,1.3-1,1.2c-1.3-0.1-2.6-0.4-3.8-0.6
			c-0.3,0-0.6-0.1-0.9-0.1c-1.1-0.3-2.2-0.6-3.4-0.9c0.4-0.7,1.1-0.6,1.5-0.9c-5.1-0.9-10.2-1.8-15.3-2.7c-3.8-0.6-7.5-1.1-11.3-1.7
			c-2-0.3-4.1-0.7-6.1-1c-1.3-0.2-2.7-0.5-4-0.6c-1.5-0.1-2.9,0.2-4.2,0.9c-0.5,0.2-0.9,0.6-1.6,0.3c0.1-1.1,1.2-1,1.9-1.6
			c-0.9-0.5-1.9-0.4-2.8-0.8c0.2-0.7,0.9-0.9,1.4-0.8c1.2,0.3,2.4,0,3.6-0.3c3-0.7,5.9-1.3,8.9-1.9c4.9-0.9,9.7-1.7,14.6-2.4
			c3-0.5,6.1-0.7,9.1-1.1c1.9-0.2,3.8-0.3,5.8-0.4c0-0.2-0.1-0.4-0.1-0.6c-0.6-1.7-1.2-3.4-1.8-5c-0.6-1.7-1.2-3.3-1.8-5
			c-0.6-1.6-1.1-3.3-1.7-4.9c-0.3-0.8-0.6-1.6-0.8-2.4c-0.8-2.5-1.6-5.1-2.5-7.6c-0.6-2-1.2-3.9-1.9-5.9c-0.4-1.4-0.9-2.7-1.3-4.1
			c-0.3-0.8-0.6-1.6-0.9-2.5c-0.1-0.3-0.2-0.6-0.2-0.9c-0.1-0.8,0.3-1.4,1.1-1.4c0.5,0,0.8,0.2,0.9,0.7c0.1,0.5,0.2,1,0.4,1.6
			c-0.2,0.2-0.4,0.4-0.2,0.8c0.9,2.6,1.7,5.3,2.7,7.9c0.9,2.5,1.7,5.1,2.4,7.7c0.4,1.3,0.9,2.6,1.3,3.9c0.4,1.3,0.8,2.7,1.3,4
			c1.2,3.5,2.5,6.9,3.7,10.4c0.3,0.9,0.6,1.7,0.9,2.6c0.1,0.3,0.4,0.6,0.5,0.8c0.1,0.2,0.3,0.4,0.2,0.5c-0.2,0.7,0.2,1.2,0.5,1.8
			c0.2,0.3,0.3,0.6,0.5,0.9c0.7-0.1,1.4-0.1,2-0.3c1.3-0.3,2.5-0.1,3.8,0.2c3.7,0.8,7.4,1.7,11.1,2.6c1.5,0.4,2.9,0.9,4.3,1.3
			c2,0.5,3.8,1.6,5.8,1.9c1.8,0.2,3.5,0.6,5.3,0.9c2.7,0.5,5.3,1.1,8,1.6c1.8,0.3,3.6,0.6,5.4,0.9c1.1,0.2,2.2,0.4,3.3,0.6
			c0.1-0.5-0.3-0.6-0.5-0.8c-1.4-1.1-2.2-2.6-2.9-4.3c-0.1,0-0.2,0-0.3,0c-1,0.1-1.2,0-1.2-1.1c0-0.2,0-0.5,0-0.7
			c-0.7-1.4-0.7-2.9-1.1-4.4c-0.6-2.9-1.2-5.8-2-8.7c-0.6-2-0.9-4.2-1.3-6.2c-0.3-1.3-0.6-2.7-0.9-4c-0.5-2.1-0.8-4.2-1.4-6.3
			c-0.4-1.4-1-2.8-1.5-4.2c-0.3-0.9-0.6-1.9-0.8-2.8c0-0.2,0-0.3,0.3-0.5c0.4,1.1,0.7,2.2,1.1,3.3c0.1,0,0.1,0,0.2,0
			c-0.1-0.6-0.1-1.2-0.2-1.8c-0.1-0.6-0.2-1.2-0.3-1.9c-0.1-0.8-0.3-1.6-0.5-2.3c-0.1-0.5-0.4-0.8-0.9-1c-1.4-0.5-2.9-0.8-4.5-0.9
			c-1.9-0.2-3.9-0.3-5.8-0.5c-1.8-0.2-3.5-0.3-5.3-0.5c-3.3-0.3-6.6-0.6-9.9-1.2c-2.6-0.5-5.2-1-7.8-1.3c-2.6-0.4-5.3-0.3-7.9-0.3
			c-1.8,0-3.6-0.1-5.3-0.2c-0.2,0-0.3,0-0.5-0.1c-0.3-0.1-0.4-0.5-0.1-0.8c0.3-0.2,0.6-0.3,0.9-0.3c1.3,0,2.5,0.1,3.8,0.1
			c1,0,2,0,2.9,0c1.7,0,3.3-0.1,5,0c4.7,0.3,9.3,1.5,13.9,2.2c2.1,0.3,4.2,0.4,6.4,0.6c2.5,0.2,4.9,0.5,7.4,0.7
			c1.1,0.1,2.3,0.2,3.4,0.3c0.9,0.1,1.8,0.2,2.6,0.3c0.4,0.1,0.7,0,1-0.1c0.7-0.3,0.9-0.2,1.3,0.5c0.4,0.7,1.1,1,1.8,1.2
			c0.3,0.1,0.6,0.2,0.9,0.4c0.3,0.3,0.3,0.5-0.1,0.7c-0.2,0.1-0.5,0.2-0.8,0.3c0,0.2,0,0.5,0,0.7c0.5,1.8,1.1,3.6,1.4,5.4
			c0.4,2.2,1.2,4.2,1.6,6.4c0.4,2.1,0.6,4.3,0.9,6.4c0.2,1.2,0.5,2.3,0.8,3.4c0.5,1.9,0.9,3.8,1.4,5.6c0.1,0.2,0.1,0.5,0.2,0.8
			c0.5-0.5,0.8-1,1-1.6c0.9-1.8,1.9-3.6,2.7-5.5c0.7-1.6,1.2-3.3,1.8-5c0.1-0.4,0.3-0.9,0.1-1.4c-0.1-0.2,0.1-0.5,0.2-0.7
			c0.7-1.1,0.6-2.4,0.9-3.5c0-0.1,0-0.3-0.1-0.3c-0.7-0.2-0.4-0.7-0.3-1.1c0.5-2.4,1.3-4.7,1.4-7.1c0-0.4,0.1-0.8,0.2-1.2
			c0.3-0.8,0.2-1.5-0.3-2.2c0.3-0.6,0.8-0.8,1.3-0.9c0.4-0.1,0.7-0.3,0.9-0.7c0.2-0.6,0.5-1.1,0.8-1.6c-0.1-0.1-0.1-0.2-0.1-0.2
			c-1.4-0.8-2-2-1.9-3.6c0-0.7,0.2-1.5,0.2-2.2c0-0.7-0.1-1.3-0.2-2c-0.1-1.5,0.3-2.9,1.2-4.1c0.7-1,1.4-1.9,2.2-2.9
			c0.4,0.6,0.8,1.1,1.3,1.7c0.2-0.1,0.4-0.3,0.6-0.4c0.3,0.8,1,1.3,1.7,1.7c0.5,0.4,1.1,0.5,1.7,0.2c0.5-0.2,0.9-0.5,1.6,0
			c0.7,0.5,1.7-0.1,2.1-0.9c0.1-0.2,0.3-0.4,0.4-0.6c0.2-0.2,0.4-0.5,0.6-0.7c0.1-0.2,0.3-0.3,0.5-0.4c0.3-0.2,0.6-0.3,0.8-0.6
			c1.8-1.6,3.5-3.1,5.3-4.7c0.9-0.8,1.8-1.4,2.6-2.2c0.3-0.2,0.4-0.6,0.5-1c0.3-1.4,0.5-2.8,0.7-4.1c0.1-0.3,0.1-0.7,0.2-1
			c0-0.1,0.2-0.2,0.4-0.5c0.2,0.4,0.3,0.7,0.3,1c0.4-0.6,0.9-1.3,1.3-1.9c0.7,0.4,0,0.9,0.3,1.3c1.9-1.6,2.6-5.4,2.4-8.5
			c-0.3,0-0.7,0-1,0c-1-0.1-1.8,0.1-2.2,1.2c-0.1,0.2-0.4,0.3-0.6,0.3c-0.3,0.1-0.6,0-0.9,0c-0.6,0.7-0.4,1.8-1.1,2.5
			c-0.2-0.1-0.4-0.3-0.6-0.4c-0.4,0.3-0.5,1-1.3,0.9c-0.1-0.9,0.7-1.6,0.9-2.4c-0.6-0.7-0.6-1.6-0.8-2.4c-0.1-0.4-0.2-0.8-0.4-1.1
			c-0.7-1-1.4-2-2.2-3c-0.3-0.4-0.2-0.6,0-0.9c-0.3-0.3-0.6-0.5-1-0.7c-0.6,0.3-1.1,0.6-1.7,0.9c-2.9,1.4-5.9,1.4-9,0.8
			c-1.8-0.4-3.5-0.7-5.2-1.5c-1.8-0.8-3.5-1.6-4.9-3c-0.5-0.5-1-0.9-1.2-1.8c0-0.3-0.6-0.4-1-0.7c-0.5,2.4-0.6,4.6-0.4,6.9
			c-0.1,0-0.2,0.1-0.3,0.1c-0.1,0-0.2,0-0.4,0c-0.4,2.1,0.2,4.1,0.3,6.3c0.2-0.1,0.5-0.2,0.7-0.4c0.3,0.5,0.2,1.2,0.9,1.3
			c0.5,0.1,1,0,1.7,0c-0.2,0.4-0.4,0.7-0.5,0.9c1.4,0.3,1.9-0.6,1.9-1.8c-0.8,0-1.5,0-2.3,0c-0.2-0.5-0.3-0.9,0.1-1.3
			c-0.1-0.4-0.7-0.6-0.4-1.1c0.9,0.1,1.8,0.3,2.7,0.4c0.2-0.5,0.4-0.9,0.6-1.3c0.1,0,0.1,0,0.2,0.1c0,0.5,0,0.9,0,1.4
			c0.4,0.4,1.2,0.3,1.2,1.1c-0.3,0.1-0.5,0.2-0.8,0.3c0.1,0.3,0.2,0.5,0.4,0.8c0.3,0.6,0.3,1.1-0.1,1.6c-0.7,0.8-0.7,1.8-0.6,2.8
			c0.1,0.7,0.1,0.7-0.7,0.8c-0.2,0.9-0.5,1.7-0.1,2.6c0.2,0.5,0.5,0.9,1.1,0.9c0.1,0,0.3,0,0.4,0c0.4-0.6,0.9-0.3,1.3-0.1
			c0.2,0.1,0.4,0.1,0.5,0c0.5-0.2,1.1-0.1,1.3,0.3c0.3,0.5,0.5,1.1,0.1,1.7c-0.2,0.3-0.2,0.6-0.4,0.9c-0.1,0.2-0.3,0.4-0.4,0.4
			c-0.2,0-0.4-0.2-0.5-0.3c-0.1-0.2-0.2-0.5-0.3-0.7c-0.3-0.7-0.6-0.9-1.3-0.7c-1,0.4-1.8,0.1-2.7-0.2c-0.6-0.2-1.2-0.6-1.3-1.4
			c0.8-0.8,1.6-3.6,1.4-5.1c-0.2,0-0.5,0-0.7,0.1c-0.2,0.1-0.5,0.2-0.7,0.3c-0.8,0.3-1.2,0.1-1.3-0.7c-0.2-1.2-0.7-1.3-1.9-1.3
			c0.8,4.1,2.6,7.7,4.2,11.4c0.5-0.1,0.8-0.3,0.9-0.8c0.1-0.3,0.3-0.4,0.6-0.2c0.3,0.2,0.6,0.4,0.9,0.6c0.4,0.2,0.7,0.3,1.2,0.1
			c0.8-0.4,1.6-0.2,2.3,0c1.7,0.6,3.5,0.9,5.2,1.4c0.4,0.1,0.8,0.3,1.3,0.5c-0.6,0.4-0.9,0.5-1.4,0.2c-0.3-0.2-0.7-0.4-1-0.3
			c-1.8,0.2-3.5,0.5-5.3,0.8c0,0-0.1,0-0.1,0.1c-0.1,0.3,0.1,0.9-0.6,0.9c-0.4-0.1-0.2-0.8-0.8-0.8c-0.3,0-0.6-0.5-0.9-0.7
			c0-0.6,0.5-0.7,0.9-0.9c-0.6-0.2-1.3-0.4-2-0.7c0.1,0.4,0.2,0.7,0.3,1c0.3,0.8,0.6,1.5,0.9,2.3c0.2,0.7,0.6,0.9,1.1,0.4
			c0.4-0.5,0.8-0.4,1.3-0.3c0.4,0.1,0.8,0.2,1.2,0.2c0.9,0.1,1.7,0.2,2.6,0.2c0.9,0,1.8,0.2,2.5-0.4c0.3,0.3,0.3,0.6-0.1,0.6
			c-0.9,0.2-1.5,0.8-2.4,0.9c-1.2,0.1-2.3,0.6-3.6,0.5c-0.3,0-0.6,0.3-0.9,0.5c-0.5,0.4-0.7,0.4-1-0.1c-0.9-1.3-1.8-2.6-2.6-3.9
			c-0.3-0.4-0.6-0.9-0.9-1.4c-0.3-0.4-0.6-0.3-0.9,0.2c-0.5-1.3-1-2.4-1.5-3.6c-0.5-1.2-1.1-2.5-1.5-3.8c-0.3-0.9-0.5-1.9-0.8-2.8
			c-0.1-0.4-0.2-0.6-0.6-0.8c-1-0.6-1.7-1.6-2.3-2.6c-0.3-0.5-0.6-1-0.9-1.5c-1.3-2.1-1.9-4.5-2.8-6.8c-0.4-1-0.4-2-0.1-3.1
			c0.4-1.7,0.9-3.5,1.2-5.3c0.2-1.1,0-2.3-0.1-3.6c-0.9,1-1,1.5-1.2,5c-0.4-1-0.4-1.8-0.3-2.7c0.2-1.1,0.6-2.1,1.1-3.1
			c0.3-0.5,0.6-1.1,0.7-1.6c0.3-1.3,1.3-1.9,2.4-2.1c0.8-0.2,1.5-0.5,2.2-0.9c0.8-0.5,1.2-1.2,1.4-2.1c0.3-1.9,1.6-3.3,3.2-4.3
			c1.1-0.7,2.3-1.3,3.6-1.8c1-0.4,2-0.6,3-0.9c0.3-0.1,0.7-0.2,1-0.3c2.2-1.2,4.6-1.8,7.1-2.2c0.1,0,0.2-0.1,0.5-0.2
			c-0.5-0.2-0.8-0.4-1.2-0.5c0.1-0.4,0.4-0.4,0.7-0.4c0.6,0.1,1.3,0.2,1.9,0.4c1,0.3,2,0.2,2.9,0.1c3.7-0.3,7.3-0.4,10.9,0.7
			c2.7,0.8,5.2,2.1,7.6,3.7c1.8,1.2,3.5,2.6,4.9,4.2c1.6,1.8,3.1,3.7,3.6,6.3c0.3,1.7,0.8,3.4,1.2,5.1c0,0,0.1,0,0.1,0
			c0.8-0.5,1.1-0.5,1.4,0.5c0.2,0.7,0.3,1.6,0.5,2.3c0.1,0.6,0.2,1.3,0.3,2.2c0.3-0.5,0.5-0.8,0.7-1c0.4,0.2,0.3,0.5,0.2,0.7
			c-0.2,0.8-0.4,1.5-0.2,2.3c0.2,0.7,0.3,1.4,0.4,2.1c0.3,1.6,0.4,3.3,0.1,4.9c-0.1,0.5,0,0.8,0.4,1.2c0.9,0.8,1.7,1.5,2.5,2.3
			c1.7,1.7,3,3.6,3.6,5.8c0.2,0.8,0.3,1.6,0.2,2.4c-0.1,2.4,0.5,4.7,1,7c0.1,0.5,0.4,1.1,0.6,1.6c0.8,1.7,1.2,3.5,1,5.4
			c-0.2,1.5-1,2.8-1.8,4.1c-0.6,1-1.3,1.9-1.9,2.9c1.2,0.9,2.4,1.9,3.6,2.8c0.6-0.7,0.6-0.8,1.2-0.4c1,0.7,2,1.4,3,2.1
			c0.2,0.1,0.2,0.4,0.4,0.5c-0.4,0.5-0.8,0.3-1.2,0.1c-0.5-0.3-0.9-0.5-1.5-0.1c0.3,1.2,0.7,2.4,1.1,3.8c0.7,0.1,1.5,0.1,2.3,0.2
			c3.4,0.3,6.8,0.6,10.2,1.1c2.3,0.3,4.6,0.4,6.9,0.6c0.5,0,0.7,0.2,0.8,0.7c0,0.3,0,0.6,0,1c0.7,0.2,0.7,0.7,0.7,1.4
			c0,2.8,0,5.5,0,8.3c0,0.8-0.1,1.7-0.1,2.5c0,1.5,0.2,2.9,0.3,4.4c0.1,1.9,0.3,3.7-0.4,5.6c-0.2,0.5,0,1.2,0,1.8
			c0,0.3-0.1,0.7-0.1,1c-0.1,0.4-0.1,0.9-0.2,1.3c0,0.2-0.1,0.5-0.2,0.7c-0.1,0.1-0.3,0.3-0.4,0.3c-0.1,0-0.3-0.2-0.4-0.3
			c-0.1-0.2-0.1-0.4-0.1-0.7c-0.6,0-1.1,0-1.7,0c-0.2,1.2-0.2,1.3-1.5,1.2c-1-0.1-1.9-0.4-2.9-0.5c-0.3-0.1-0.7-0.1-1-0.1
			c0.2,0.3,0.6,0.6,0.7,1c0.1,0.4,0,0.8-0.1,1.2c-0.1,0.7-0.3,1.3-0.5,2c-0.5,1.9-0.6,3.8-0.8,5.7c-0.3,2.3-0.5,4.7-0.7,7
			c0,0.5-0.1,0.9-0.2,1.5c0.8,0.1,1.6,0.3,2.4,0.4c1.8,0.2,3.7,0.3,5.5,0.7c1.8,0.3,3.4,0.1,5-0.5c1.7-0.7,3.5-1.3,5.2-1.9
			c0.5-0.2,0.8-0.1,1.2,0.3c0,0.1,0,0.1,0,0.2c-0.7,0.3-1.3,0.6-2,0.9c-2,0.6-4,1.5-5.9,2.5c0.1,0.3,0.3,0.6,0.3,1
			c0.1,0.5,0.1,1,0.1,1.5c0,0.2,0,0.4-0.1,0.5c-0.5,0.8-0.4,1.6-0.3,2.5c0.1,0.5,0.1,0.9-0.1,1.3c-0.3,0.6-0.3,1.2-0.3,1.9
			c0,1.2-0.1,2.3-0.1,3.5c-0.5,0.2-0.8,0.3-1.2,0.4c-0.7-1.2-0.1-2.6-0.7-3.7c-0.2,0-0.4,0-0.6,0.1c-1.3,0.5-2.6,1.2-3.9,1.6
			c-0.9,0.3-1.5,0.8-1.4,1.9c0.1,1.3-0.1,2.6-0.1,3.9c0.8,0.2,1.1,0.7,1.1,1.3c0.1,1,0.2,2.1,0.3,3.1c0.1,1.4,0,2.7,0.1,4.1
			c0,2.8,0.1,5.5,0.1,8.3c0,2.4,0,4.9,0,7.3c0,1.1,0,2.1,0,3.2c0,0.4-0.2,0.7-0.5,0.8c-0.3,0.1-0.7,0.2-1.1,0.4
			c-0.3-0.6-0.5-1.2-0.8-1.8c0,0.3,0,0.5-0.1,0.6c-0.2,0.5-0.3,1.1-0.6,1.5c-0.3,0.4-0.5,0.8-0.5,1.3c0,1.3,0.1,2.5-0.2,3.7
			c-0.4,0.3-0.8,0.5-0.9,0.8c-0.1,0.5-0.5,0.6-1,0.6c-0.1-0.3-0.2-0.5-0.2-0.8c0.1-1.7,0.2-3.4,0.3-5.1c0.2-2.2,0.4-4.4,0.5-6.6
			c0.1-2,0-3.9,0.1-5.9c0-1.4,0.2-2.9,0.2-4.3c0-2.1,0-4.2,0.1-6.4c0.1-2.1,0.3-4.1,0-6.2c-0.1-0.5-0.1-1.1-0.4-1.3
			c-0.6-0.5-0.5-1.3-1.1-1.8c-2.9,1.2-5.7,2.5-8.3,4.1c0.2,0,0.4-0.1,0.6-0.1c0.8-0.3,1.7-0.5,2.5-0.8c0.4-0.1,0.7-0.1,0.9,0.2
			c0.2,0.3,0.1,0.8-0.2,1.1c-0.4,0.4-0.9,0.8-1.4,1.2c-0.3,0.3-0.7,0.6-1,0.8c0.4,0.1,0.7,0,1-0.1c0.7-0.2,1.4-0.4,2-0.5
			c0.2,0,0.5,0,0.6,0.1c0.2,0.3,0.1,0.6-0.2,0.7c-0.3,0.2-0.5,0.4-0.8,0.5c-4.6,2.2-8.9,4.9-13.2,7.5c-1.5,0.9-3,1.7-4.4,2.6
			c-1.5,1-3.2,1.6-4.8,2.4c-1.2,0.6-2.4,1.1-3.6,1.7c0.2,0.8,0.2,0.8-0.4,1.2c-0.3,0.2-0.6,0.3-0.8,0.4c-1.4,0.6-2.9,1.3-4.3,1.9
			c-0.2,0.1-0.3,0.2-0.5,0.4c0.6-0.1,1.1-0.1,1.6-0.1c0.2,0,0.6,0.2,0.6,0.3c0.1,0.2,0,0.6-0.2,0.8c-0.2,0.2-0.5,0.4-0.7,0.6
			c-1.5,0.9-2.9,1.8-4.4,2.7c-0.3,0.2-0.6,0.4-1,0.6c0,0.1,0.1,0.1,0.1,0.2c0.3-0.1,0.6-0.2,0.8-0.4c0.8-0.3,1.6-0.7,2.5-1
			c0.3-0.1,0.6-0.3,0.8,0.1c0.2,0.4-0.2,0.6-0.4,0.8c0,0-0.1,0.1-0.2,0.1c-0.8,0.5-1.7,1-2.5,1.5c-0.5,0.3-0.9,0.6-1.3,1
			c0.6,0.1,1,0,1.5,0.1c0.3,0,0.7,0.3,0.7,0.5c0.1,0.3-0.1,0.7-0.3,0.9c-0.2,0.2-0.5,0.4-0.8,0.6c-1.4,1.1-2.9,2.1-3.6,3.9
			c-0.2,0.6-0.5,1.1-1.3,1.3c0,0.2,0,0.4,0,0.5c0,0.4-0.1,0.8-0.2,1.2c-0.1,0.4-0.5,0.8-0.8,0.8c-0.5,0-0.5-0.4-0.5-0.7
			c0-0.6-0.5-0.5-0.8-0.8c0-1.7,0.4-3.3,0.2-4.9c-0.7,0.2-1.3,0.4-2,0.5c-0.2,1.7-0.5,3.5-0.6,5.3c-0.1,0.9-0.4,1.5-1.2,1.9
			C203.5,263.5,203.4,263.5,203.4,263.5z M246.4,187.6c0-0.3,0-0.6,0.1-0.9c-0.1,0-0.1,0-0.2,0C246.3,187,246.4,187.3,246.4,187.6
			c0.1,1.1,0.2,2.2,0.3,3.3c0.3-1.1,0.1-2.2-0.1-3.3C246.6,187.6,246.5,187.6,246.4,187.6z M153.2,200.5c-0.5-0.1-0.9-0.3-1.4-0.4
			c0,0.1,0,0.2,0,0.2C152.3,200.4,152.8,200.4,153.2,200.5c0.2,0.1,0.3,0.2,0.4,0.3c0.8,0.2,1.7,0.4,2.5,0.6
			c0.2,0.1,0.4,0.1,0.7,0.1c0-0.1,0-0.1,0-0.2C155.6,201,154.4,200.8,153.2,200.5z M244.8,158.1c-0.4,0.1-0.5-0.1-0.6-0.5
			c-0.1-0.6-0.2-0.6-0.9-0.5c0,0.7,0.1,1.4,0.1,2.1c0,0.5,0.1,1,0.7,1.3c0.2,0.1,0.3,0.4,0.3,0.6c0.1,0.5,0,1,0,1.5
			c0,1.3,0.1,2.6,0.4,3.9c0.4,1.3,0.7,2.6,0.9,3.9c0.2,1.3,0.2,1.1-0.7,1.7c0,0-0.1,0.1-0.1,0.2c0.5,3.3,1,6.6,1.5,9.9
			c1.9-0.6,3.7-0.4,5.5,0.1c1,0.3,2,0.3,3,0.4c0.7,0.1,1.4-0.5,2,0.2c1,0,2.1,0,3.2,0c0.2-1.5,0.3-2.8,0.4-4.1
			c0-0.2-0.1-0.5-0.2-0.6c-0.4-0.4-0.3-0.8-0.3-1.2c0-0.3,0.1-0.7,0.1-1c0.1-2.1,0.2-4.1,0.3-6.2c0-1,0.1-2.1,0.1-3.1
			c0-1.3,0-2.5-0.1-3.8c0-0.6-0.1-1.1-0.1-1.7c0.8-0.3,1.4-1.1,2.4-0.7c0.1-1.1,0.1-1.2-0.9-1.3c-0.4-0.1-0.8-0.1-1.1-0.1
			c-3-0.4-6.1-0.7-9.1-1.1c-1.8-0.2-3.6-0.3-5.4-0.5c-0.2,0-0.4,0.2-0.6,0.2c-0.2-0.1-0.4-0.3-0.7-0.5
			C244.9,157.5,244.8,157.8,244.8,158.1L244.8,158.1z M209.6,107.5c-0.7,0.5-0.6-0.6-1.2-0.6c-0.7,0.2-1.5,0.5-2.4,0.8
			c0.2,2.2,1.2,3.7,2.8,4.9c0.3-0.1,0.6-0.2,0.9-0.3c0,0.9,0.4,1.6,1.4,1.5c0.2-0.2,0.5-0.4,0.8-0.5c0.3-0.2,0.6-0.3,0.9-0.4
			c0.8-0.3,1.2-0.2,1.6,0.5c0.1,0.2,0.2,0.4,0.3,0.5c1,0,1.8-1.2,2.9-0.3c-0.1,1.1-0.4,1.3-1.4,1.2c-0.1,0-0.2-0.1-0.3-0.1
			c-0.7-0.1-0.8,0.1-0.8,0.7c0,0.2,0.1,0.3,0.1,0.5c0.1,1.4,0.2,2.8-0.3,4.1c-0.8,2.1-1.7,4.2-2.5,6.3c-0.3,0.6-0.6,1.2-1.2,1.5
			c-0.2,0.1-0.4,0.3-0.5,0.6c-0.2,0.7-0.4,1.3-0.5,2c0.2,0.2,0.3,0.3,0.5,0.4c-0.8,1.5-0.8,1.5-0.1,3.1c0,0.1,0.1,0.1,0.1,0.2
			c0.4,1,0.8,2,0.2,3.1c-0.1,0.1,0.1,0.4,0.1,0.5c0.3-0.3,0.4-0.6,0.5-1c0.4-1.9,1.3-3.7,2.4-5.3c0.6-0.8,1-1.7,1.5-2.6
			c0.3-0.6,0.6-1.3,1.6-1.5c-0.3,0.8-0.6,1.5-0.9,2.2c1.2-0.4,1.5-1.8,2.6-2.2c0.2,0.4-0.1,0.6-0.2,0.8c-0.9,1.2-1.8,2.4-2.6,3.7
			c-0.5,0.8-0.7,1.8-1.1,2.6c-0.2,0.5-0.2,0.9-0.2,1.4c0.1,0.5,0.2,0.9,0.3,1.4c0.3,1.4,0.6,2.7,0.9,4.1c0.1,0.6,0.1,1.3,0.2,1.9
			c0.2,0.7,0.4,1.4,0.6,2.1c0.2,0.9,0.5,1.9,0.5,2.8c0,0.6,0.2,0.9,0.6,1.3c0.3,0.3,0.7,0.6,1.1,1c-0.7,0.5-1.4,0.1-2.1,0.2
			c-0.2,0.7-0.4,1.3-0.6,2c0.1,0.1,0.2,0.3,0.3,0.4c0.5,0.2,0.7,0.9,1.4,0.8c0.7-0.1,1.3-0.7,2-0.1c0.9-0.4,1.9-0.7,2.8-1.5
			c-0.5-0.3-0.9-0.5-1.4-0.7c0.9-1,1.6-1.1,2.9-0.4c0.6-0.5,1.2-1,1.8-1.6c0.4-0.4,0.8-0.8,1.2-1.2c0.4-0.5,0.3-0.8-0.1-1.2
			c-0.3-0.3-0.6-0.5-0.9-0.8c-0.2-0.2-0.4-0.5-0.5-0.7c0.1-0.1,0.1-0.1,0.2-0.2c0.8,0,1.2,0.9,2.1,1c0.2-0.9,0.4-1.7,0.5-2.6
			c0.1-0.5,0-0.9-0.1-1.4c-0.1-0.6-0.3-1.1-0.5-1.6c-0.5-1.4-1.1-2.8-1.7-4.2c-0.2-0.5-0.3-1-0.3-1.5c0-0.2,0.1-0.4,0.3-0.5
			c0.1-0.1,0.4,0,0.5,0.1c0.4,0.4,0.8,0.7,1.1,1.1c0.4,0.5,0.8,1.1,1.2,1.7c0.3-0.2,0.5-0.4,0.7-0.6c-0.1-1.1,0-1.5,0.6-1.7
			c0,0.2,0.1,0.3,0.1,0.5c-0.1,0.6,0.1,1.2,0.4,1.7c0.3,0.5,0.3,1.1,0,1.6c-0.1,0.3-0.2,0.6-0.2,0.9c0.1,0.9,0.2,1.8,0.3,2.7
			c0.3,0.3,0.7,0.4,1.2,0.3c-0.2-1.1-0.9-2-0.7-3.1c0.3,0,0.5-0.1,0.6-0.1c0.4-0.9,0.5-1.7,0.3-2.6c0-0.1,0.2-0.3,0.3-0.4
			c0.2,0.2,0.4,0.3,0.6,0.4c0,0.4,0,0.8-0.1,1.2c0.1,0,0.1,0,0.2,0c0-0.4-0.1-0.8-0.1-1.2c0-0.3,0-0.7,0.5-0.7
			c0.5,1.1,0.3,2.5,0.8,3.7c0.7-0.5,1.4-1,1.4-2c0-0.2,0.2-0.5,0.4-0.5c0.4-0.1,0.5,0.3,0.5,0.6c0.1,0.8,0.3,1.6,0.4,2.4
			c0.1,0.5,0.1,1,0.7,1.2c0.3,0.1,0.4,0.4,0.1,0.7c-0.3,0.3-0.5,0.5-0.4,1c0.1,0.4,0,0.8,0.4,1.1c0.6-1.8,0.8-3.7,0.8-5.5
			c0-1.8,0-3.7-0.1-5.5c0-0.3,0-0.7-0.2-1c-0.9-2-1.8-4-2.7-6c-1.2-2.6-2.5-5.1-4.2-7.5c-0.2-0.3-0.4-0.5-0.7-0.7
			c-0.7,0.9-1.1,0.9-1.7,0.1c-0.1-0.2-0.2-0.5-0.3-0.7c-0.1-0.2-0.2-0.3-0.4-0.7c-0.1,0.7-0.2,1.2-0.3,1.9c-0.4,0.1-0.8,0.2-1.2,0.3
			c-0.1-0.4-0.2-0.7-0.1-1c0.1-0.7,0.2-1.3,0.2-2c0.1-0.8,0.3-1.7-0.2-2.5c-0.1-0.2,0-0.5,0-0.8c0.1-0.3,0.3-0.6,0.6-0.9
			c-0.8-0.7-2-0.9-2.2-2.1c0.3-0.4,0.7-0.4,1-0.1c0.4,0.3,0.8,0.5,1.3,0.9c0-0.4,0-0.7,0-0.9c0-2.1-0.1-4.1-0.1-6.2
			c0-1.7-0.1-3.4-0.4-5.1c-0.4-2.1-1.3-4.1-2-6c-0.5-0.1-0.8-0.1-1.1-0.2c-0.5-0.1-0.9-0.2-1.4-0.2c-0.8,0-1.4-0.2-2-0.7
			c-0.5-0.4-1-0.8-1.6-1.2c-0.4-0.3-0.7-0.6-0.8-1.2c0-0.2-0.2-0.5-0.4-0.6c-1-0.6-1.9-1.2-2.9-1.8c-0.8-0.4-1.7-0.6-2.6-0.2
			c-0.4,0.2-0.9,0.3-1.4,0.4c-0.3,0.1-0.6,0.2-0.9,0.3c0.6,0.7,1.5,0.6,2,1.4c-0.4,0-0.7-0.1-1-0.3c-1.6-0.8-3.2-1.5-4.7-2.3
			c-0.7-0.4-1.4-0.6-2.2-0.5c-1.3,0.1-2.5-0.4-3.6-1.1c-0.7-0.4-1.2-1-1-1.9c0.1-0.4-0.1-0.6-0.5-0.7c-0.3-0.1-0.6-0.2-0.9-0.2
			c-0.5,0-1.1,0.1-1.6,0.2c-1.8,0.3-3.7,0.5-5.4,1.3c-0.3,0.1-0.7,0.3-1,0.5c0,0.1,0,0.1,0.1,0.2c0.8-0.1,1.6-0.3,2.4-0.4
			c0.8-0.1,1.6-0.4,2.5-0.1c-0.6,0.5-1.2,0.3-1.8,0.4c-0.6,0.1-1.2,0.2-1.7,0.3c1,0.3,2.1-0.1,3.1,0.3c-0.2,0.6-0.6,0.5-1,0.6
			c-1.7,0.3-3.4,0.6-5.2,0.9c-0.7,0.1-1.1,0.5-1.5,0.9c-0.5,0.6-0.9,1.2-1.3,1.9c-1,1.9-1.7,4-2.1,6.1c-0.2,1.5-0.5,3.2,0.3,4.7
			c0.2,0.4,0.5,0.8,0.8,1.3c-0.8,0.6-1.2,0.6-1.5,0.1c-0.6-1-1.1-2-1.2-3.2c0-2.3,0.4-4.5,1.3-6.6c0.1-0.3,0.2-0.6,0.3-1.1
			c-0.3,0.2-0.4,0.3-0.5,0.4c-0.7,0.8-1.3,1.6-1.9,2.4c-0.5,0.6-0.7,1.3-0.7,2c0,1.5,0.1,3,0.6,4.6c-0.3-0.1-0.6-0.1-0.7-0.2
			c-0.2-0.2-0.2-0.5-0.3-0.8c-0.2-1-0.4-2-0.7-3.2c-0.8,1.7-0.5,3.3-0.4,4.9c0.3-0.1,0.6-0.2,1-0.3c-0.1,0.4,0,0.7-0.2,1
			c-0.3,0.6-0.2,1.1,0.1,1.5c0.5,0.8,1.1,1.6,1.7,2.4c0.9,1.1,2.1,2.1,3.4,2.7c1.8,0.9,3.7,1.6,5.7,2c2.1,0.4,4.2,1,6.4,0.9
			c1.4,0,2.6-0.5,3.7-1.3c0.1-0.1,0.2-0.3,0.4-0.5c-0.3,0-0.4,0-0.6,0c-3.8,0.1-7.6,0.1-11.4-0.7c-0.4-0.1-0.8-0.2-1.2-0.4
			c-0.4-0.2-0.5-0.5-0.3-0.8c0.3,0.2,0.6,0.6,0.9,0.6c2.5,0.3,5,0.6,7.5,1c0.2,0,0.3,0,0.5-0.1c-1.2-0.5-2.5-0.6-3.6-1.3
			c1.2,0.2,2.5,0.4,3.8,0.6c0.3,0.1,0.7,0.1,0.9,0.3c0.6,0.5,1.3,0.5,2,0.5c0.5,0,1.1-0.1,1.6-0.1c1.6-0.1,2.6-1,3.4-2.3
			c0.2-0.3,0.5-0.7,0.8-0.7c0.7-0.1,1.2-0.5,1.7-0.7c0.6-0.3,1.2-0.5,1.9-0.7c0.2-0.1,0.5,0,0.9,0.1c-0.6,1-1.6,1-2.3,1.5
			c-1.6,1.4-1.6,1.3-1.8,2.1c0.8-0.5,1.8-0.3,2.5-1c0-0.1,0.2-0.1,0.2-0.1c0.5,0.2,0.8-0.1,1.2-0.3c1.2-0.7,2.5-1.3,3.7-2
			c0.2-0.1,0.5-0.2,0.8-0.3c0,1.1-0.4,1.5-1.1,1.6c0.1-0.2,0.1-0.4,0.2-0.6c-1.5,0.8-2.8,1.5-4.3,2.2
			C209.2,107.1,209.4,107.3,209.6,107.5L209.6,107.5z M177.2,190.3c0.9-0.6,1.7-1.1,2.5-1.6c2-1.3,3.9-2.6,5.9-3.8
			c0.9-0.6,1.8-1.1,2.5-1.9c0.9-1.1,1.9-1.1,2.9-0.4c1.3,1,2.9,1.2,4.5,1.8c-0.3-1-0.7-2-1.1-3c-0.3-0.7-0.6-1.3-0.8-2
			c-0.5-1.6-0.3-3.1-0.2-4.7c0.1-1.4,0.3-2.7,0.4-4.1c0.1-1.7-0.4-3.3-0.8-5c-0.2-0.7-0.4-1.3-0.5-2c-0.2-0.7-0.7-1.2-1.3-1.6
			c-0.4-0.3-0.4-0.6-0.1-0.9c0.4-0.3,1.2-0.3,1.5,0.1c0.5,0.7,1.1,1.3,1.3,2.2c0.2,1,0.5,1.9,0.8,2.8c0.6,2.2,0.8,4.4,0.5,6.6
			c-0.2,1.7-0.4,3.3-0.3,5c0.1,0.6,0.2,1.3,0.4,1.8c0.4,1.1,0.9,2.1,1.3,3.2c0.3,0.9,0.2,1-0.6,1.5c-0.1,0-0.1,0.1-0.2,0.3
			c0.4,0.1,0.8,0.3,1.2,0.4c0.3,0.1,0.6,0.1,0.8,0.1c0.7-0.8,1.1-0.9,1.8-0.6c2.8,1.1,5.8,1.8,8.7,2.4c0.8,0.2,1.7,0.3,2.5-0.2
			c0.9-0.6,1.9-0.8,2.9-0.6c1.1,0.2,2.2,0,3.3,0.5c0.2,0.1,0.5-0.1,0.7-0.1c0.3,0,0.7,0,0.9,0.2c0.3,0.4,0.6,0.4,1,0.5
			c0.9,0.3,1.7,0.3,2.6,0.3c2.3,0,4.6,0,6.9,0c0.8,0,1.6-0.1,2.4-0.2c0.1-0.6,0.2-1.1,0.2-1.7c0.1-1.1,0.2-2.3,0.2-3.4
			c0-1.5-0.1-3-0.2-4.6c-0.1-1.2,0-2.5-0.4-3.7c-0.3-0.9-0.8-1.6-1.8-1.8c-0.7-0.2-1.4-0.5-2-0.8c-0.5-0.2-0.8-1-0.7-1.5
			c0.1-0.5,0.4-0.8,1.1-0.9c0.3,0,0.5,0,0.9,0c-0.1,0.4-0.2,0.7-0.4,1.1c0.7,0.2,1.3,0.4,2,0.7c1.8,0.8,2.5,2.3,2.8,4.1
			c0.1,1.1,0,2.1,0.1,3.2c0.2,1.7,0.2,3.4,0.1,5c0,0.6-0.1,1.3-0.2,1.9c0,0.6,0.1,1.2,0.1,1.9c0.7,0.2,0.2,1.6,1.4,1.5
			c-0.1,0.6,0.2,1,0.6,1.3c0.9,0.8,1.8,1.7,2.7,2.6c0.6,0.6,1.2,1.2,2.2,1.2c0.2,0,0.4,0.2,0.6,0.3c-0.1,0.1-0.1,0.3-0.2,0.3
			c-0.9,0.7-1.8,0.7-2.7-0.2c-0.7-0.6-1.4-1.3-2.1-2c-0.6-0.5-1.2-1-1.8-1.5c0,0-0.1,0.1-0.1,0.1c0.2,0.6,0.4,1.1,0.6,1.6
			c-0.4,0.3-0.6,0.1-0.7-0.2c-0.3-0.6-0.5-1.2-0.8-1.8c-0.1-0.2-0.3-0.5-0.5-0.5c-1-0.2-2-0.4-3-0.4c-2,0.1-4,0.4-6,0.6
			c-1.6,0.2-3.1,0.3-4.7,0c-0.1,0-0.2,0-0.4,0c1.1,3.7,2.2,7.3,3.2,10.9c7.9-1.2,15.8-1,23.8,0c0-0.2,0.1-0.4,0.1-0.6
			c-0.1-0.6-0.2-1.2-0.2-1.8c-0.2-1.8-0.4-3.5-0.7-5.3c-0.3-1.8-0.7-3.5-1-5.3c-0.3-2-0.3-4-0.3-6c0-1.8-0.1-3.7-0.1-5.5
			c0-1.4-0.1-2.7-0.1-4.1c0-1.6,0-3.2-0.1-4.8c0-1-0.1-2-0.3-3c-0.5-2.1-1-4.2-1.2-6.4c-0.2-2.1-0.3-4.2,0-6.3c-2-1.5-4-3-6.4-3.7
			c-0.1,0.5-0.1,0.9-0.8,0.8c-0.1-0.2-0.3-0.5-0.3-0.7c-0.1-0.7-0.5-1-1-1.3c-0.5-0.3-1.1-0.5-1.6-0.8c-0.1-0.1-0.3,0-0.5,0
			c-0.3,0.1-0.7,0.3-0.7,0.5c-0.1,0.3,0.1,0.6,0.2,1c0,0.1,0.2,0.1,0.4,0.2c-0.3,0.1-0.4,0.2-0.6,0.3c1.3,1,2.8,1.6,4.2,2.3
			c0.7,0.4,1.4,0.5,2.1-0.1c0.2-0.2,0.5-0.2,0.7-0.3c0.2,0,0.4,0.1,0.6,0.2c-0.4,0.5-0.7,0.8-1.1,1.2c0.7,0.8,2.2,0.7,2.1,2.3
			c-1.2-0.1-2.2-0.9-3.4-1.3c-1.3,1.5-2.9,2.9-3.8,4.7c0.4-0.2,0.8-0.5,1.1-0.7c0.3-0.3,0.7-0.5,1-0.8c0.3-0.3,0.6-0.5,1.1-0.5
			c-0.5,0.6-1,1.1-1.6,1.5c-1.6,1.2-2.8,2.7-3.2,4.7c0,0.2-0.1,0.5-0.3,0.6c-0.7,0.2-0.7,0.8-0.9,1.2c-0.4,0.9-0.7,1.7-1.1,2.6
			c-0.1,0.3-0.3,0.5-0.8,0.4c-0.2-0.7,0-1.3,0.2-1.9c0.9-2.6,1.8-5.3,3.2-7.8c0.6-1,1.2-2,1.8-2.9c0.5-0.7,1.2-1.3,1.9-2
			c-1.7-0.9-3.4-1.9-5.2-2.8c-0.1,0.2-0.2,0.4-0.3,0.7c-0.6,1.9-1.8,3.4-3.5,4.3c-1.1,0.5-1.7,1.3-2.2,2.3c-0.1,0.2-0.2,0.4-0.3,0.6
			c-0.9,1.6-1.9,3.1-3.1,4.5c-0.9,1.1-1.9,2.1-3,2.9c-3.6,2.3-7.5,3.5-11.9,2.8c-1.9-0.3-3.6-1.1-5-2.4c-1.4-1.3-2.6-2.8-3.4-4.6
			c-0.7-1.5-1.1-3-1-4.7c0-0.4,0-0.8-0.1-1.1c-0.2-0.4-0.1-0.7,0-1c0.2-0.7,0.4-1.4,0.7-2.1c-0.4,0-0.6,0.2-0.9,0.3
			c-2.1,1.4-4.2,2.6-6.6,3.4c-0.4,0.1-0.6,0.4-0.8,0.8c-0.6,1.5-1.3,3-1.9,4.5c-0.2,0.6-0.5,1.2-0.6,1.8c-0.2,1.3-0.2,2.7-0.4,4.1
			c-0.2,1.5-0.4,3-0.7,4.4c-0.3,1.4-0.8,2.8-1.1,4.2c-0.6,2.2-1.5,4.3-2.5,6.4c-0.8,1.6-1.7,3.2-2.4,4.8c-0.2,0.5-0.6,0.9-1,1.3
			c-0.3,0.3-0.4,0.5-0.3,0.8C176.8,188.7,177,189.4,177.2,190.3z M255.1,205.8c-0.1,0.8-0.3,1.4-0.4,2.1c-0.1,0.5-0.4,0.9-0.8,0.9
			c-0.4,0-0.7-0.5-0.7-1c0.1-0.7,0.2-1.3,0.3-2.1c-1.3-0.2-2.7-0.5-4-0.3c-0.3,0.5,0,1.3-1,1.3c-0.1-0.5-0.1-1-0.2-1.4
			c-0.7-0.1-1.3-0.2-1.8-0.2c-1.5,0.1-2.9-0.4-4.2-1c-0.7-0.3-1.3-0.6-2-0.8c-0.4-0.1-0.8-0.2-1.2-0.3c0.6-0.7,1.1-0.9,1.8-0.7
			c0.3,0.1,0.7,0.2,1,0.3c1.5,0.4,3,0.9,4.6,1.3c0.5,0.1,1.1,0.3,1.7-0.2c-0.4,0-0.5,0-0.7,0c-0.5,0.1-1,0.3-1-0.5
			c0-0.1-0.3-0.2-0.4-0.3c-3-1-6.1-1.3-9.2-1.5c-2.9-0.1-5.7-0.1-8.6-0.1c-1.3,0-2.5,0.1-3.8,0.2c-0.8,0.1-1.5,0.2-2.3,0.4
			c0,0.9-0.2,1.6-1.1,1.8c0,0.2,0,0.4,0.1,0.7c-1-0.1-1.3-0.9-1.8-1.5c-0.5-0.6-1-1.3-1.3-2c-0.4-0.7-0.7-1.4-1-2.2
			c-0.5,0.1-1,0.2-1.5,0.4c-0.7,0.2-1.4,0.6-2.2,0.3c-0.2-0.1-0.4,0.1-0.6,0.2c-0.9,0.4-1.8,0.8-2.8,1.1c-3.4,1.1-6.9,1.7-10.3,2.3
			c-2.7,0.5-5.4,1.1-7.9,2.1c-3.3,1.2-6.5,2.3-9.8,3.4c-0.4,0.1-0.7,0.2-0.9,0.2c-0.4-0.3-0.6-0.6-0.9-0.7c-0.5-0.2-1.1-0.4-1.6-0.6
			c-1.3-0.3-2.6-0.6-3.9-0.9c-0.4-0.1-0.9-0.2-1.3-0.4c-1.7-0.5-3.4-1-5.1-1.5c-0.1,0-0.2,0-0.3,0c0.1,0.2,0.2,0.4,0.3,0.8
			c-0.5-0.1-0.8-0.1-1.1-0.2c-0.8-0.3-1.5-0.6-2.2-0.8c-2.3-0.6-4.6-1.2-6.9-1.8c-5.2-1.3-10.4-2.6-15.6-3.8
			c-0.6-0.2-1.2-0.2-1.9,0.1c-0.6,0.3-1.2,0.3-1.9,0.1c0-0.3,0-0.7,0-1c-0.1,0-0.1-0.1-0.2-0.1c-0.5-0.2-1.1-0.3-1.6-0.5
			c-0.4-0.2-0.8-0.1-1.2,0c-0.9,0.4-1.2,0.3-1.5-0.7c0-0.1,0-0.2,0-0.3c-0.1-0.3-0.3-0.3-0.7-0.2c0.1,0.2,0.2,0.3,0.2,0.4
			c0.2,0.6,0.1,0.8-0.3,1c-0.6,0.3-0.8,0.2-1.2-0.3c-0.5-0.8-1-1.7-1.5-2.5c-0.3,0-0.5,0-0.8-0.1c0-0.2-0.1-0.3,0-0.4
			c0.6-0.5,0.3-1,0-1.6c-0.3-0.5-0.5-1-0.7-1.4c-2-0.3-3.9,0.2-5.8,0.6c-2.7,0.6-5.5,1.2-8.2,1.7c-2.5,0.5-5.1,0.8-7.6,1.2
			c-3.5,0.6-7.1,1.4-10.6,2c-0.3,0.1-0.5,0.2-1,0.3c3.4,0.6,6.6,1.1,9.7,1.6c2.4,0.3,4.8,0.6,7.2,0.9c0.8,0.1,1.6,0.2,2.4,0.3
			c2.6,0.4,5.2,0.8,7.8,1.3c3.4,0.6,6.7,1.2,10.1,1.8c1.1,0.2,2.2,0.3,3.3,0.5c1,0.1,2.1,0.2,3.1,0.4c0.4,0.1,0.9,0.2,1.1,0.5
			c0.2,0.4,0.6,0.5,0.9,0.6c3.3,0.8,6.6,1.7,9.9,2.5c4.9,1.3,9.8,2.6,14.7,4.1c4.1,1.2,8.1,2.5,12.2,3.8c1.4,0.4,2.7,0.8,4,1.4
			c2.4,1.1,5.1,1.7,7.6,2.6c1.8,0.7,3.6,1.3,5.5,1.9c2.4,0.8,4.7,1.7,7.1,2.5c1.6,0.6,3.2,1.1,4.8,1.7c1.2,0.5,2.5,1,3.7,1.5
			c0.6,0.3,1.2,0.3,1.9,0.2c0.4-0.1,0.9-0.1,1.2,0.1c0.3,0.2,0.5,0.1,0.8,0c2.2-0.9,4.4-1.7,6.3-3.1c4.4-3,9.3-5.1,14.1-7.2
			c3-1.3,6-2.6,9.1-3.8c5.7-2.2,11.3-4.5,17.2-6c0.2-0.1,0.4-0.2,0.6-0.3c0-0.1,0-0.1,0-0.2C259.6,206.3,257.4,206,255.1,205.8z
			 M197.6,150.2c-0.2,0.4-0.4,0.8-0.6,1.2c-0.5,0.9-0.3,1.8-0.4,2.7c-0.1,1.5,0,3,0.6,4.4c0.9,2.1,2.1,4.2,4.2,5.4
			c0.7,0.4,1.4,0.9,2.1,1.1c2,0.7,4.2,1,6.3,0.7c2.9-0.4,5.4-1.7,7.3-4c1.1-1.4,2.1-2.8,3.1-4.2c0.5-0.7,0.8-1.4,1.3-2.1
			c-1.1,0-2.1,0.1-3,0c-1-0.1-2-0.3-2.9-0.5c0,0.1,0,0.2,0,0.2c0,0.3,0.4,0.8-0.1,1c-0.4,0.2-0.8,0-1.1-0.3
			c-0.2-0.2-0.4-0.4-0.6-0.6c-0.1-0.1-0.3-0.2-0.5-0.4c0,0.3,0.1,0.6-0.1,0.7c-0.3,0.3-0.4-0.1-0.6-0.2c-0.6-0.4-0.8-0.4-1.2,0.3
			c-0.2,0.3-0.4,0.4-0.8,0.3c0.2-1.1,0.9-1.9,2.2-2.1c-0.2-0.5-0.4-1-0.7-1.4c-1.2-1.7-1.7-3.6-1.7-5.7c0-0.6,0-1.2-0.1-1.8
			c-0.1-0.3-0.3-0.7-0.5-0.9c-1.3-1.1-1.9-2.5-2.4-4c-0.4-1.2-0.3-2.4-0.2-3.6c0-0.1,0-0.2,0.1-0.3c0.2,0.2,0.3,0.4,0.5,0.7
			c0.1,0,0.1,0,0.2-0.1c-0.1-0.7-0.4-1.4-0.4-2.1c0-0.7,0.3-1.5,0.4-2.3c-0.3,0.3-0.6,0.5-0.8,0.7c-1.1,1.2-2.3,2.4-3.3,3.7
			c-0.4,0.4-0.8,0.8-1.3,0.9c-0.7,0.1-1.2,0.9-2.1,0.6c-0.2-0.1-0.6,0.4-0.9,0.7c0.2,0.2,0.4,0.2,0.5,0.3c0.5,1.2,1.6,2,2.1,3.3
			c0.6,1.5,1.3,2.9,1.9,4.4c0.6,1.6,1,3.3,1,5c0,0.8,0,1.5-0.9,1.8c0,0,0,0.1,0,0.2c1.1,0.5,2.3,0.2,3.4,0.7c0,0.4-0.3,0.4-0.6,0.4
			c-1,0-2,0-3-0.1c-1.6-0.2-3.2-0.6-4.8-0.9c-0.3-0.1-0.6-0.2-1-0.3c0-0.1,0-0.2,0-0.2c0.8-0.4,1.6,0.1,2.4,0c0.8,0,1.7,0.1,2.6,0.2
			c-0.1-2-1-3.6-1.6-5.4c0.2,0,0.4,0.1,0.6,0.1c-0.2-0.6-0.3-1.1-0.5-1.7c-0.9,0.4,0.2,0.9-0.2,1.3c-0.2-0.3-0.4-0.6-0.7-0.9
			c-1.2,0.8-2.4,1.6-3.6,2.4C197.3,150.1,197.4,150.1,197.6,150.2z M194.9,193.8c0.6-0.9,1.3-1.1,1.9-0.7c0.8,0.6,1.8,0.9,2.8,1.1
			c0.6,0.1,1.1,0.2,1.7-0.1c0.8-0.4,1.8-0.7,2.2-1.7c0.1-0.2,0.6-0.4,1-0.4c0.3,0,0.7,0.2,0.6,0.7c0,0.6,0.4,0.8,0.9,1
			c1.2,0.4,2.5,0.8,3.7,1.2c1,0.3,2.1,0.4,3.2,0.7c1.4,0.4,2.8,0.6,4.2,0.7c0.6,0,1.1,0.1,1.9,0.2c-0.7-2.4-1.5-4.7-2.2-6.9
			c-0.2,0-0.5-0.1-0.7-0.1c-2.2,0.1-4.2-0.3-6.3-0.7c-1-0.2-2.1-0.4-3.1,0.1c-0.1,0-0.2,0.1-0.3,0.1c-0.4,0-0.6-0.1-0.6-0.6
			c0-0.1,0-0.3,0-0.4c-2.1-0.6-4-1.1-6-1.6c-0.4-0.1-0.8-0.1-1.2,0c-0.8,0.2-1.6,0.2-2.4-0.1c-1.1-0.4-2.3-0.8-3.4-1.2
			c-0.9-0.3-1.7-0.7-2.5-1.1c-0.4-0.3-0.7-0.2-1.1,0.1c-0.5,0.4-1.1,0.8-1.7,1.1c-1.1,0.7-2.3,1.3-3.4,2.1c-1.8,1.2-3.6,2.4-5.5,3.7
			c0.3,0.8-0.6,0.7-0.9,1.2c0.6,2,1.3,4.1,2,6.2c0.6-0.3,1-0.4,1.5-0.7c0.4-0.2,1-0.2,1.4-0.7c-0.5-0.5-1.2,0-1.9-0.7
			c0.5,0,0.8-0.1,1.1-0.1c0.2,0,0.5-0.1,0.6-0.2c0.5-0.7,1.2-0.9,1.9-1c0.8-0.1,1.6-0.2,2.4-0.2c2,0,3.9,0.2,5.9-0.2
			c0.6-0.1,1.2-0.2,1.8-0.2c0.2,0,0.3,0.1,0.5,0.1c-0.1,0.3-0.2,0.5-0.3,0.8c0.6-0.1,1-0.3,1.6-0.4
			C195.6,194.3,195.3,194.1,194.9,193.8z M188.4,151.9c0.9-0.6,1.9-1.1,2.8-1.7c0.9-0.5,1.8-1.1,2.7-1.7c0.9-0.6,1.8-1.2,2.7-1.8
			c0.9-0.6,1.7-1.2,2.6-1.9c0.1,0.3,0.2,0.5,0.3,0.7c0.4-0.3,0.8-0.5,1.1-0.7c-0.5-1.4-1.1-2.8-2.1-3.9c-1.3,0.5-2.5,1.1-3.8,1.6
			c-0.5,0.2-1,0.3-1.5,0.4c-0.2,0-0.4-0.1-0.5-0.1c0.7-0.3,1.3-0.6,1.7-1.2c-1.1,0.1-2.2,0.2-3.5,0.3c0.6,0.5,1,0.9,1.5,1.3
			c0,0.1-0.1,0.1-0.1,0.2c-0.2,0-0.4,0-0.6,0c-0.4-0.2-0.7-0.5-1.1-0.8c-1-0.9-2.4-1.4-3.2-2.7c-0.1,0.3-0.1,0.5-0.2,0.7
			c-0.6,1-0.8,2.3-1.3,3.4c-0.4,1.1-0.3,2.2,0.1,3.3c0.3,0.7,0.7,1.3,1.5,1.5c1.1,0.3,2.2,0.4,3.4,0.3c0.3,0,0.6-0.1,0.9-0.1
			c0,0.1,0,0.2,0,0.3c-0.8,0.4-1.7,0.4-2.5,0.5c-0.9,0.1-1.8-0.1-2.7-0.6C187,149.9,187.5,150.8,188.4,151.9z M167,201.4
			c1.9,0.5,3.8,1,5.7,1.5c2.3,0.5,4.5,1,6.8,1.5c0.5,0.1,0.5,0.2,0.3,0.9c-0.6-0.4-14.7-3.7-15.6-3.6c0.9,0.3,1.6,0.6,2.3,0.8
			c2.7,0.8,5.4,1.4,8.2,2c0.3,0.1,0.6,0.1,0.7,0.3c0.2,0.4,0.6,0.4,1,0.5c0.5,0.2,1,0.3,1.6,0.4c1,0.3,2,0.7,3,0.8
			c0.6,0.1,1,0.3,1.2,0.8c1.1-0.4,2-0.7,3-1.1c0.4-0.1,0.6-0.3,0.6-0.7c0,0,0-0.1-0.1-0.2c-0.3,0-0.5-0.1-0.9-0.2
			c0.3-0.2,0.4-0.4,0.6-0.5c0.5-0.2,1-0.5,1.6-0.6c0.5-0.1,0.7-0.3,0.9-0.7c0.2-0.4,0.4-0.6,0.8-0.6c0.3,0.5,0.6,0.9,0.9,1.4
			c-0.3,0-0.6,0-0.8,0.1c-0.6,0-0.7,0.2-0.4,0.9c1.8-0.7,3.6-1.3,5.5-2c-0.5-0.4-0.9-0.8-1.3-1.1c1.2-1.1,2.7-1.2,4.2-0.9
			c0.6,0.1,1.1,0.4,1.7,0.1c0.1,0,0.2,0.1,0.4,0.2c-0.4,0.2-0.7,0.4-0.9,0.5c0,0.1,0,0.1,0.1,0.2c0.7-0.1,1.5-0.2,2.2-0.4
			c3-0.6,6-1,9-1.9c1.1-0.3,2.1-0.8,3.1-1.3c-1.2-0.2-2.3-0.3-3.4-0.4c-0.6,0-1.2,0.2-1.8,0.1c-2.2-0.4-4.3-0.1-6.4,0.3
			c-3.1,0.6-6.1,1.5-9.2,2.3c-2.5,0.7-5,1.5-7.5,2.1c-0.5,0.1-1.1,0.5-1.5,0.8c-0.2,0.2-0.2,0.7-0.2,1.1c0,0.3-0.1,0.6-0.1,1
			c-0.3,0.1-0.7,0.3-1.2,0.4c-0.1-0.7-0.1-1.3-0.2-1.9C176.3,203.3,171.7,201.9,167,201.4z M172.5,106.5c-0.1,3.3,0.4,6.3,1.9,9.3
			c0.7-1.1,1.2-0.1,1.9,0.2c0-0.4,0-0.7,0-1c0-0.7,0-1.5,0-2.2c0-0.3,0-0.6-0.1-0.9c-0.5-1.7-0.6-3.5-0.7-5.3
			c-0.1-1.2,0-2.5,0.6-3.6c0.2-0.4,0.6-0.8,1.1-0.8c0.1,0,0.2,0,0.3,0.1c0,0.2,0,0.5,0,0.8c-0.3-0.1-0.7-0.2-0.9,0.2
			c-0.2,0.5-0.4,0.9-0.5,1.4c-0.3,1.5,0,3,0.1,4.5c0,0.2,0.1,0.4,0.3,0.7c0.1-0.5,0.2-0.8,0.2-1.1c0-1.3,0.3-2.6,0.7-3.8
			c0.2-0.6,0.4-1.2,0.6-1.7c0.2-0.5,0.1-1-0.1-1.5c-0.5-1-0.7-2.1-0.7-3.2c0-0.9,0-1.7,0.1-2.6c0.1-0.7,0.3-1.5,0.5-2.3
			c-0.5,0-0.8,0-1.2,0.1c-1.5,0.3-2.6,1.2-3.6,2.3c-0.4,0.4-0.5,0.9-0.7,1.4c-0.2,0.9,0.1,1.8,0.2,2.6c0.2,0.1,0.4,0.1,0.7,0.2
			c-0.1,0.5-0.1,1-0.2,1.5c-0.4,1.7-0.2,3.4,0.7,4.9C173.4,107.1,173.4,107.1,172.5,106.5z M193.7,197.5c0-0.1,0-0.1-0.1-0.2
			c-1.1-0.1-2.2-0.1-3.2-0.2c-0.8-0.1-1.6,0-2.3,0.3c-2.4,0.9-4.8,1.8-7.3,2.7c-0.1,0-0.2,0.1-0.3,0.2c0.1,1.1,1.3,1,1.7,1.7
			c2.2-0.1,4.2-0.5,6.2-1.1c3.3-1.1,6.7-1.9,10-2.7c1.5-0.4,3-0.7,4.7-1.1c-0.9-0.2-1.7-0.4-2.5-0.4c-0.8,0.1-1.7,0.2-2.2,0.7
			c-0.5,0.4-0.9,0.6-1.4,0.5c-0.7-0.1-1.3,0-1.9,0.2c-1.9,0.5-3.9,1.1-5.8,1.6c-1.5,0.3-2.9,1-4.3,1.8c-0.2,0.1-0.4,0.1-0.8,0.2
			c0.5-0.9,0.8-1.1,1.6-1.4c0.6-0.2,1.3-0.4,1.9-0.6c1.5-0.5,3-1.1,4.5-1.6C192.8,197.8,193.3,197.6,193.7,197.5z M249.4,196.6
			c0.1-0.4,0.3-0.9,0.1-1.3c-0.4-1.2,0.1-2.2,0.2-3.4c0.2-2.4,0.4-4.7,1.2-7.1c-1.2-0.1-2.4,0.1-3.2-1.4c0.7,0,1.3,0,1.9,0
			c0-0.1,0-0.2,0-0.2c-1-0.3-1.9-0.4-3-0.3c0,0.3,0,0.7,0.1,1c0.2,1,0.3,2.1,0.5,3.1c0.2,1.8,0.4,3.5,0.7,5.3
			C248.2,193.8,248.5,195.2,249.4,196.6z M128,217.7c0,0.1,0,0.1,0,0.2c1.4,0.3,2.7,0.8,4.1,1c3.7,0.7,7.5,1.3,11.2,1.9
			c2.4,0.4,4.9,0.9,7.3,1.5c2.4,0.5,4.9,1.2,7.3,1.7c0.1,0,0.3,0,0.5,0c-1.5-0.7-3.1-1.3-4.7-1.7c-3-0.8-5.9-1.7-8.9-2.2
			c-2-0.3-4-0.8-6.1-1.1c-2.4-0.4-4.7-0.6-7.1-0.9C130.4,218,129.2,217.9,128,217.7z M145.8,196.7c-1-0.2-2-0.4-3-0.7
			c-2.5-0.6-5-1.2-7.5-1.7c-1-0.2-2-0.3-3,0c0.1,1.3,1.1,1.2,1.9,1.4c0.9-0.8,1.4-1.1,1.9-0.9c0.4,0.1,0.7,0.4,1,0.6
			c-0.2,0.2-0.4,0.4-0.6,0.6c1.2,0.6,5.9,1.6,7.2,1.5c-0.4-0.2-0.7-0.4-1-0.5c0.5-0.1,0.9,0.1,1.3,0.2c1.8,0.4,3.5,0.8,5.3,1.2
			c1.4,0.4,2.9,0.8,4.3,1.2c0.4,0.1,0.9,0.2,1.3-0.2c-1.2-0.7-2.4-0.8-3.7-1.1c-1.7-0.3-3.3-0.7-5-0.9
			C145.8,197.4,145.7,197.1,145.8,196.7z M203.8,84.2c0.4-0.5,0.8-0.4,1.3-0.4c1.8,0.2,3.7,0.4,5.5,0.3c1.1-0.1,2.2,0,3.3-0.1
			c0.2,0,0.3,0,0.6,0c-1.8-1.5-8.5-2.9-12.1-2.5c0.8,0.4,1.5,0.5,2.2,0.5c0.4,0,0.8,0,0.9,0.6c-0.7,0.2-1.4,0.1-2.1-0.1
			c-0.7-0.2-1.5-0.2-2.4,0C202,83.1,202.8,83.6,203.8,84.2z M254.6,184.8c-0.2,0-0.3,0-0.3,0.1c-0.1,0.1-0.2,0.3-0.2,0.4
			c-0.4,2.3-1,4.5-1.2,6.9c0.2-0.3,0.4-0.5,0.6-0.8c0.1,0.2,0.1,0.2,0.1,0.3c-0.1,1.7-0.3,3.5-0.4,5.2c-0.1,1.9-0.3,3.9,0.1,5.8
			c0.1,0.5-0.1,0.8-0.7,0.8c-0.1-0.2-0.2-0.4-0.3-0.6c0,0-0.1,0-0.1,0c0,0.3,0,0.7,0,1.1c0.5,0,0.9,0.1,1.3,0.1
			c0.2-1.8,0.6-3.5,0.7-5.3c0.2-2,0.2-4,0.3-6c0.1-1.8,0.2-3.5,0.3-5.3c0-0.8,0.4-1.7-0.5-2.3C254.5,185.2,254.5,185,254.6,184.8z
			 M211.7,245.7c-1.8-1.1-3.5-2.2-5.3-3.4c-0.1,2.4-0.3,4.6-0.3,6.8c0.4-0.3,0.8-0.5,1.2-0.8c0.5-0.3,1-0.4,1.4,0.1
			c0.1-0.5,0.2-1,0.3-1.4c0.1-0.4,0.4-0.8,0.8-0.7C210.6,246.6,211,246.1,211.7,245.7z M214.7,85.9c0,0.1,0,0.2,0,0.3
			c0.7,0.4,1.3,0.7,2,1.1c1.1,0.7,2.2,1.5,3.3,2.2c0.9,0.6,1.9,1.2,2.8,1.8c0.4,0.2,0.8,0.4,1.2,0c-0.1-0.1-0.1-0.3-0.2-0.4
			c-1-1.3-2.2-2.4-3.5-3.4c-0.8-0.6-1.7-1.3-2.5-1.9c-0.2-0.1-0.4-0.3-0.6-0.2C216.4,85.6,215.5,85.8,214.7,85.9z M231.6,232.7
			c0,0.1,0,0.1,0.1,0.2c0.3-0.1,0.6-0.2,0.9-0.4c2.4-1.1,4.8-2.2,7.3-3.3c2.4-1,4.6-2.5,6.6-4.2c0.2-0.2,0.3-0.4,0.5-0.6
			C241.6,226.8,236.5,229.6,231.6,232.7z M211.2,196.9c0,0,0-0.1,0-0.1c-1.4-0.4-2.9-0.8-4.3-1.3c-0.9-0.3-1.7-0.6-2.6-1
			c-0.7-0.3-1.2-0.4-1.9-0.1c-0.6,0.2-1.1,0.5-1.7,0.7c-1.1,0.3-2.2,0.6-3.4,0c-0.6-0.3-1.2-0.1-1.9,0c0.9,0.5,4,0.8,5.6,0.5
			c0.3,0.2,0.6,0.5,0.9,0.5c1,0.2,1.9,0.3,2.9,0.4c0.9,0.1,1.8,0,2.8,0.1C208.9,196.8,210,196.9,211.2,196.9z M169.5,158.1
			c-0.1,0.2-0.2,0.2-0.2,0.2c0.7,2.7,0.8,5.6,1.6,8.3c0.4,1.4,0.5,2.8,0.8,4.2c0.5,2.6,1.2,5.1,1.7,7.7c0.5,2.4,1,4.9,1.8,7.2
			c0.1,0.1,0.2,0.3,0.3,0.5c0.1-0.2,0.1-0.2,0.1-0.3c-0.4-1.7-0.8-3.4-1.2-5.1c-0.4-1.6-0.9-3.2-1.2-4.9c-0.3-1.6-0.4-3.3-0.6-4.9
			c-0.3-1.5-0.7-3-1-4.6c-0.2-0.8-0.4-1.6-0.6-2.4c-0.4-1.7-0.8-3.5-1.2-5.2C169.7,158.7,169.6,158.5,169.5,158.1z M118.5,192
			c-1.8-0.3-25.4,3.6-27,4.5c0.6,0.2,1.1,0.2,1.6,0.1c3.7-0.7,7.5-1.5,11.2-2.2c3.1-0.6,6.2-1,9.3-1.5
			C115.2,192.6,116.8,192.3,118.5,192z M214.8,145.8c0.3,1,0.8,1.9,1.8,2.6c0-0.3,0.1-0.5,0-0.7c-0.1-0.5-0.2-0.9-0.3-1.4
			c-0.6-2.3-1.3-4.6-1.9-6.9c0-0.1-0.1-0.2-0.1-0.2c-0.6,0-0.4-0.5-0.4-0.7c0-0.6,0-1.2,0-1.8c-0.2,0.1-0.3,0.1-0.3,0.1
			c-0.2,1.5-0.5,3-0.7,4.5c-0.1,0.5,0.3,0.9,0.8,1.1c0.5-0.8-0.3-1.6,0.2-2.4c0.4,1.1,0.2,2.2,0.4,3.3c0.1,0.7,0.3,1.2,0.8,1.6
			c0.3,0.2,0.6,0.5,0.9,0.7C215.6,146.4,215.2,145.7,214.8,145.8z M209.6,258.1c0.5-0.7,0.9-1.2,1.3-1.7c0.8-0.7,1.6-1.4,2.4-2.1
			c0.3-0.2,0.7-0.4,0.7-0.9c-0.3,0-0.6,0-0.8,0c-0.5,0.1-1.1,0.2-1.6,0.3c-0.4,0.1-0.8,0.1-0.9-0.5c1.1-0.7,2.2-1.5,3.3-2.2
			c-0.1,0-0.2-0.1-0.2-0.1c-1.2,0.5-2.5,1-3.7,1.6c-0.2,0.1-0.4,0.4-0.4,0.7C209.6,254.8,209.6,256.4,209.6,258.1z M238.4,128.5
			c0.1,0,0.1,0,0.2,0c0-0.3,0.1-0.7,0-1c-0.4-1.9-1.3-3.5-2.2-5.2c-1-2-2.4-3.7-3.8-5.5c-0.1-0.1-0.3-0.2-0.4-0.4
			c-0.2,0.4-0.3,0.7,0,1c0.3,0.3,0.6,0.7,0.8,1.1c0.7,1.2,1.4,2.4,2.1,3.6c0.9,1.7,1.7,3.4,2.6,5.1
			C237.8,127.6,238.1,128.1,238.4,128.5z M261.7,178.4c0.6-0.4,0.6-0.8,0.6-1.2c0.1-2.4,0.1-4.7-0.1-7.1c-0.2-2,0-4,0.3-6
			c0.1-1.1,0.2-2.1,0.3-3.2c-1.1-0.2-1.1-0.1-1.1,0.8c0.1,1.1,0.2,2.1,0.2,3.2c0,1.3-0.1,2.5-0.2,3.8c-0.1,2.7-0.1,5.4-0.1,8.2
			C261.6,177.3,261.7,177.7,261.7,178.4z M211.1,250.6c1.8-0.7,6.7-3.9,7.1-4.7c-2.6,0.4-4.8,1.6-7.2,2.6
			C211,249.2,211,249.8,211.1,250.6z M188,197c-0.3-0.1-0.4-0.2-0.6-0.2c-1.4-0.1-2.9-0.4-4.3,0.3c-0.4,0.2-0.8,0.3-1.2,0.4
			c-0.7,0.3-1.4,0.7-2.1,1c0.2,0.5,0.3,0.9,0.5,1.3C182.9,198.9,185.4,197.9,188,197z M238.6,126c0.1-0.3,0.1-0.4,0.1-0.5
			c-0.1-1.6-0.7-3-1.4-4.4c-1.2-2.1-3-3.7-4.8-5.3c-0.1,0-0.1-0.1-0.2-0.1C234.9,118.8,237,122.1,238.6,126z M247.8,194.7
			c-0.1,0-0.1,0-0.2,0c-0.1,2.2-0.2,4.3-0.3,6.5c0.3,0.1,0.6,0.2,1,0.3c0.2-0.6,0.3-1.1,0.5-1.6c0.4-1.1,0.3-2.1-0.2-3.1
			C248.3,196.2,248.1,195.5,247.8,194.7z M231.5,108.3c-0.1,0.4-0.2,0.9-0.4,1.1c-0.3,0.3-0.4,0.6-0.4,1c-0.1,0.5-0.2,1.1-0.2,1.6
			c-0.1,1.1,0.2,2.1,1.4,2.6C232.5,112.4,232,110.4,231.5,108.3z M230.1,109.9c1.2-2.8,0.8-5.8-1-7.6
			C228.9,105,229.8,107.4,230.1,109.9z M226.1,135.2c0,0.4,0,0.7,0.1,0.9c0.7,1.8,1.4,3.6,2.1,5.4c0.1-0.1,0.2-0.2,0.2-0.2
			c0.2-1.4,0.6-2.8-0.5-4.1c-0.2-0.2-0.3-0.5-0.5-0.7C227.2,136.2,226.9,135.6,226.1,135.2z M191.2,196.4c0,0.1,0,0.1,0,0.2
			c0.1,0,0.3,0,0.4,0.1c0.8,0,1.6-0.1,2.4,0.1c1.3,0.2,2.4,0,3.8-0.4c-0.4-0.1-0.6-0.2-0.8-0.3c-0.8-0.2-1.5-0.4-2.3-0.6
			c-0.1,0-0.2-0.1-0.3,0C193.4,195.7,192.2,195.9,191.2,196.4z M212,146.9c0,0-0.1,0-0.1,0c0,0.4,0,0.9,0,1.3
			c0.1,1.2,0.2,2.5,0.5,3.7c0.2,0.8,0.7,1.3,1.6,1.5C213.3,151.1,212.7,149,212,146.9z M144,222c0,0.1-0.1,0.1-0.1,0.2
			c0.3,0.1,0.5,0.2,0.8,0.3c3.5,0.8,7,1.6,10.5,2.4c0.6,0.1,1.1,0.2,1.7,0.3c0-0.1,0-0.2,0-0.2C152.6,223.8,148.3,222.7,144,222z
			 M239.1,134.9c0,4.5,0.1,5.3,0.7,6.1C240.6,139.7,240.2,136.7,239.1,134.9z M187.9,85.1c-2,0-5.9,1.8-6,3.5c1.5-1.3,3.2-2.1,5-2.7
			C187.3,85.8,187.7,85.6,187.9,85.1z M180.7,91.9c0,0.1,0.1,0.1,0.1,0.2c0.2-0.1,0.3-0.3,0.5-0.4c0.8-0.9,1.7-1.8,2.5-2.7
			c0.5-0.5,0.9-1,1.3-1.8C182.8,88,181.5,89.7,180.7,91.9z M262,182.7c0.3,0.1,0.5,0.2,0.7,0.2c0.8,0.1,0.9-0.1,0.9-0.9
			c0-0.3,0.1-0.7,0.1-1c0-0.2,0.1-0.4,0.2-0.8c-0.8,0.3-1.4,0.5-2-0.4C262,180.9,262,181.7,262,182.7z M214.4,152.2
			c0.6-0.9,0.7-2.1,0.3-2.5c-0.5-0.6-1.1-1.2-1.7-1.8C213.3,149.3,213.6,150.7,214.4,152.2z M199.9,82.8c0.2,1.4,2.4,2.5,3.8,2.1
			C202.4,84.1,201.2,83.3,199.9,82.8z M218.8,188.9c1.1,0.8,3.5,0.9,5.2,0.3C222.3,188.5,220.5,189,218.8,188.9z M219,196.9
			c-0.3,0.2-0.6,0.3-0.7,0.4c-0.1,0.3-0.3,0.8-0.2,1.1c0.3,0.8,1,1.3,1.6,2c0.1,0,0.1-0.1,0.2-0.1
			C219.6,199.2,219.3,198.2,219,196.9z M226.4,149.8c-0.5,0.5-1.1,1-1.6,1.4c-0.8,0.6-0.8,0.8-0.4,1.8
			C225.3,152.1,226.2,151.1,226.4,149.8z M203.2,134.4c0,0.1,0.1,0.1,0.1,0.2c0.3-0.2,0.7-0.6,1-0.6c0.6,0,0.8-0.3,1.1-0.6
			c0.5-0.5,0.9-1,1.3-1.5c0.2-0.2,0.2-0.5,0.3-0.7c0,0-0.1-0.1-0.1-0.1C205.6,132.2,204.4,133.3,203.2,134.4z M179.9,92.1
			c0.5-1.4,0.9-2.7,1.4-4.1c-0.6,0.7-1,1.5-1.4,2.3c-0.2,0.4-0.3,0.9-0.4,1.3C179.3,92,179.6,92,179.9,92.1z M236.8,142.9
			c-0.1,0-0.2,0-0.2,0c-0.1,0.3-0.2,0.5-0.2,0.8c-0.1,0.3-0.1,0.7-0.1,1c-0.1,0.8-0.2,0.8,0.8,1.3c0.1-0.2,0.3-0.4,0.3-0.5
			C237.1,144.6,236.9,143.7,236.8,142.9z M243.5,228.9c0.6-0.2,1.1-0.5,1.7-0.5c1.1-0.1,2-0.8,2.9-1.4
			C246.5,227.5,244.9,227.8,243.5,228.9z M204.1,249.3c0.1,0,0.1,0,0.2,0c0.2-1.4,0.3-2.8,0.3-4.3c-0.1,0-0.2-0.1-0.3-0.1
			c-0.1,0-0.2,0-0.3,0.1C204,246.4,204.1,247.9,204.1,249.3z M208.9,139.5c0,1.3,0.6,2.2,1.3,3.2c0.4-0.4,0.4-0.8,0.2-1.1
			C209.9,140.9,209.4,140.2,208.9,139.5z M192,195.6c-1.9,0.1-3.6,0.3-5.4,0.4C188.4,196.4,190.2,196.7,192,195.6z M196.9,202.4
			c-1.3-0.7-2.4-0.8-3-0.2c0.3,0.1,0.5,0.2,0.8,0.4c-0.1,0.2-0.2,0.3-0.3,0.5C195.2,202.8,196,202.6,196.9,202.4z M210.7,145.7
			c0.1,1.4,0,2.9,0.6,4.2c0.1-1.1,0-2.3,0.1-3.4C211.4,146.1,211.3,145.8,210.7,145.7z M176.9,119.6c0.4-0.5,0.8-0.9,1.3-1.5
			c-0.3,0-0.6,0.1-0.7,0.1c-0.2-0.1-0.4-0.3-0.6-0.4c-0.3-0.1-0.6,0-1.1-0.1C176.1,118.5,176.5,119,176.9,119.6z M213.5,134.5
			c-1,1.3-1.5,3.4-1.2,4.8C212.7,137.6,213.1,136.1,213.5,134.5z M178.8,91.1c0.7-1.2,1.4-2.5,2.1-3.7
			C179.6,88.4,178.8,89.5,178.8,91.1z M256.6,184.9c0.5,0.5,2.5,1,3.4,0.9c-0.1-0.5-0.1-0.6-0.5-0.6
			C258.6,185.1,257.6,185,256.6,184.9z M222.3,153.2c-0.9,0.4-1.7,0.7-2.7,1.1c1,0.2,1.8,0.2,2.7-0.2
			C222.3,153.8,222.3,153.5,222.3,153.2z M230.4,103.1c0.1-1-0.1-1.9-0.6-2.8C229.2,101.2,229.3,102,230.4,103.1z M212.9,246.7
			c0-0.1,0-0.1-0.1-0.2c-0.8,0.2-1.7,0.4-2.5,0.6c-0.1,0-0.2,0.3-0.3,0.6C211.3,247.9,211.9,247,212.9,246.7z M257,220.3
			c0.1-0.6,0.1-1.1,0.2-1.8c-0.5,0.2-0.9,0.4-1.3,0.5c0.1,0.5,0.3,0.8,0.4,1.2C256.5,220.2,256.7,220.2,257,220.3z M199.9,137.8
			c0.1,0.1,0.1,0.2,0.2,0.3c1-0.7,2.3-1.1,2.9-2.5C202,136.3,201,137,199.9,137.8z M229.9,118.8c0.3-1.3,0.1-1.7-1.1-2
			C229,117.5,229.1,118.2,229.9,118.8z M210,86.1c-1,0.1-1.8-0.3-2.7-0.1C208.6,86.9,209,87.1,210,86.1z M221.9,91.8
			c0-0.1,0.1-0.1,0.1-0.2c-1-0.7-2-1.3-3-2c0,0.1-0.1,0.1-0.1,0.2C219.9,90.5,220.6,91.5,221.9,91.8z M213,198.3
			c0.9-0.3,1.6-0.5,2.2-0.7c0-0.1,0-0.1,0-0.2c-0.6-0.1-1.3-0.2-2.2-0.3C213.7,197.6,213.4,197.9,213,198.3z M243.2,155.6
			c0.1-0.8,0.6-1.7-0.2-2.6C242.9,154,242.8,154.8,243.2,155.6z M161.3,200.2c0,0.1,0,0.2,0,0.2c1.4,0.2,2.7,0.5,4.1,0.7
			c0-0.1,0-0.1,0-0.2C164,200.7,162.7,200.4,161.3,200.2z M256.6,244.7c-0.1,0-0.2,0-0.2,0c-0.2,1.1-0.2,2.3,0,3.5
			C256.5,247,256.5,245.9,256.6,244.7z M230.9,234.2c1-0.1,1.9-0.6,2.7-1.2C232.6,233.2,231.7,233.6,230.9,234.2z M264,179.3
			c0.3-0.9,0.3-1.9,0-2.8C264,177.3,264,178.2,264,179.3z M235.3,141.1c0-0.4,0.3-0.8,0-1.2c-0.5,0.2-0.7,0.6-0.8,1.1
			C234.8,141.1,235.1,141.1,235.3,141.1z M234.4,152.8c-0.8,0.3-1.9,1.5-2,2.3C233.1,154.3,233.8,153.5,234.4,152.8z M186,84.5
			c0,0.1,0,0.1,0,0.2c0.7-0.1,1.4-0.2,2.1-0.3c0-0.1,0-0.2,0-0.2C187.3,83.8,186.7,84.3,186,84.5z M239,141
			c-0.1,0.7-0.1,1.3-0.2,1.9C239.6,141.8,239.6,141.8,239,141z M188.6,85.4c0.8-0.1,1.6-0.3,2.4-0.4
			C190.2,84.9,189.3,84.6,188.6,85.4z M214.9,186.9c-0.9-0.4-1.8-0.5-2.7-0.2C213.1,186.8,214,186.8,214.9,186.9z M230.7,115
			c-0.3,0.7,0.1,1,0.5,1.4C231.6,115.7,231.6,115.7,230.7,115z M264.3,165.5c0.4-0.7,0.2-1.5,0.1-2.3
			C264.4,164,263.8,164.7,264.3,165.5z M186.3,149.6c0.2,1.4,0.5,1.9,1,1.9C187,150.8,186.6,150.2,186.3,149.6z M232.7,144.3
			c-0.5-0.7-1-0.8-1.7-0.7C231.3,144.4,232.2,143.8,232.7,144.3z M235.7,145.2c0-0.6,0.1-0.9,0.1-1.3c-0.4,0.2-0.7,0.3-1.1,0.5
			C235,144.6,235.2,144.8,235.7,145.2z M211.2,142.2c-0.5,1-0.5,1.1,0.3,1.8C211.4,143.3,211.3,142.8,211.2,142.2z M214.7,155.7
			c0.1,0,0.1-0.1,0.2-0.1c-0.1-0.4-0.2-0.7-0.4-1.1c-0.3,0.1-0.5,0.2-0.8,0.4C214.1,155.1,214.4,155.4,214.7,155.7z M209.5,139.5
			c0.1,0,0.1-0.1,0.2-0.1c-0.3-0.8-0.6-1.5-1-2.3C208.6,138,209.1,138.7,209.5,139.5z M229.5,114.6c0.2-0.8,0.2-0.8-0.5-1.2
			C228.8,114.1,228.8,114.1,229.5,114.6z M258.4,234.7c0,0,0.1,0,0.1,0c0-0.9,0-1.8,0-2.7c0,0-0.1,0-0.1,0
			C258.4,232.9,258.4,233.8,258.4,234.7z M259.9,184.3c0-0.1,0-0.1,0-0.2c-1,0-2.1,0-3.1,0C257.8,184.3,258.9,184.3,259.9,184.3z
			 M177.8,106.3c0,0.6-0.5,1.2-0.1,2C178.2,107.6,177.8,106.9,177.8,106.3z M261.2,185.1c-0.2,0.3-0.3,0.4-0.3,0.5
			c0,0.2,0.1,0.4,0.2,0.5c0.3,0.1,0.4-0.1,0.4-0.4C261.5,185.6,261.3,185.4,261.2,185.1z M262.1,184.2c0,0.1,0,0.1,0,0.2
			c0.7,0.3,0.9,0.3,1.7,0.1C263.1,184.4,262.6,184.3,262.1,184.2z M217.4,150c-0.3-0.2-0.6-0.5-1-0.8C216.5,150,216.5,150,217.4,150
			z M201.1,81.9c-0.5-0.4-0.9-0.4-1.4-0.2C200.1,82.1,200.5,82,201.1,81.9z M229.2,111.2c-0.1,0-0.1,0-0.2,0
			c0.1,0.5-0.2,1.1,0.5,1.7C229.4,112.2,229.3,111.7,229.2,111.2z M233.2,139.5c-0.2,0.6-0.1,1.1,0.4,1.6
			C233.5,140.5,233.3,140,233.2,139.5z M200.7,145.3c0.3,0.5,0.2,0.6,0,0.9c0,0,0,0.1,0.1,0.2c0.2-0.1,0.4-0.2,0.6-0.3
			C201.3,145.8,201.3,145.4,200.7,145.3z M225.8,110.4c0.2,0.5,0.6,0.7,1.3,1C226.7,110.7,226.2,110.6,225.8,110.4z M134.7,196.4
			c-0.1,0.5,0.1,0.7,0.5,0.7c0.1,0,0.2-0.2,0.2-0.2C135.4,196.4,135.1,196.5,134.7,196.4z M230.5,144.3c-0.1,0.5-0.2,0.7-0.3,1
			c0.3,0,0.5-0.1,0.8-0.1C230.8,144.9,230.7,144.7,230.5,144.3z M230.4,188.4c0,0.1,0,0.1,0,0.2c0.5,0.1,0.9,0.2,1.4,0.2
			c0-0.1,0-0.1,0-0.2C231.4,188.6,230.9,188.5,230.4,188.4z M233.9,143.9c0.1,0,0.2,0,0.2,0c-0.1-0.5-0.2-0.9-0.3-1.4
			c-0.1,0-0.1,0-0.2,0C233.8,142.9,233.8,143.4,233.9,143.9z M250.1,183.9c0.4,0.2,0.8,0.5,1.4,0
			C250.9,183.9,250.5,183.9,250.1,183.9z M182.9,86.4c0.4-0.2,0.8-0.4,1.2-0.6C183.6,85.6,183.1,85.8,182.9,86.4z M199.7,141.8
			c0.1,0,0.2-0.1,0.2-0.1c-0.2-0.4-0.4-0.8-0.6-1.2c-0.1,0-0.1,0.1-0.2,0.1C199.3,141,199.5,141.4,199.7,141.8z M131.2,204.4
			c0.4,0.3,0.7,0.5,1,0C131.9,204.4,131.6,204.4,131.2,204.4z M234.7,142.6c0.1,0.3,0.1,0.5,0.2,0.8
			C235.2,143,235.4,142.8,234.7,142.6z M232.1,142c0.1,0,0.2-0.1,0.2-0.1c-0.1-0.4-0.2-0.8-0.3-1.1c-0.1,0-0.2,0-0.2,0.1
			C231.9,141.3,232,141.7,232.1,142z M234.5,141.5c0.4,0.5,0.4,0.5,1,0.3C235.1,141.7,234.9,141.6,234.5,141.5z M140.1,198.2
			c-0.2,0-0.5,0-0.9,0C139.7,198.6,139.7,198.6,140.1,198.2z M207.3,114c-0.1-0.7-0.1-0.7-0.7-0.9C206.8,113.4,207,113.6,207.3,114z
			 M203.8,108.4c0.5,0.1,0.5,0.1,0.5-0.3C204.2,108.2,204,108.3,203.8,108.4z M213.8,143.9c0.1-0.1,0.1-0.2,0.2-0.2
			c-0.3-0.2-0.6-0.4-0.9-0.6c0,0.1-0.1,0.1-0.1,0.2C213.2,143.4,213.5,143.6,213.8,143.9z M133.4,205c0-0.1,0-0.1,0.1-0.2
			c-0.3-0.1-0.5-0.2-0.8-0.3c0,0.1,0,0.2-0.1,0.2C132.9,204.8,133.2,204.9,133.4,205z M247,191.6c0,0-0.1,0-0.1,0c0,0.3,0,0.5,0,0.8
			c0,0,0.1,0,0.1,0C247,192.1,247,191.8,247,191.6z M252.3,202.1c0,0,0.1,0,0.1,0c0-0.2,0-0.3,0.1-0.5c-0.1,0-0.1,0-0.2,0
			C252.3,201.8,252.3,201.9,252.3,202.1z M189.8,135.7C189.8,135.7,189.8,135.7,189.8,135.7c0.2,0,0.4,0,0.6,0c0,0,0,0,0,0
			C190.1,135.7,189.9,135.7,189.8,135.7z M185.5,149.9c-0.1,0-0.1,0-0.2,0.1c0.1,0.2,0.2,0.4,0.2,0.6c0,0,0.1,0,0.2,0
			C185.7,150.3,185.6,150.1,185.5,149.9z M190.6,152.8c0-0.1-0.1-0.1-0.1-0.2c-0.2,0.1-0.5,0.3-0.7,0.4c0,0.1,0.1,0.1,0.1,0.2
			C190.2,153.1,190.4,153,190.6,152.8z M178.8,104.1c0.1,0,0.2,0,0.2,0c0-0.1-0.1-0.3-0.1-0.4c-0.1,0-0.1,0-0.2,0
			C178.7,103.9,178.8,104,178.8,104.1z M206.7,85.1C206.7,85.1,206.7,85.1,206.7,85.1c0.1,0,0.2,0,0.3,0c0,0,0,0,0,0
			C206.9,85.1,206.8,85.1,206.7,85.1z M246.1,185.9c0,0,0.1,0,0.1,0c0-0.2,0-0.4-0.1-0.6c0,0,0,0-0.1,0
			C246.1,185.5,246.1,185.7,246.1,185.9z M187,205.3c0,0.1,0,0.1,0.1,0.2c0.2-0.1,0.4-0.1,0.6-0.2c0-0.1,0-0.1-0.1-0.2
			C187.4,205.2,187.2,205.3,187,205.3z M235.1,145.7c0,0.1-0.1,0.1-0.1,0.2c0.2,0.1,0.3,0.2,0.5,0.3c0-0.1,0.1-0.1,0.1-0.2
			C235.4,145.9,235.2,145.8,235.1,145.7z M177.1,93c0.5,0,0.7,0,0.8-0.5C177.6,92.7,177.4,92.8,177.1,93z"/>
		<path id="XMLID_1081_" d="M206.8,14.2c-0.1,1.1-0.2,2.1-0.2,3.2c0,1.2,0.4,2.2,0.8,3.3c0.2,0.5,0.4,1,0.5,1.5
			c0.1,0.3,0,0.6-0.3,0.7c-0.3,0.1-0.5,0-0.7-0.3c-0.9-1.4-1.4-3-1.7-4.7c-0.1-0.8,0-1.8,0.1-2.6c0.1-0.5,0.3-1,0.9-1.1
			C206.4,14.2,206.6,14.2,206.8,14.2z"/>
		<path id="XMLID_1061_" d="M146.1,144.6c-0.5,0.5-0.6,0.5-0.9,0c-0.3-0.6-0.6-1.2-0.9-1.8c-0.1-0.2-0.3-0.5-0.6-0.7
			c0.1,0.5,0.2,1.1,0.3,1.6c-0.5,0.4-0.7,0.1-0.9-0.3c-0.5-1.1-1.1-2.2-1.7-3.2c-1.6-3-2.9-6.1-3.9-9.3c-0.6-1.9-1.3-3.7-2-5.6
			c-0.3-0.7-0.7-1.3-1.1-2c-0.2-0.4-0.5-0.4-0.9-0.3c-1.5,0.7-3,1.4-4.5,2.2c-0.3,0.2-0.5,0.6-0.8,0.9c-0.3-0.2-0.5-0.3-0.7-0.4
			c-0.9-0.5-1-0.8-0.9-1.8c0.2-1.8,0.8-3.6,1.2-5.4c0.2-1.1,0.7-2.2,0.9-3.5c-0.3-0.2-0.5-0.4-0.8-0.5c-0.3-0.2-0.7-0.3-1.1-0.4
			c-0.7-0.2-1.3-0.4-1.4-1.4c-0.5,0.2-1,0.3-1.4,0.5c-2.1,0.9-4.2,1.3-6.5,1.6c-3.5,0.4-6.8,0.1-10.2-0.8c-2.8-0.7-5.3-2.1-7.9-3.4
			c-1-0.5-1.9-1.3-2.8-2.1c-1-0.9-2-1.8-2.9-2.7c-1.3-1.3-2.6-2.7-3.5-4.4c-1.5-2.7-2.6-5.5-3-8.6c-0.2-1.5-0.2-3.1-0.1-4.7
			c0.1-2.2,0.2-4.5,0.9-6.7c0.6-1.8,0.7-3.6,0.9-5.4c0.4-2.9,1.6-5.5,3.5-7.7c1.4-1.6,3-3.1,4.9-4.2c1.1-0.6,2-1.4,2.9-2.4
			c1.1-1.3,2.6-2.2,4.1-2.9c2.8-1.3,5.7-2.3,8.8-3c1.5-0.3,3.2-0.5,4.7-0.5c2.1-0.1,4.3,0,6.4,0c2.3,0.1,4.6,0.5,6.8,1.5
			c1.4,0.6,2.8,1.4,4.1,2.2c1.7,1,3.2,2.2,4.6,3.6c0.8,0.9,1.8,1.6,2.6,2.5c0.8,0.9,1.6,1.9,2.2,2.9c1,1.5,1.9,3.1,2.4,4.8
			c0.9,2.9,1.4,5.9,1,9c-0.1,0.9-0.1,1.9-0.3,2.8c-0.3,1.2-0.7,2.3-1,3.4c-0.6,1.9-1.5,3.8-2.5,5.5c-1,1.8-2.1,3.6-3.4,5.2
			c-1.4,1.7-2.7,3.6-4.2,5.2c-1.7,1.9-3.5,3.6-5.6,5c-0.1,0.1-0.2,0.2-0.2,0.3c0.1,0.6,0.4,1,0.8,1.5c1.1,1.1,2.1,2.2,3.1,3.3
			c0.6,0.7,1.2,1.4,2.3,1.1c0.1,0,0.1,0,0.2,0c1.3,0.8,2.7,0.3,4.1,0.3c2-0.1,3.9-0.8,5.6-1.9c0.4-0.2,0.9-0.4,1.3-0.5
			c0.3-0.1,0.6-0.1,0.7,0.2c0.1,0.3-0.1,0.5-0.4,0.6c-1,0.5-1.9,1-2.9,1.5c-0.3,0.1-0.5,0.3-0.8,0.4c0.1,0.2,0.3,0.5,0.3,0.7
			c-0.1,0.2-0.3,0.4-0.5,0.5c-0.8,0.5-1.7,1-2.5,1.4c-0.3,0.2-0.6,0.4-0.7,0.8c-0.1,0.2-0.5,0.4-0.8,0.5c-0.5,0.2-1.1,0.2-1.8,0.4
			c0.3,0.8,0.6,1.5,0.9,2.3c1,2.3,2.1,4.7,3.1,7c0.5,1.2,1,2.4,1.4,3.6c0.8,2.1,1.6,4.2,2.3,6.3c0.2,0.5,0.3,1,0.5,1.5
			c0.2,0.4,0,1.1,0.8,1.1c0.1,0.5,0.5,1,0.4,1.4c-0.1,0.5-0.8,0.7-1.4,0.7C146.4,144.7,146.3,144.6,146.1,144.6
			c0-0.3-0.1-0.5-0.1-0.7C145.7,144.3,145.8,144.5,146.1,144.6z M129.8,121.8c-0.3,0.3-0.5,0.8-0.6,1.2c0.4,0.1,0.7,0.2,1,0.3
			c0.2,0,0.4,0.1,0.5,0c0.8-0.4,1.5-0.9,2.3-1.3c-0.2-0.4-0.3-0.7-0.5-1.1c-0.8-0.1-1.3,0.2-1.7,0.8c-0.3,0.3-0.4,0.8-1.1,0.8
			C129.8,122.2,129.8,122,129.8,121.8c0.3,0,0.4-0.2,0.4-0.5C129.8,121.3,129.8,121.5,129.8,121.8z M110.8,59L110.8,59
			c0.1,0,0.3-0.1,0.4-0.1c1.4-0.1,2.8-0.2,4.2-0.2c2.6,0,5.3,0,7.9,0c0.4,0,0.8,0,1.3-0.1c-0.2-0.2-0.2-0.3-0.3-0.3
			c-1.4-0.9-2.9-1.3-4.5-1.4c-2.6-0.1-5.1,0.2-7.7,0.5c-2.8,0.3-5.3,1.1-7.7,2.3c-1.1,0.6-2.1,1.3-3.1,2c-0.3,0.2-0.6,0.6-1,1.1
			c0.4-0.1,0.5-0.1,0.7-0.1c0.6-0.3,1.2-0.6,1.8-0.9c0.2-0.1,0.4-0.2,0.6-0.2c0.3,0,0.7,0.1,1,0c2.2-0.6,4.5-0.9,6.8-1
			c3-0.2,5.9-0.2,8.9-0.3c1.3,0,2.6-0.1,3.9-0.1c0.7,0,1.4,0.1,2.1,0.1c-1.2,0.2-2.4,0.3-3.6,0.4c-2.1,0.1-4.3,0.1-6.4,0.2
			c-3,0.1-6,0.2-8.9,0.6c-2,0.3-4.1,0.7-5.9,1.7c-0.3,0.1-0.5,0.4-1,0.3c-0.5,0-1,0.5-1.2,1.1c0,0.1,0,0.3,0,0.3
			c-0.4,0.4-0.8,0.8-1.1,1.2c-1.8,2.5-3.1,5.2-4.3,8c-1.3,2.8-2.3,5.8-3,8.9c-0.6,2.9-1.1,5.9-0.4,8.9c0.1,0.6,0.3,1.3,0.4,2
			c0.1,0.3,0.1,0.7-0.6,0.6c-0.2-1.4-0.5-2.9-0.7-4.3c-0.2-1.5-0.4-2.9-0.6-4.4c-0.1,0-0.1,0-0.2,0c0,1.1-0.1,2.1-0.1,3.2
			c-0.1,3.6,0.6,7.1,2.2,10.4c0.4,0.8,0.8,1.6,1.2,2.3c0.9,1.5,2,2.7,3.2,3.9c1.6,1.6,3.3,3,5.2,4.1c2.5,1.5,5.2,2.7,8,3.3
			c1.4,0.3,2.8,0.7,4.3,0.9c1.4,0.2,2.8,0.1,4.3,0.1c3.5,0,6.7-0.9,9.7-2.7c2.1-1.3,4.1-2.8,5.9-4.5c1.7-1.6,3.4-3.3,4.9-5.2
			c1.2-1.5,2.3-3.1,3.4-4.7c0.2-0.3,0.5-0.5,0.6-0.8c0.8-1.4,1.6-2.7,2.3-4.2c0.6-1.2,1.1-2.5,1.6-3.8c0.6-1.5,0.8-3.2,1.1-4.8
			c0.2-1.5,0.4-3,0.2-4.5c-0.2-1.9-0.6-3.7-1.2-5.5c-0.4-1-0.9-1.9-1.4-2.8c-0.7-1.4-1.6-2.7-2.6-3.8c-1.1-1.2-2.4-2.3-3.6-3.5
			c-1.8-1.8-4-3-6.2-4.1c-2.1-1-4.4-1.6-6.7-1.9c-0.4-0.1-0.8-0.1-1.3-0.1c0.7,0.8,1.7,0.9,2.5,1.8c-0.3,0.1-0.5,0.1-0.7,0.1
			c-2.7,0.1-5.4-0.3-8.1,0c-1.8,0.1-3.6,0.2-5.4,0.2C111.4,59.2,111.1,59,110.8,59z M89.3,85.8c0.1,0,0.1,0,0.2,0
			c0.1-0.2,0.1-0.5,0.2-0.7c0.5-2.8,1.1-5.5,2.2-8.1c0.9-2.3,2.1-4.4,3-6.7c0.7-1.9,1.8-3.5,2.9-5.1c0.1-0.1,0.1-0.3,0.2-0.5
			c-4.4,1.5-9.5,9.7-8.6,13.5c0.1-0.1,0.2-0.1,0.3-0.2c0,0,0,0,0,0C89,80.7,88.9,83.3,89.3,85.8z M145.5,143.4
			c-0.6-3.3-1.8-6.3-3.1-9.5c-0.1,0.5-0.1,0.8-0.2,1.1c-0.9,0.5-1.2-0.4-1.9-0.8C141.6,137.5,143.7,140.3,145.5,143.4z M141.4,134.4
			c0.1,0,0.2-0.1,0.3-0.1c0-0.2-0.1-0.4-0.1-0.5c-0.5-1.2-1-2.3-1.6-3.5c-0.7-1.4-1.4-2.8-2.2-4.2c-0.6-1.2-1.3-2.3-2-3.5
			c-0.1-0.1-0.3-0.2-0.5-0.3c0.1,0.3,0.1,0.5,0.1,0.7c0.3,0.9,0.6,1.7,1,2.6c0.6,1.3,1.4,2.6,2,3.9c0.4,0.8,0.8,1.7,1.3,2.6
			C140.2,132.8,140.9,133.6,141.4,134.4z M136.2,122c1.6,2.9,3.1,5.7,4.7,8.6c0-0.3,0-0.4,0-0.5c-1.1-2.6-2.2-5.2-3.3-7.8
			c-0.1-0.3-0.3-0.5-0.5-0.8C136.7,121.7,136.5,121.9,136.2,122z M128.9,111.1c-0.9,0.5-1.7,1-2.5,1.4c0.9,0.3,1.7,0.6,2.6,0.8
			C129.3,112.6,129.5,111.9,128.9,111.1z M132.7,119.9c1.3,0.5,2.1-0.4,3.1-0.7c-0.3-0.4-0.5-0.8-0.8-1.3
			C134.2,118.6,133.5,119.2,132.7,119.9z M130.4,119.9c0.1,0,0.1,0.1,0.2,0.1c0.8-0.6,1.6-1.2,2.5-1.9c-1.8-0.3-1.9-0.3-2.5,1.2
			C130.5,119.5,130.5,119.7,130.4,119.9z M133.6,121c0.5-0.1,0.8-0.2,1.1-0.2c-0.1-0.5-0.1-0.5-0.3-0.5c-0.3,0.1-0.6,0.2-0.9,0.3
			c0,0.2,0,0.2,0.1,0.3C133.5,121,133.6,121.1,133.6,121z M137.3,118c0.3,0.8,0.3,0.8,1.2,0.5C138,118.3,137.6,118.2,137.3,118z
			 M132.7,116.8c-0.4-0.2-0.7-0.5-1.2-0.4C131.8,117,132.2,116.8,132.7,116.8z M131.6,114.1c0.1,0.6,0.1,0.7,0.9,0.6
			C132.2,114.5,131.9,114.3,131.6,114.1z M131.7,119.7c-0.3,0.3-0.6,0.5-1,0.8C131.3,120.6,131.5,120.2,131.7,119.7z M130.6,115.7
			c-0.5,0.4-0.5,0.4-0.3,1.1C130.4,116.4,130.4,116.2,130.6,115.7z M132.8,117.4C132.8,117.3,132.8,117.3,132.8,117.4
			c-0.3-0.1-0.7-0.1-1-0.1c0,0,0,0.1,0,0.1C132.1,117.4,132.5,117.4,132.8,117.4z M132.8,119.1c0,0-0.1-0.1-0.1-0.1
			c-0.2,0.1-0.3,0.3-0.5,0.4c0,0,0.1,0.1,0.1,0.1C132.4,119.4,132.6,119.3,132.8,119.1z M143.6,117.2
			C143.6,117.1,143.6,117.1,143.6,117.2c-0.1-0.1-0.3-0.1-0.3-0.1c-0.1,0-0.2,0.1-0.3,0.2c0,0,0,0.1,0.1,0.1
			C143.2,117.3,143.4,117.2,143.6,117.2z"/>
		<path id="XMLID_1048_" d="M203.6,55.1c0.8,0.1,1.4,0.7,2.2,0.3c0,0.1,0,0.1,0,0.2c-0.2,0.1-0.3,0.3-0.5,0.3
			c-1,0.2-1.4,1.1-1.5,1.9c-0.3,1.4-0.3,2.8-0.4,4.2c0,0.5,0.2,1-0.1,1.6c-0.2,0.4-0.9,0.9-1.3,0.8c-0.3-0.1-0.6-0.2-0.9-0.1
			c-0.3,0.2-0.7,0.5-0.8,0.8c-0.7,1.3-1.9,1.8-3.2,2.1c-0.6,0.1-1-0.3-1.4-0.6c-1-0.9-1.6-2.8-0.6-3.9c-0.2-0.6-0.3-1.1-0.6-1.6
			c-0.4-0.7-0.8-1.3-1.3-2c-0.3-0.4-0.6-0.7-0.3-1.3c0.1-0.2,0-0.6-0.1-0.8c-0.3-0.5-0.3-0.9,0.1-1.5c-1.2-1.1-2.5-2.2-3.7-3.4
			c-0.7-0.6-1.3-1.2-2-1.8c-2.3-2-3.2-4.6-3.2-7.6c0-1.6,0.3-3.2,1-4.7c1.3-2.8,3.2-5,5.9-6.5c1.3-0.7,2.7-1.2,4.1-1.5
			c2.5-0.5,4.9-0.5,7.4,0.3c2.1,0.6,4,1.6,5.7,3c1.7,1.4,2.8,3.3,3.4,5.5c0.7,3.1,0.3,6-0.9,8.8c-0.3,0.7-0.8,1.2-1.5,1.5
			c-0.8,0.4-1.5,0.8-1.8,1.7c-0.1,0.4-0.7,0.4-0.7,0.9c0,0.5-0.5,0.5-0.8,0.8C204.5,53.3,203.8,53.7,203.6,55.1z M204.5,51
			c0.1-0.2,0.2-0.4,0.2-0.4c0.9-0.6,1.6-1.5,2.7-1.9c0.3-0.1,0.5-0.5,0.7-0.7c1.2-1.4,1.7-3,1.9-4.8c0.1-0.6,0-1.2,0-1.8
			c0.2-1.6-0.4-3-1-4.4c-0.5-1.1-1.3-2-2.2-2.7c-1.5-1.2-3.2-2-5-2.6c-2.2-0.7-4.4-1-6.7-0.8c-1.3,0.1-2.5,0.5-3.6,1.2
			c-2.3,1.6-4.2,3.7-5.4,6.2c-1.1,2.4-1.3,4.9-0.6,7.5c0.5,1.7,1.5,3.1,2.9,4.1c0.7,0.6,1.5,1,2.3,1.5c0.1,0.1,0.3,0.1,0.4,0.2
			c1.3,0.4,2.2,1.2,2.9,2.3c0.3,0.4,0.7,0.7,1.1,1c1.1-0.2,2,0.3,3,0.7c0.9,0.4,1.9,0.3,2.9,0.4c1.1,0.1,1.2-0.1,1.6-1.1
			c0.4-1,1-2,1.5-3c0.1-0.1,0.3-0.2,0.4-0.3c0,0.2,0,0.4,0,0.7c0.4-0.3,0.7-0.5,1-0.7C205.3,51.5,204.9,51.3,204.5,51z M196.7,61.3
			c0,0.8,0.5,0.9,1,1c1,0.2,1.9-0.1,2.8-0.4c1-0.4,1.1-0.4,1.1-1.5c0-0.3,0-0.5,0-0.7c-1,0.3-1.9,0.7-2.9,1
			C198,60.9,197.3,61.1,196.7,61.3z M194,55.3c0-0.8-0.1-1.5-0.8-2.1c-0.6-0.5-1.2-1-2-1.2c-0.3-0.1-0.7-0.3-1-0.6
			c-0.3-0.3-0.7-0.5-1.2-0.5c1.5,1.4,2.8,2.7,4.2,4.1c0.1,0.1,0.3,0.2,0.4,0.3C193.7,55.4,193.8,55.3,194,55.3z M195.9,63.9
			c0.2,0.4,0.3,0.7,0.3,0.9c0.2,0.6,0.6,0.8,1.2,0.9c0.5,0.1,0.7-0.3,1-0.6c0.2-0.2,0.3-0.4,0.4-0.7
			C197.6,64.6,197.6,64.6,195.9,63.9z M198,56.7c1.1,0.4,2.8,0.4,3.2-0.1c-0.8-0.1-1.7-0.2-2.5-0.3C198.4,56.3,198,56.2,198,56.7z
			 M197.5,63c1.2,0.6,1.7,0.5,3-0.6C199.5,62.5,198.5,62.7,197.5,63z M201,58.1c-0.8,0.3-1.6,0.5-2.3,0.8
			C199.6,59.2,200.3,58.8,201,58.1z M194.9,56c0.2,0.6-0.1,1.2,0.4,1.7c0.1-0.4,0.3-0.7,0.4-1.1C195.4,56.4,195.1,56.2,194.9,56z
			 M196.7,58.1c0,0.1,0,0.2,0,0.3c0.6,0.2,1-0.2,1.5-0.3c0-0.1,0-0.1,0-0.2C197.7,57.9,197.2,58,196.7,58.1z M196.1,56.9
			c0.5,0.7,0.5,0.7,1.2,0.4C197,57.2,196.6,57.1,196.1,56.9z M196.1,56c0,0.1-0.1,0.1-0.1,0.2c0.2,0.1,0.3,0.1,0.5,0.2
			c0,0,0.1-0.1,0.1-0.1C196.4,56.1,196.3,56,196.1,56z"/>
		<path id="XMLID_1047_" d="M190.2,116.6c-0.5,0.2-0.8,0-1.2-0.3c-0.2-0.2-0.5-0.3-1-0.6c0.3-0.1,0.5-0.2,0.7-0.3
			c-0.1-0.3-0.2-0.4-0.2-0.6c0.1-0.1,0.2-0.2,0.2-0.2c0.2-0.1,0.6-0.2,0.7-0.4c0.2-0.3,0.4-0.4,0.7-0.3c0.3,0.2,0.8,0.2,0.5,0.8
			c0.7-0.2,1.3-0.5,1.9-0.6c0.3-0.1,0.8,0,1.1,0.2c0.6,0.3,1.2,0.8,1.8,1.2c0.4-0.2,0.7-0.3,1.1-0.6c-0.2,0.4-0.3,0.6-0.4,0.9
			c0.6,0.7,1.6,1,1.9,2c-0.9,0.7-1.2,0.7-2,0.1c-1-0.8-2-1.4-3.3-1.6c-0.2,0-0.4-0.1-0.5,0C191.5,116.7,190.8,116.7,190.2,116.6
			c0.2-0.2,0.5-0.3,0.3-0.8c-0.2,0.1-0.4,0.2-0.5,0.3C190,116.3,190.1,116.4,190.2,116.6z"/>
		<path id="XMLID_1046_" d="M230.7,41.2c0.1,0.8,0.1,0.9-0.5,1c-0.2,0.1-0.5,0.1-0.7,0.1c-2.8-0.1-5.5-0.2-8.3-0.3
			c-0.8,0-1.6-0.2-2.5-0.3c-0.2,0-0.6-0.1-0.5-0.4c0-0.2,0.3-0.5,0.5-0.5c0.6-0.1,1.3-0.2,1.9-0.2c0.9,0,1.7,0.1,2.6,0.2
			c2.1,0.1,4.3,0.1,6.4,0.2C229.9,41.1,230.3,41.2,230.7,41.2z"/>
		<path id="XMLID_1045_" d="M225.7,23.1c0.2,1.1-0.1,1.6-0.9,1.6c-1.3,0-2.2,0.7-3.2,1.3c-2,1.1-3.8,2.6-5.6,3.9
			c-0.4,0.3-0.8,0.4-1.2,0.6c-0.1,0.1-0.5,0-0.5-0.2c-0.1-0.1,0-0.4,0.1-0.6c0,0,0.1-0.1,0.1-0.1c3-2.3,6.1-4.4,9.5-5.9
			C224.5,23.4,225.1,23.3,225.7,23.1z"/>
		<path id="XMLID_1044_" d="M188.3,119.6c0.7-0.2,1.2-0.4,0.9-1.1c0.7-0.2,1.5-0.3,2-0.8c0.3-0.3,0.8-0.4,1.2,0
			c0.4,0.4,1,0.6,1.6,0.5c0.2,0,0.4,0,0.6,0.1c0.2,0.1,0.5,0.3,0.5,0.6c0.1,0.3-0.1,0.7-0.5,0.8c-1,0.3-1.9,0.6-2.9,0.8
			C190.5,120.6,189.5,120.2,188.3,119.6z"/>
		<path id="XMLID_1043_" d="M178.8,36.9c-0.6,0.8-1.4,1-2.2,0.9c-1-0.1-2.1-0.2-3.1-0.5c-1-0.3-2-0.7-3-1.1
			c-0.3-0.1-0.5-0.3-0.7-0.5c0.5-0.5,1-0.6,1.5-0.4c0.4,0.1,0.8,0.2,1.2,0.3c1.6,0.7,3.3,0.8,5,0.9
			C177.9,36.6,178.3,36.8,178.8,36.9z"/>
		<path id="XMLID_1042_" d="M182.3,22.3c0.4-0.1,0.7-0.3,0.9-0.3c1.4,1.5,2.7,2.9,4,4.3c-0.4,0.5-0.9,0.6-1.4,0.2
			c-1.1-1.2-2.2-2.5-3.3-3.7C182.4,22.6,182.4,22.5,182.3,22.3z"/>
		<path id="XMLID_1041_" d="M210.4,117.1c0.3,0.5,0.7,0.9,0.8,1.3c0,0.4-0.2,0.8-0.4,1.3c0.2,0,0.4,0.1,0.5,0.1
			c0.2,0.1,0.4,0.2,0.5,0.3c-0.1,0.2-0.2,0.4-0.4,0.6c-0.1,0.2-0.4,0.2-0.6,0.4c0,0.4,0,0.7,0,1.1c-0.1,0-0.2,0.1-0.2,0
			c-0.6-0.6-1.2-1.1-1.2-2C209.3,119.1,209.7,118.1,210.4,117.1z"/>
		<path id="XMLID_1040_" d="M193,137.1c-1,0.2-1.9,0.6-2.8,0.5C190.9,136.7,191.9,136.5,193,137.1z"/>
		<path id="XMLID_869_" d="M210.3,108.8c0.3,0.3,0.7,0.5,1,0.8c0.6,0.7,1.2,1.5,2,2.4c-0.4,0-0.7,0-0.8-0.1
			c-0.6-0.6-1.2-1.1-1.7-1.8C210.5,109.8,210.4,109.2,210.3,108.8L210.3,108.8z"/>
		<path id="XMLID_868_" d="M210.3,108.8c-0.7-0.5-0.8-0.6-0.6-1.3c0,0,0,0,0,0C209.8,107.9,210.1,108.4,210.3,108.8L210.3,108.8z"/>
		<path id="XMLID_867_" d="M244.8,158.2c0.7,0,1.3,0,2,0c0,0,0-0.1,0-0.1c-0.2-0.1-0.4-0.3-0.6-0.4c0,0,0-0.1,0.1-0.1
			c1.5,0.2,3.1,0.3,4.6,0.6c1.8,0.3,3.5,0.7,5.3,1.1c0.7,0.1,1.3,0.1,2,0.2c0.2,0,0.4,0.1,0.8,0.2c-0.6,0.5-0.9,1.1-1.8,0.8
			c-2.7-0.7-5.5-0.9-8.3-1c-1.2,0-2.4-0.2-3.6-0.4c-0.2,0-0.4-0.1-0.7-0.2C244.6,158.5,244.7,158.3,244.8,158.2
			C244.8,158.1,244.8,158.2,244.8,158.2z"/>
		<path id="XMLID_866_" d="M189.6,187.6c-0.5,0.4-0.9,0.9-1.4,1.3c-1.2,0.8-2.4,1.6-3.6,2.4c-0.7,0.5-1.4,1-2.1,1.5
			c-0.4,0.3-0.8,0.4-1.3,0.1c0.2-0.2,0.3-0.4,0.4-0.5c1.1-0.8,2.3-1.5,3.4-2.3c1.4-1,2.8-2.1,4.2-3.2c0.1-0.1,0.3-0.2,0.3-0.2
			c0.1-0.8,0.7-0.7,1.3-0.9c0.3,0.7,0.6,1.4,0.9,2c0.4,0.8,0.7,1.6,1.1,2.3c0.2,0.3,0.4,0.6,0.9,0.6c0.2,0,0.6,0.1,0.7,0.5
			c0.1,0.4-0.3,0.5-0.6,0.7c-0.8,0.5-1.5,0.3-2.1-0.8c-0.6-1-1.1-2.1-1.7-3.1C190,187.8,189.8,187.8,189.6,187.6z"/>
		<path id="XMLID_865_" d="M185.3,188.8c0.3-0.1,0.7-0.2,1-0.3c0,0.1,0.1,0.1,0.1,0.2c-0.7,0.5-1.5,1-2.2,1.5
			c-0.9,0.7-1.9,1.3-2.8,2c-0.3,0.2-0.7,0.5-1,0.7c-0.4,0.1-0.6,0.3-0.6,0.7c-0.1,0.3-0.1,0.7-0.7,0.6c0.1-1.3,0.6-2.4,0.9-3.6
			c0-0.2,0.3-0.3,0.4-0.5c0.6,0.9-0.5,1.5-0.3,2.5c0.5-0.4,0.8-0.6,1.1-0.9c-0.1-0.2-0.2-0.3-0.3-0.6c1.9-1.3,3.6-2.8,5.6-3.8
			c0.1-0.1,0.3,0,0.7-0.1C186.5,187.8,185.9,188.3,185.3,188.8C185.3,188.8,185.3,188.8,185.3,188.8z"/>
		<path id="XMLID_864_" d="M190.9,190.8c-0.2,0.2-0.4,0.4-0.7,0.6c-1.8,1-3.6,1.9-5.6,2.5c-0.7,0.2-1.3,0.6-1.9,0.9
			c-0.6,0.2-1.2,0.5-1.9,0.2c0.2-0.2,0.3-0.4,0.5-0.5c1.2-0.6,2.4-1.2,3.6-1.6c1.1-0.4,2.2-0.9,3.3-1.4c0.7-0.3,1.3-0.8,2.1-0.8
			c0.2,0,0.3,0,0.5,0C190.8,190.7,190.9,190.7,190.9,190.8z"/>
		<path id="XMLID_842_" d="M125.6,67.6c-0.2,0-0.3,0-0.6,0.1c0,1,0,2.1,0,3.1c0.1,1,0.3,2,0.3,2.9c0,0.8,0.4,1.1,1,1.4
			c0.2,0.1,0.5,0.2,0.8,0.4c0.1,0.1,0.2,0.2,0.3,0.5c-0.7,0.1-1.2,0.1-1.9,0.2c0.1,1.1,0.2,2.1,0.4,3.2c0.6-0.4,1-1.1,1.7-0.7
			c0.2,0.1,0.3,0.4,0.7,0.7c-0.8,0.2-1.5,0.3-2.1,0.5c-0.2,0.7,0.4,4.1,1.1,7.1c0.2,0.1,0.5,0.2,0.8,0.3c0.5,0.1,0.8,0.4,0.8,0.8
			c0,0.5-0.4,0.6-0.8,0.6c-0.1,0-0.2,0-0.4,0.1c0.2,0.8,0.4,1.5,0.6,2.3c0.1,0,0.1,0,0.2,0c0-0.4,0-0.8,0.1-1.2c0-0.3,0-0.3,0.6-0.4
			c0.4,1.2,0.7,2.5,0.4,3.8c-0.1,0.8-0.3,1.6,0.1,2.5c0.6-0.6,1.4-0.3,2-0.6c0.4-0.1,0.7,0.1,0.6,0.5c-0.2,0.8-0.6,1.5-0.9,2.3
			c-0.1,0.1-0.3,0.2-0.5,0.2c-1.4,0.4-2.8,0.8-4.2,1.1c-1.7,0.4-3.3,0.8-5,1.2c-2.4,0.6-4.8,1.1-7.4,1c-0.5,0-1.1,0.1-1.6,0.2
			c-1.4,0.1-2.9,0.2-4.3,0.1c-3.8-0.3-7-1.7-8.7-5.4c-1.5-3.1-1.5-6.2,0.1-9.2c0.8-1.4,1.6-2.8,3-3.7c0.1-0.1,0.2-0.3,0.3-0.4
			c0.2-0.5,0.5-0.6,0.9-0.2c0.3,0.3,0.5,0.6,1,0.6c0.9-1.1,1.7-2.2,2.6-3.3c2-2.3,3.3-5,5-7.5c1.4-2.1,2.7-4.2,4.1-6.2
			c0.7-1.1,1.5-2.1,2.3-3.2c0.2-0.2,0.3-0.5,0.7-0.3c-0.1,1.3-0.1,1.3,1,2.2c0.5,0.3,0.9,0.6,1.5,0.7c0.6,0.1,1.1,0.5,1.6,0.7
			c0.3,0.1,0.6,0.2,1,0.4c0.1-0.7,0.2-1.3,0.3-1.9c0.4,0.1,0.7,0.3,0.5,0.5c-0.4,0.5-0.2,1-0.3,1.5
			C125.2,67.2,125.4,67.4,125.6,67.6L125.6,67.6z M127,88.7c-1.4-0.3-2.7-0.8-4.1-1c-2.8-0.4-5.7-0.7-8.5-0.9
			c-2.9-0.2-5.6-0.9-8.3-2.1c-0.2-0.1-0.4-0.1-0.6-0.1c-0.7,1-1.4,1.9-2.1,2.9c-0.9,1.3-1.6,2.8-1.6,4.5c0,0.8,0,1.6,0.1,2.4
			c0.1,1.5,0.8,2.6,2.1,3.7c0-0.6,0-1.1,0.7-1.2c0,1.5,0.9,2.2,2.1,2.5c0.4,0.1,0.9,0.2,1.3,0.4c2.7,1,5.5,0.8,8.3,0.8
			c0.2,0,0.4-0.1,0.6-0.2c2.7-0.9,5.4-1.8,7.9-3.2c1-0.6,2-1.2,2.8-2.2c0.3-0.3,0.6-0.7,0.4-1.2C127.7,92,127.4,90.4,127,88.7z
			 M112.2,76.4c-2.4,2.3-4.8,4.5-6.3,7.6c0.2,0.1,0.3,0.2,0.5,0.3c1.8,0.8,3.8,1.4,5.7,1.7c3.1,0.4,6.2,0.7,9.4,1
			c1.3,0.1,2.7,0.3,3.9,0.7c0.4,0.1,0.9,0.4,1.4,0.2c-0.1-0.5-0.4-0.4-0.7-0.6c-0.1,0-0.1-0.1-0.2-0.2c0.2-0.1,0.4-0.2,0.7-0.3
			c-0.4-2.3-0.8-4.6-1.3-6.9c-2.4,0-4.6-0.3-6.9-0.7C116.2,78.8,114.2,77.6,112.2,76.4z M112.7,76c3.7,2.8,9.1,3.4,12.6,3.3
			c0-0.5-0.1-1-0.1-1.5c-0.1-0.5-0.1-1.1-0.2-1.6c-0.7-0.1-1.2-0.1-1.8-0.3c-1.3-0.3-2.6-0.7-3.8-1.1c-1.1-0.3-2.2-0.7-3.3-1.1
			c-0.3-0.1-0.6-0.4-0.9-0.7c-0.1-0.2-0.3-0.5-0.2-0.6c0.1-0.3,0.4-0.3,0.8-0.1c-0.1,0.5,0.2,0.8,0.7,1c1,0.3,2,0.7,3,1
			c1.1,0.3,2.2,0.6,3.3,0.9c0.6,0.2,1.2,0.4,1.8,0.5c0.1,0,0.3-0.1,0.5-0.2c0-0.1,0.1-0.1,0.1-0.2c-0.2-0.1-0.3-0.2-0.5-0.3
			c-1.2-0.5-2.3-1-3.5-1.4c-1.2-0.4-2.4-0.8-3.3-1.6c-0.2-0.2-0.4-0.2-0.7-0.3c-0.9-0.2-0.9-0.2-0.7-1.2c0-0.1,0-0.2,0-0.4
			c-0.3,0.3-0.5,0.6-0.8,0.8c-0.1,0-0.1-0.1-0.2-0.1c0.2-0.4,0.3-0.8,0.5-1.2c-0.2-0.1-0.4-0.3-0.6-0.4c-0.7,0.7-3.4,5.2-3.5,5.7
			c1.2-0.5,1.2-0.5,1.8,0C113.3,75.2,113,75.6,112.7,76z M108.5,101.4c0-0.1,0-0.1,0-0.2c-0.3-0.1-0.5-0.2-0.8-0.3
			c-1.4-0.5-2.7-1-3.8-2c-0.6-0.5-1.2-1-1.8-1.5c-1.1-1-1.9-2.1-2.1-3.7c-0.2-2.1,0-4.2,0.6-6.2c0.3-0.9,0.7-1.8,1.8-2
			c0.2-0.6,0.3-1.1,0.6-1.8c-0.3,0.2-0.5,0.3-0.6,0.4c-1.4,1.3-2.5,2.9-3.1,4.8c-1,3.3-0.4,6.4,1.6,9.1c0.3,0.4,0.7,0.8,1.1,1.1
			c1.2,1,2.6,1.4,4.1,1.8C107,101.1,107.8,101.2,108.5,101.4z M123.9,70.3c0-0.1,0-0.4-0.1-0.6c-0.5-0.9-1.1-1.8-1.7-2.6
			c-0.4-0.6-1.2-0.6-1.8-0.2c-0.4,0.3-0.7,0.6-1.1,0.9c-0.6,0.5-0.7,1.1-0.6,1.8c0,0.2,0.2,0.5,0.4,0.6c1.3,0.4,2.5,0.9,3.8,1.2
			C123.6,71.6,123.9,71.4,123.9,70.3z M128.5,95c-0.6,0.5-1.1,1-1.6,1.3c-2.2,1.4-4.5,2.5-7,3.3c-0.4,0.1-0.7,0.3-1,0.4
			c0.2,0.1,0.4,0.2,0.5,0.1c2.1-0.5,4.2-1,6.3-1.5c0.4-0.1,0.7-0.3,1-0.5C127.7,97.4,128,96.3,128.5,95z M116.5,69
			c1.4-1.2,2.9-2.2,4.6-3c-0.9-0.6-1.7-1.1-2.6-1.7c-1,1.3-1.9,2.7-3,4.1C115.9,68.7,116.2,68.8,116.5,69z M116.9,70.8
			c0.6,0.4,1.1,0.7,1.6,0.9c0.5,0.3,1,0.6,1.5,0.8c1,0.4,2,0.8,3,1.2c0.3,0.1,0.5,0.2,1,0.4c-0.1-0.8-0.2-1.4-0.3-2
			c-1.3,0-2.5-0.4-3.6-0.9c-0.5-0.2-1-0.1-1.5-0.2c-0.4-0.2-0.9-0.5-1.4-0.7C117,70.5,116.9,70.7,116.9,70.8z M101.5,95.4
			c0-0.2-0.1-0.4-0.1-0.6c-0.1-0.8-0.2-1.5-0.2-2.3c0-0.9,0.2-1.9,0.3-2.8c0-0.2,0.1-0.5,0-0.5c-0.4-0.4-0.1-0.8,0.1-1.1
			c0.2-0.5,0.4-0.9,0.3-1.5C100.5,88.5,100.2,93.8,101.5,95.4z M127.2,98.7c1-0.2,2-0.3,3-0.7c-0.4-0.6-0.8-1.2-1.3-1.8
			C128.4,97,127.8,97.8,127.2,98.7z M124.5,69.5c0.1,0,0.1,0,0.2-0.1c-0.1-0.7-0.1-1.4-0.2-2.2c-0.4-0.1-0.7-0.3-1.2-0.4
			C123.8,67.9,124.1,68.7,124.5,69.5z M109.7,77.9c0.1,0,0.1,0.1,0.2,0.1c0.6-0.5,1.1-1.1,1.7-1.6c0.3-0.3,0.5-0.5,0-0.9
			C111,76.3,110.4,77.1,109.7,77.9z M117.9,68.7c-0.1,0-0.1-0.1-0.2-0.1c-0.3,0.3-0.6,0.5-1,0.9c0.5,0.2,0.9,0.3,1.2,0.4
			C117.9,69.4,117.9,69.1,117.9,68.7z M131.5,95.6c-0.5,0.1-0.7,0.2-1,0.3c0.2,0.4,0.4,0.6,0.6,1C131.3,96.4,131.4,96.2,131.5,95.6z
			 M104.3,84c-0.2-0.1-0.3-0.2-0.5-0.3c-0.2,0.5-0.3,0.9-0.4,1.3c0.1,0,0.1,0.1,0.2,0.1C103.8,84.7,104,84.4,104.3,84z M130.3,97.2
			c0-0.9,0-1-0.7-1C129.9,96.5,130,96.8,130.3,97.2z M112.3,101C112.3,101,112.3,101,112.3,101c0.5,0.1,1,0.1,1.6,0.1
			c0,0,0-0.1,0-0.1C113.3,101,112.8,101,112.3,101z M128.5,92.7c0,0,0.1,0,0.1,0c0-0.1,0-0.3,0-0.4c0-0.1-0.1-0.2-0.2-0.3
			c0,0-0.1,0-0.1,0.1C128.4,92.3,128.4,92.5,128.5,92.7z M124.5,73.7c0,0,0.1,0,0.1,0c0-0.3,0-0.6,0-0.9c0,0-0.1,0-0.1,0
			C124.5,73.1,124.5,73.4,124.5,73.7z M128.3,88.2c-0.5-0.4-0.5-0.4-1.1-0.2C127.6,88.1,127.8,88.1,128.3,88.2z"/>
		<path id="XMLID_841_" d="M110.8,59c0,0.3-0.2,0.3-0.4,0.4c-1.3,0.3-2.6,0.5-3.9,0.8c-0.4,0.1-0.8,0.3-1.3,0.4
			C107,59.6,108.9,59.3,110.8,59C110.9,59,110.8,59,110.8,59z"/>
		<path id="XMLID_840_" d="M125.6,67.6c0.8,0.1,0.6,0.8,1,1.4c-0.5-0.1-0.5-0.5-0.6-0.7C125.9,68.1,125.8,67.8,125.6,67.6
			L125.6,67.6z"/>
		<path id="XMLID_839_" d="M104.5,61c-0.3,0.2-0.6,0.3-0.9,0.5c0-0.1,0-0.1-0.1-0.2c0.3-0.1,0.6-0.3,0.9-0.4
			C104.4,60.9,104.4,61,104.5,61z"/>
		<path id="XMLID_838_" d="M195.3,46.6c-2.1,1.1-4.3,0.6-4.7-1.8c0-0.2,0-0.3-0.1-0.5c-0.5-0.8-0.3-1.7,0-2.5c0.4-1.1,1.1-2,2.2-2.5
			c0.2-0.1,0.4-0.2,0.6-0.2c0.4,0,0.8-0.1,0.8,0.5c0,0.1,0.2,0.2,0.3,0.2c-0.6,1.1-1.2,2-1.7,3.1c-0.4,0.7,0,1.7,0.7,2.1
			c0.3,0.2,0.7,0.4,1,0.5C195,45.7,195.2,46.1,195.3,46.6z"/>
	</g>
</g>
</svg>
